%TF.GenerationSoftware,KiCad,Pcbnew,(7.0.0)*%
%TF.CreationDate,2024-08-26T11:17:35-04:00*%
%TF.ProjectId,nrf24l01_bob,6e726632-346c-4303-915f-626f622e6b69,rev?*%
%TF.SameCoordinates,Original*%
%TF.FileFunction,Copper,L2,Bot*%
%TF.FilePolarity,Positive*%
%FSLAX46Y46*%
G04 Gerber Fmt 4.6, Leading zero omitted, Abs format (unit mm)*
G04 Created by KiCad (PCBNEW (7.0.0)) date 2024-08-26 11:17:35*
%MOMM*%
%LPD*%
G01*
G04 APERTURE LIST*
%TA.AperFunction,ComponentPad*%
%ADD10C,1.600000*%
%TD*%
%TA.AperFunction,ComponentPad*%
%ADD11O,1.600000X1.600000*%
%TD*%
%TA.AperFunction,ComponentPad*%
%ADD12R,1.800000X1.800000*%
%TD*%
%TA.AperFunction,ComponentPad*%
%ADD13C,1.800000*%
%TD*%
%TA.AperFunction,ComponentPad*%
%ADD14R,1.600000X1.600000*%
%TD*%
%TA.AperFunction,ComponentPad*%
%ADD15O,1.700000X1.700000*%
%TD*%
%TA.AperFunction,ComponentPad*%
%ADD16R,1.700000X1.700000*%
%TD*%
%TA.AperFunction,ComponentPad*%
%ADD17C,1.700000*%
%TD*%
%TA.AperFunction,ViaPad*%
%ADD18C,0.685800*%
%TD*%
%TA.AperFunction,ViaPad*%
%ADD19C,1.270000*%
%TD*%
%TA.AperFunction,Conductor*%
%ADD20C,0.152400*%
%TD*%
G04 APERTURE END LIST*
D10*
%TO.P,R1,1*%
%TO.N,Net-(D1-K)*%
X135382000Y-93218000D03*
D11*
%TO.P,R1,2*%
%TO.N,GND*%
X125221999Y-93217999D03*
%TD*%
D12*
%TO.P,D1,1,K*%
%TO.N,Net-(D1-K)*%
X133090999Y-97535999D03*
D13*
%TO.P,D1,2,A*%
%TO.N,/nrf_3v3*%
X135631000Y-97536000D03*
%TD*%
D14*
%TO.P,C5,1*%
%TO.N,/ext_5v*%
X134619999Y-83884887D03*
D10*
%TO.P,C5,2*%
%TO.N,GND*%
X134620000Y-86384888D03*
%TD*%
%TO.P,C2,1*%
%TO.N,/nrf_3v3*%
X136398000Y-102362000D03*
%TO.P,C2,2*%
%TO.N,GND*%
X131398000Y-102362000D03*
%TD*%
D14*
%TO.P,C1,1*%
%TO.N,/nrf_3v3*%
X134619999Y-105663999D03*
D10*
%TO.P,C1,2*%
%TO.N,GND*%
X134620000Y-108164000D03*
%TD*%
D15*
%TO.P,J12,12,Pin_12*%
%TO.N,/irq*%
X134111999Y-120903999D03*
%TO.P,J12,11,Pin_11*%
X134111999Y-118363999D03*
%TO.P,J12,10,Pin_10*%
%TO.N,/ce*%
X136651999Y-120903999D03*
%TO.P,J12,9,Pin_9*%
X136651999Y-118363999D03*
%TO.P,J12,8,Pin_8*%
%TO.N,/mosi*%
X139191999Y-120903999D03*
%TO.P,J12,7,Pin_7*%
X139191999Y-118363999D03*
%TO.P,J12,6,Pin_6*%
%TO.N,/sck*%
X141731999Y-120903999D03*
%TO.P,J12,5,Pin_5*%
X141731999Y-118363999D03*
%TO.P,J12,4,Pin_4*%
%TO.N,/csn*%
X144271999Y-120903999D03*
%TO.P,J12,3,Pin_3*%
X144271999Y-118363999D03*
%TO.P,J12,2,Pin_2*%
%TO.N,/miso*%
X146811999Y-120903999D03*
D16*
%TO.P,J12,1,Pin_1*%
X146811999Y-118363999D03*
%TD*%
%TO.P,U1,1,GND*%
%TO.N,GND*%
X139916999Y-107352999D03*
D17*
%TO.P,U1,2,VCC*%
%TO.N,/nrf_3v3*%
X139917000Y-104813000D03*
%TO.P,U1,3,CE*%
%TO.N,/ce*%
X142457000Y-107353000D03*
%TO.P,U1,4,~{CSN}*%
%TO.N,/csn*%
X142457000Y-104813000D03*
%TO.P,U1,5,SCK*%
%TO.N,/sck*%
X144997000Y-107353000D03*
%TO.P,U1,6,MOSI*%
%TO.N,/mosi*%
X144997000Y-104813000D03*
%TO.P,U1,7,MISO*%
%TO.N,/miso*%
X147537000Y-107353000D03*
%TO.P,U1,8,IRQ*%
%TO.N,/irq*%
X147537000Y-104813000D03*
%TD*%
D16*
%TO.P,J11,1,Pin_1*%
%TO.N,/gpio*%
X125221999Y-124832999D03*
D15*
%TO.P,J11,2,Pin_2*%
X127761999Y-124832999D03*
%TD*%
D16*
%TO.P,J10,1,Pin_1*%
%TO.N,GND*%
X125221999Y-100583999D03*
D15*
%TO.P,J10,2,Pin_2*%
%TO.N,/gpio*%
X125221999Y-103123999D03*
%TO.P,J10,3,Pin_3*%
%TO.N,/irq*%
X125221999Y-105663999D03*
%TO.P,J10,4,Pin_4*%
%TO.N,/ce*%
X125221999Y-108203999D03*
%TO.P,J10,5,Pin_5*%
%TO.N,/csn*%
X125221999Y-110743999D03*
%TO.P,J10,6,Pin_6*%
%TO.N,/sck*%
X125221999Y-113283999D03*
%TO.P,J10,7,Pin_7*%
%TO.N,/miso*%
X125221999Y-115823999D03*
%TO.P,J10,8,Pin_8*%
%TO.N,/mosi*%
X125221999Y-118363999D03*
%TD*%
D16*
%TO.P,J9,1,Pin_1*%
%TO.N,/hdr_3v3*%
X151891999Y-118363999D03*
D15*
%TO.P,J9,2,Pin_2*%
%TO.N,/nrf_3v3*%
X151891999Y-115823999D03*
%TO.P,J9,3,Pin_3*%
%TO.N,/reg_3v3*%
X151891999Y-113283999D03*
%TD*%
D16*
%TO.P,J8,1,Pin_1*%
%TO.N,/ext_5v*%
X125221999Y-84192999D03*
%TD*%
D15*
%TO.P,J1,8,Pin_8*%
%TO.N,/irq*%
X134111999Y-126491999D03*
%TO.P,J1,7,Pin_7*%
%TO.N,/ce*%
X136651999Y-126491999D03*
%TO.P,J1,6,Pin_6*%
%TO.N,/mosi*%
X139191999Y-126491999D03*
%TO.P,J1,5,Pin_5*%
%TO.N,/sck*%
X141731999Y-126491999D03*
%TO.P,J1,4,Pin_4*%
%TO.N,GND*%
X144271999Y-126491999D03*
%TO.P,J1,3,Pin_3*%
%TO.N,/csn*%
X146811999Y-126491999D03*
%TO.P,J1,2,Pin_2*%
%TO.N,/miso*%
X149351999Y-126491999D03*
D16*
%TO.P,J1,1,Pin_1*%
%TO.N,/hdr_3v3*%
X151891999Y-126491999D03*
%TD*%
D18*
%TO.N,/irq*%
X146050000Y-109982000D03*
X141732000Y-109982000D03*
D19*
%TO.N,GND*%
X147574000Y-101346000D03*
X141478000Y-93726000D03*
%TD*%
D20*
%TO.N,/irq*%
X141732000Y-109982000D02*
X146050000Y-109982000D01*
X134112000Y-118364000D02*
X134112000Y-120904000D01*
%TO.N,/ce*%
X136652000Y-118364000D02*
X136652000Y-120904000D01*
%TO.N,/mosi*%
X139192000Y-118364000D02*
X139192000Y-120904000D01*
%TO.N,/sck*%
X141732000Y-118364000D02*
X141732000Y-120904000D01*
%TO.N,/csn*%
X144272000Y-118364000D02*
X144272000Y-120904000D01*
%TO.N,/miso*%
X146812000Y-118364000D02*
X146812000Y-120904000D01*
%TO.N,/gpio*%
X125222000Y-124833000D02*
X127762000Y-124833000D01*
%TD*%
%TA.AperFunction,Conductor*%
%TO.N,GND*%
G36*
X153607500Y-79638113D02*
G01*
X153652887Y-79683500D01*
X153669500Y-79745500D01*
X153669500Y-127756500D01*
X153652887Y-127818500D01*
X153607500Y-127863887D01*
X153545500Y-127880500D01*
X153211806Y-127880500D01*
X153146639Y-127861995D01*
X153100922Y-127812004D01*
X153088300Y-127745447D01*
X153112540Y-127682189D01*
X153180478Y-127591436D01*
X153180480Y-127591432D01*
X153185796Y-127584331D01*
X153236091Y-127449483D01*
X153242500Y-127389873D01*
X153242499Y-125594128D01*
X153236091Y-125534517D01*
X153185796Y-125399669D01*
X153099546Y-125284454D01*
X153009030Y-125216694D01*
X152991431Y-125203519D01*
X152991430Y-125203518D01*
X152984331Y-125198204D01*
X152877442Y-125158337D01*
X152856752Y-125150620D01*
X152856750Y-125150619D01*
X152849483Y-125147909D01*
X152841770Y-125147079D01*
X152841767Y-125147079D01*
X152793180Y-125141855D01*
X152793169Y-125141854D01*
X152789873Y-125141500D01*
X152786550Y-125141500D01*
X150997439Y-125141500D01*
X150997420Y-125141500D01*
X150994128Y-125141501D01*
X150990850Y-125141853D01*
X150990838Y-125141854D01*
X150942231Y-125147079D01*
X150942225Y-125147080D01*
X150934517Y-125147909D01*
X150927252Y-125150618D01*
X150927246Y-125150620D01*
X150807980Y-125195104D01*
X150807978Y-125195104D01*
X150799669Y-125198204D01*
X150792572Y-125203516D01*
X150792568Y-125203519D01*
X150691550Y-125279141D01*
X150691546Y-125279144D01*
X150684454Y-125284454D01*
X150679144Y-125291546D01*
X150679141Y-125291550D01*
X150603519Y-125392568D01*
X150603516Y-125392572D01*
X150598204Y-125399669D01*
X150595104Y-125407978D01*
X150595105Y-125407978D01*
X150549189Y-125531083D01*
X150514210Y-125581462D01*
X150459365Y-125608915D01*
X150398072Y-125606726D01*
X150345326Y-125575430D01*
X150227232Y-125457336D01*
X150227230Y-125457334D01*
X150223401Y-125453505D01*
X150218970Y-125450402D01*
X150218966Y-125450399D01*
X150034259Y-125321066D01*
X150034257Y-125321064D01*
X150029830Y-125317965D01*
X150024933Y-125315681D01*
X150024927Y-125315678D01*
X149820572Y-125220386D01*
X149820570Y-125220385D01*
X149815663Y-125218097D01*
X149810438Y-125216697D01*
X149810430Y-125216694D01*
X149592634Y-125158337D01*
X149592630Y-125158336D01*
X149587408Y-125156937D01*
X149582020Y-125156465D01*
X149582017Y-125156465D01*
X149357395Y-125136813D01*
X149352000Y-125136341D01*
X149346605Y-125136813D01*
X149121982Y-125156465D01*
X149121977Y-125156465D01*
X149116592Y-125156937D01*
X149111371Y-125158335D01*
X149111365Y-125158337D01*
X148893569Y-125216694D01*
X148893557Y-125216698D01*
X148888337Y-125218097D01*
X148883432Y-125220383D01*
X148883427Y-125220386D01*
X148679081Y-125315675D01*
X148679077Y-125315677D01*
X148674171Y-125317965D01*
X148669738Y-125321068D01*
X148669731Y-125321073D01*
X148485034Y-125450399D01*
X148485029Y-125450402D01*
X148480599Y-125453505D01*
X148476775Y-125457328D01*
X148476769Y-125457334D01*
X148317334Y-125616769D01*
X148317328Y-125616775D01*
X148313505Y-125620599D01*
X148310402Y-125625029D01*
X148310399Y-125625034D01*
X148183575Y-125806159D01*
X148139257Y-125845025D01*
X148082000Y-125859036D01*
X148024743Y-125845025D01*
X147980425Y-125806159D01*
X147936577Y-125743537D01*
X147850495Y-125620599D01*
X147683401Y-125453505D01*
X147678970Y-125450402D01*
X147678966Y-125450399D01*
X147494259Y-125321066D01*
X147494257Y-125321064D01*
X147489830Y-125317965D01*
X147484933Y-125315681D01*
X147484927Y-125315678D01*
X147280572Y-125220386D01*
X147280570Y-125220385D01*
X147275663Y-125218097D01*
X147270438Y-125216697D01*
X147270430Y-125216694D01*
X147052634Y-125158337D01*
X147052630Y-125158336D01*
X147047408Y-125156937D01*
X147042020Y-125156465D01*
X147042017Y-125156465D01*
X146817395Y-125136813D01*
X146812000Y-125136341D01*
X146806605Y-125136813D01*
X146581982Y-125156465D01*
X146581977Y-125156465D01*
X146576592Y-125156937D01*
X146571371Y-125158335D01*
X146571365Y-125158337D01*
X146353569Y-125216694D01*
X146353557Y-125216698D01*
X146348337Y-125218097D01*
X146343432Y-125220383D01*
X146343427Y-125220386D01*
X146139081Y-125315675D01*
X146139077Y-125315677D01*
X146134171Y-125317965D01*
X146129738Y-125321068D01*
X146129731Y-125321073D01*
X145945034Y-125450399D01*
X145945029Y-125450402D01*
X145940599Y-125453505D01*
X145936775Y-125457328D01*
X145936769Y-125457334D01*
X145777334Y-125616769D01*
X145777328Y-125616775D01*
X145773505Y-125620599D01*
X145770403Y-125625028D01*
X145770403Y-125625029D01*
X145643269Y-125806596D01*
X145598951Y-125845461D01*
X145541694Y-125859472D01*
X145484437Y-125845461D01*
X145440119Y-125806595D01*
X145313215Y-125625357D01*
X145306280Y-125617092D01*
X145146909Y-125457721D01*
X145138643Y-125450784D01*
X144954008Y-125321501D01*
X144944676Y-125316113D01*
X144740397Y-125220856D01*
X144730263Y-125217168D01*
X144535780Y-125165056D01*
X144524551Y-125164688D01*
X144522000Y-125175631D01*
X144522000Y-126618000D01*
X144505387Y-126680000D01*
X144460000Y-126725387D01*
X144398000Y-126742000D01*
X144146000Y-126742000D01*
X144084000Y-126725387D01*
X144038613Y-126680000D01*
X144022000Y-126618000D01*
X144022000Y-125175631D01*
X144019448Y-125164688D01*
X144008219Y-125165056D01*
X143813736Y-125217168D01*
X143803602Y-125220856D01*
X143599332Y-125316110D01*
X143589982Y-125321508D01*
X143405357Y-125450784D01*
X143397092Y-125457719D01*
X143237719Y-125617092D01*
X143230788Y-125625352D01*
X143103880Y-125806596D01*
X143059562Y-125845461D01*
X143002305Y-125859472D01*
X142945048Y-125845461D01*
X142900730Y-125806595D01*
X142891853Y-125793917D01*
X142770495Y-125620599D01*
X142603401Y-125453505D01*
X142598970Y-125450402D01*
X142598966Y-125450399D01*
X142414259Y-125321066D01*
X142414257Y-125321064D01*
X142409830Y-125317965D01*
X142404933Y-125315681D01*
X142404927Y-125315678D01*
X142200572Y-125220386D01*
X142200570Y-125220385D01*
X142195663Y-125218097D01*
X142190438Y-125216697D01*
X142190430Y-125216694D01*
X141972634Y-125158337D01*
X141972630Y-125158336D01*
X141967408Y-125156937D01*
X141962020Y-125156465D01*
X141962017Y-125156465D01*
X141737395Y-125136813D01*
X141732000Y-125136341D01*
X141726605Y-125136813D01*
X141501982Y-125156465D01*
X141501977Y-125156465D01*
X141496592Y-125156937D01*
X141491371Y-125158335D01*
X141491365Y-125158337D01*
X141273569Y-125216694D01*
X141273557Y-125216698D01*
X141268337Y-125218097D01*
X141263432Y-125220383D01*
X141263427Y-125220386D01*
X141059081Y-125315675D01*
X141059077Y-125315677D01*
X141054171Y-125317965D01*
X141049738Y-125321068D01*
X141049731Y-125321073D01*
X140865034Y-125450399D01*
X140865029Y-125450402D01*
X140860599Y-125453505D01*
X140856775Y-125457328D01*
X140856769Y-125457334D01*
X140697334Y-125616769D01*
X140697328Y-125616775D01*
X140693505Y-125620599D01*
X140690402Y-125625029D01*
X140690399Y-125625034D01*
X140563575Y-125806159D01*
X140519257Y-125845025D01*
X140462000Y-125859036D01*
X140404743Y-125845025D01*
X140360425Y-125806159D01*
X140316577Y-125743537D01*
X140230495Y-125620599D01*
X140063401Y-125453505D01*
X140058970Y-125450402D01*
X140058966Y-125450399D01*
X139874259Y-125321066D01*
X139874257Y-125321064D01*
X139869830Y-125317965D01*
X139864933Y-125315681D01*
X139864927Y-125315678D01*
X139660572Y-125220386D01*
X139660570Y-125220385D01*
X139655663Y-125218097D01*
X139650438Y-125216697D01*
X139650430Y-125216694D01*
X139432634Y-125158337D01*
X139432630Y-125158336D01*
X139427408Y-125156937D01*
X139422020Y-125156465D01*
X139422017Y-125156465D01*
X139197395Y-125136813D01*
X139192000Y-125136341D01*
X139186605Y-125136813D01*
X138961982Y-125156465D01*
X138961977Y-125156465D01*
X138956592Y-125156937D01*
X138951371Y-125158335D01*
X138951365Y-125158337D01*
X138733569Y-125216694D01*
X138733557Y-125216698D01*
X138728337Y-125218097D01*
X138723432Y-125220383D01*
X138723427Y-125220386D01*
X138519081Y-125315675D01*
X138519077Y-125315677D01*
X138514171Y-125317965D01*
X138509738Y-125321068D01*
X138509731Y-125321073D01*
X138325034Y-125450399D01*
X138325029Y-125450402D01*
X138320599Y-125453505D01*
X138316775Y-125457328D01*
X138316769Y-125457334D01*
X138157334Y-125616769D01*
X138157328Y-125616775D01*
X138153505Y-125620599D01*
X138150402Y-125625029D01*
X138150399Y-125625034D01*
X138023575Y-125806159D01*
X137979257Y-125845025D01*
X137922000Y-125859036D01*
X137864743Y-125845025D01*
X137820425Y-125806159D01*
X137776577Y-125743537D01*
X137690495Y-125620599D01*
X137523401Y-125453505D01*
X137518970Y-125450402D01*
X137518966Y-125450399D01*
X137334259Y-125321066D01*
X137334257Y-125321064D01*
X137329830Y-125317965D01*
X137324933Y-125315681D01*
X137324927Y-125315678D01*
X137120572Y-125220386D01*
X137120570Y-125220385D01*
X137115663Y-125218097D01*
X137110438Y-125216697D01*
X137110430Y-125216694D01*
X136892634Y-125158337D01*
X136892630Y-125158336D01*
X136887408Y-125156937D01*
X136882020Y-125156465D01*
X136882017Y-125156465D01*
X136657395Y-125136813D01*
X136652000Y-125136341D01*
X136646605Y-125136813D01*
X136421982Y-125156465D01*
X136421977Y-125156465D01*
X136416592Y-125156937D01*
X136411371Y-125158335D01*
X136411365Y-125158337D01*
X136193569Y-125216694D01*
X136193557Y-125216698D01*
X136188337Y-125218097D01*
X136183432Y-125220383D01*
X136183427Y-125220386D01*
X135979081Y-125315675D01*
X135979077Y-125315677D01*
X135974171Y-125317965D01*
X135969738Y-125321068D01*
X135969731Y-125321073D01*
X135785034Y-125450399D01*
X135785029Y-125450402D01*
X135780599Y-125453505D01*
X135776775Y-125457328D01*
X135776769Y-125457334D01*
X135617334Y-125616769D01*
X135617328Y-125616775D01*
X135613505Y-125620599D01*
X135610402Y-125625029D01*
X135610399Y-125625034D01*
X135483575Y-125806159D01*
X135439257Y-125845025D01*
X135382000Y-125859036D01*
X135324743Y-125845025D01*
X135280425Y-125806159D01*
X135236577Y-125743537D01*
X135150495Y-125620599D01*
X134983401Y-125453505D01*
X134978970Y-125450402D01*
X134978966Y-125450399D01*
X134794259Y-125321066D01*
X134794257Y-125321064D01*
X134789830Y-125317965D01*
X134784933Y-125315681D01*
X134784927Y-125315678D01*
X134580572Y-125220386D01*
X134580570Y-125220385D01*
X134575663Y-125218097D01*
X134570438Y-125216697D01*
X134570430Y-125216694D01*
X134352634Y-125158337D01*
X134352630Y-125158336D01*
X134347408Y-125156937D01*
X134342020Y-125156465D01*
X134342017Y-125156465D01*
X134117395Y-125136813D01*
X134112000Y-125136341D01*
X134106605Y-125136813D01*
X133881982Y-125156465D01*
X133881977Y-125156465D01*
X133876592Y-125156937D01*
X133871371Y-125158335D01*
X133871365Y-125158337D01*
X133653569Y-125216694D01*
X133653557Y-125216698D01*
X133648337Y-125218097D01*
X133643432Y-125220383D01*
X133643427Y-125220386D01*
X133439081Y-125315675D01*
X133439077Y-125315677D01*
X133434171Y-125317965D01*
X133429738Y-125321068D01*
X133429731Y-125321073D01*
X133245034Y-125450399D01*
X133245029Y-125450402D01*
X133240599Y-125453505D01*
X133236775Y-125457328D01*
X133236769Y-125457334D01*
X133077334Y-125616769D01*
X133077328Y-125616775D01*
X133073505Y-125620599D01*
X133070402Y-125625029D01*
X133070399Y-125625034D01*
X132941073Y-125809731D01*
X132941068Y-125809738D01*
X132937965Y-125814171D01*
X132935677Y-125819077D01*
X132935675Y-125819081D01*
X132840386Y-126023427D01*
X132840383Y-126023432D01*
X132838097Y-126028337D01*
X132836698Y-126033557D01*
X132836694Y-126033569D01*
X132778337Y-126251365D01*
X132778335Y-126251371D01*
X132776937Y-126256592D01*
X132756341Y-126492000D01*
X132776937Y-126727408D01*
X132778336Y-126732630D01*
X132778337Y-126732634D01*
X132836694Y-126950430D01*
X132836697Y-126950438D01*
X132838097Y-126955663D01*
X132840385Y-126960570D01*
X132840386Y-126960572D01*
X132935678Y-127164927D01*
X132935681Y-127164933D01*
X132937965Y-127169830D01*
X132941064Y-127174257D01*
X132941066Y-127174259D01*
X133070399Y-127358966D01*
X133070402Y-127358970D01*
X133073505Y-127363401D01*
X133240599Y-127530495D01*
X133245031Y-127533598D01*
X133245033Y-127533600D01*
X133418303Y-127654925D01*
X133458630Y-127702142D01*
X133471009Y-127762990D01*
X133452337Y-127822210D01*
X133407295Y-127864953D01*
X133347179Y-127880500D01*
X123314500Y-127880500D01*
X123252500Y-127863887D01*
X123207113Y-127818500D01*
X123190500Y-127756500D01*
X123190500Y-125727578D01*
X123871500Y-125727578D01*
X123871501Y-125730872D01*
X123871853Y-125734150D01*
X123871854Y-125734161D01*
X123877079Y-125782768D01*
X123877080Y-125782773D01*
X123877909Y-125790483D01*
X123880619Y-125797749D01*
X123880620Y-125797753D01*
X123903640Y-125859472D01*
X123928204Y-125925331D01*
X123933518Y-125932430D01*
X123933519Y-125932431D01*
X123999048Y-126019967D01*
X124014454Y-126040546D01*
X124129669Y-126126796D01*
X124264517Y-126177091D01*
X124324127Y-126183500D01*
X126119872Y-126183499D01*
X126179483Y-126177091D01*
X126314331Y-126126796D01*
X126429546Y-126040546D01*
X126515796Y-125925331D01*
X126564810Y-125793916D01*
X126599789Y-125743537D01*
X126654634Y-125716084D01*
X126715927Y-125718273D01*
X126768672Y-125749568D01*
X126890599Y-125871495D01*
X126895031Y-125874598D01*
X126895033Y-125874600D01*
X127039260Y-125975589D01*
X127084170Y-126007035D01*
X127089070Y-126009320D01*
X127089072Y-126009321D01*
X127119323Y-126023427D01*
X127298337Y-126106903D01*
X127526592Y-126168063D01*
X127762000Y-126188659D01*
X127997408Y-126168063D01*
X128225663Y-126106903D01*
X128439830Y-126007035D01*
X128633401Y-125871495D01*
X128800495Y-125704401D01*
X128936035Y-125510830D01*
X129035903Y-125296663D01*
X129097063Y-125068408D01*
X129117659Y-124833000D01*
X129097063Y-124597592D01*
X129035903Y-124369337D01*
X128936035Y-124155171D01*
X128800495Y-123961599D01*
X128633401Y-123794505D01*
X128628970Y-123791402D01*
X128628966Y-123791399D01*
X128444259Y-123662066D01*
X128444257Y-123662064D01*
X128439830Y-123658965D01*
X128434933Y-123656681D01*
X128434927Y-123656678D01*
X128230572Y-123561386D01*
X128230570Y-123561385D01*
X128225663Y-123559097D01*
X128220438Y-123557697D01*
X128220430Y-123557694D01*
X128002634Y-123499337D01*
X128002630Y-123499336D01*
X127997408Y-123497937D01*
X127992020Y-123497465D01*
X127992017Y-123497465D01*
X127767395Y-123477813D01*
X127762000Y-123477341D01*
X127756605Y-123477813D01*
X127531982Y-123497465D01*
X127531977Y-123497465D01*
X127526592Y-123497937D01*
X127521371Y-123499335D01*
X127521365Y-123499337D01*
X127303569Y-123557694D01*
X127303557Y-123557698D01*
X127298337Y-123559097D01*
X127293432Y-123561383D01*
X127293427Y-123561386D01*
X127089081Y-123656675D01*
X127089077Y-123656677D01*
X127084171Y-123658965D01*
X127079738Y-123662068D01*
X127079731Y-123662073D01*
X126895034Y-123791399D01*
X126895029Y-123791402D01*
X126890599Y-123794505D01*
X126886774Y-123798329D01*
X126886775Y-123798329D01*
X126768673Y-123916431D01*
X126715926Y-123947726D01*
X126654633Y-123949915D01*
X126599789Y-123922462D01*
X126564810Y-123872082D01*
X126537304Y-123798336D01*
X126515796Y-123740669D01*
X126429546Y-123625454D01*
X126339030Y-123557694D01*
X126321431Y-123544519D01*
X126321430Y-123544518D01*
X126314331Y-123539204D01*
X126207442Y-123499337D01*
X126186752Y-123491620D01*
X126186750Y-123491619D01*
X126179483Y-123488909D01*
X126171770Y-123488079D01*
X126171767Y-123488079D01*
X126123180Y-123482855D01*
X126123169Y-123482854D01*
X126119873Y-123482500D01*
X126116550Y-123482500D01*
X124327439Y-123482500D01*
X124327420Y-123482500D01*
X124324128Y-123482501D01*
X124320850Y-123482853D01*
X124320838Y-123482854D01*
X124272231Y-123488079D01*
X124272225Y-123488080D01*
X124264517Y-123488909D01*
X124257252Y-123491618D01*
X124257246Y-123491620D01*
X124137980Y-123536104D01*
X124137978Y-123536104D01*
X124129669Y-123539204D01*
X124122572Y-123544516D01*
X124122568Y-123544519D01*
X124021550Y-123620141D01*
X124021546Y-123620144D01*
X124014454Y-123625454D01*
X124009144Y-123632546D01*
X124009141Y-123632550D01*
X123933519Y-123733568D01*
X123933516Y-123733572D01*
X123928204Y-123740669D01*
X123925104Y-123748978D01*
X123925104Y-123748980D01*
X123880620Y-123868247D01*
X123880619Y-123868250D01*
X123877909Y-123875517D01*
X123877079Y-123883227D01*
X123877079Y-123883232D01*
X123871855Y-123931819D01*
X123871854Y-123931831D01*
X123871500Y-123935127D01*
X123871500Y-123938448D01*
X123871500Y-123938449D01*
X123871500Y-125727560D01*
X123871500Y-125727578D01*
X123190500Y-125727578D01*
X123190500Y-120904000D01*
X132756341Y-120904000D01*
X132776937Y-121139408D01*
X132778336Y-121144630D01*
X132778337Y-121144634D01*
X132836694Y-121362430D01*
X132836697Y-121362438D01*
X132838097Y-121367663D01*
X132840385Y-121372570D01*
X132840386Y-121372572D01*
X132935678Y-121576927D01*
X132935681Y-121576933D01*
X132937965Y-121581830D01*
X132941064Y-121586257D01*
X132941066Y-121586259D01*
X133070399Y-121770966D01*
X133070402Y-121770970D01*
X133073505Y-121775401D01*
X133240599Y-121942495D01*
X133434170Y-122078035D01*
X133648337Y-122177903D01*
X133876592Y-122239063D01*
X134112000Y-122259659D01*
X134347408Y-122239063D01*
X134575663Y-122177903D01*
X134789830Y-122078035D01*
X134983401Y-121942495D01*
X135150495Y-121775401D01*
X135280424Y-121589842D01*
X135324743Y-121550976D01*
X135382000Y-121536965D01*
X135439257Y-121550976D01*
X135483575Y-121589842D01*
X135610395Y-121770961D01*
X135610401Y-121770968D01*
X135613505Y-121775401D01*
X135780599Y-121942495D01*
X135974170Y-122078035D01*
X136188337Y-122177903D01*
X136416592Y-122239063D01*
X136652000Y-122259659D01*
X136887408Y-122239063D01*
X137115663Y-122177903D01*
X137329830Y-122078035D01*
X137523401Y-121942495D01*
X137690495Y-121775401D01*
X137820424Y-121589842D01*
X137864743Y-121550976D01*
X137922000Y-121536965D01*
X137979257Y-121550976D01*
X138023575Y-121589842D01*
X138150395Y-121770961D01*
X138150401Y-121770968D01*
X138153505Y-121775401D01*
X138320599Y-121942495D01*
X138514170Y-122078035D01*
X138728337Y-122177903D01*
X138956592Y-122239063D01*
X139192000Y-122259659D01*
X139427408Y-122239063D01*
X139655663Y-122177903D01*
X139869830Y-122078035D01*
X140063401Y-121942495D01*
X140230495Y-121775401D01*
X140360424Y-121589842D01*
X140404743Y-121550976D01*
X140462000Y-121536965D01*
X140519257Y-121550976D01*
X140563575Y-121589842D01*
X140690395Y-121770961D01*
X140690401Y-121770968D01*
X140693505Y-121775401D01*
X140860599Y-121942495D01*
X141054170Y-122078035D01*
X141268337Y-122177903D01*
X141496592Y-122239063D01*
X141732000Y-122259659D01*
X141967408Y-122239063D01*
X142195663Y-122177903D01*
X142409830Y-122078035D01*
X142603401Y-121942495D01*
X142770495Y-121775401D01*
X142900424Y-121589842D01*
X142944743Y-121550976D01*
X143002000Y-121536965D01*
X143059257Y-121550976D01*
X143103575Y-121589842D01*
X143230395Y-121770961D01*
X143230401Y-121770968D01*
X143233505Y-121775401D01*
X143400599Y-121942495D01*
X143594170Y-122078035D01*
X143808337Y-122177903D01*
X144036592Y-122239063D01*
X144272000Y-122259659D01*
X144507408Y-122239063D01*
X144735663Y-122177903D01*
X144949830Y-122078035D01*
X145143401Y-121942495D01*
X145310495Y-121775401D01*
X145440424Y-121589842D01*
X145484743Y-121550976D01*
X145542000Y-121536965D01*
X145599257Y-121550976D01*
X145643575Y-121589842D01*
X145770395Y-121770961D01*
X145770401Y-121770968D01*
X145773505Y-121775401D01*
X145940599Y-121942495D01*
X146134170Y-122078035D01*
X146348337Y-122177903D01*
X146576592Y-122239063D01*
X146812000Y-122259659D01*
X147047408Y-122239063D01*
X147275663Y-122177903D01*
X147489830Y-122078035D01*
X147683401Y-121942495D01*
X147850495Y-121775401D01*
X147986035Y-121581830D01*
X148085903Y-121367663D01*
X148147063Y-121139408D01*
X148167659Y-120904000D01*
X148147063Y-120668592D01*
X148085903Y-120440337D01*
X147986035Y-120226171D01*
X147850495Y-120032599D01*
X147728569Y-119910673D01*
X147697273Y-119857927D01*
X147695084Y-119796634D01*
X147722537Y-119741789D01*
X147772916Y-119706810D01*
X147904331Y-119657796D01*
X148019546Y-119571546D01*
X148105796Y-119456331D01*
X148156091Y-119321483D01*
X148162500Y-119261873D01*
X148162499Y-117466128D01*
X148156091Y-117406517D01*
X148105796Y-117271669D01*
X148019546Y-117156454D01*
X147929030Y-117088694D01*
X147911431Y-117075519D01*
X147911430Y-117075518D01*
X147904331Y-117070204D01*
X147797442Y-117030337D01*
X147776752Y-117022620D01*
X147776750Y-117022619D01*
X147769483Y-117019909D01*
X147761770Y-117019079D01*
X147761767Y-117019079D01*
X147713180Y-117013855D01*
X147713169Y-117013854D01*
X147709873Y-117013500D01*
X147706550Y-117013500D01*
X145917439Y-117013500D01*
X145917420Y-117013500D01*
X145914128Y-117013501D01*
X145910850Y-117013853D01*
X145910838Y-117013854D01*
X145862231Y-117019079D01*
X145862225Y-117019080D01*
X145854517Y-117019909D01*
X145847252Y-117022618D01*
X145847246Y-117022620D01*
X145727980Y-117067104D01*
X145727978Y-117067104D01*
X145719669Y-117070204D01*
X145712572Y-117075516D01*
X145712568Y-117075519D01*
X145611550Y-117151141D01*
X145611546Y-117151144D01*
X145604454Y-117156454D01*
X145599144Y-117163546D01*
X145599141Y-117163550D01*
X145523519Y-117264568D01*
X145523516Y-117264572D01*
X145518204Y-117271669D01*
X145515104Y-117279978D01*
X145515105Y-117279978D01*
X145469189Y-117403083D01*
X145434210Y-117453462D01*
X145379365Y-117480915D01*
X145318072Y-117478726D01*
X145265326Y-117447430D01*
X145147232Y-117329336D01*
X145147230Y-117329334D01*
X145143401Y-117325505D01*
X145138970Y-117322402D01*
X145138966Y-117322399D01*
X144954259Y-117193066D01*
X144954257Y-117193064D01*
X144949830Y-117189965D01*
X144944933Y-117187681D01*
X144944927Y-117187678D01*
X144740572Y-117092386D01*
X144740570Y-117092385D01*
X144735663Y-117090097D01*
X144730438Y-117088697D01*
X144730430Y-117088694D01*
X144512634Y-117030337D01*
X144512630Y-117030336D01*
X144507408Y-117028937D01*
X144502020Y-117028465D01*
X144502017Y-117028465D01*
X144277395Y-117008813D01*
X144272000Y-117008341D01*
X144266605Y-117008813D01*
X144041982Y-117028465D01*
X144041977Y-117028465D01*
X144036592Y-117028937D01*
X144031371Y-117030335D01*
X144031365Y-117030337D01*
X143813569Y-117088694D01*
X143813557Y-117088698D01*
X143808337Y-117090097D01*
X143803432Y-117092383D01*
X143803427Y-117092386D01*
X143599081Y-117187675D01*
X143599077Y-117187677D01*
X143594171Y-117189965D01*
X143589738Y-117193068D01*
X143589731Y-117193073D01*
X143405034Y-117322399D01*
X143405029Y-117322402D01*
X143400599Y-117325505D01*
X143396775Y-117329328D01*
X143396769Y-117329334D01*
X143237334Y-117488769D01*
X143237328Y-117488775D01*
X143233505Y-117492599D01*
X143230402Y-117497029D01*
X143230399Y-117497034D01*
X143103575Y-117678159D01*
X143059257Y-117717025D01*
X143002000Y-117731036D01*
X142944743Y-117717025D01*
X142900425Y-117678159D01*
X142773600Y-117497034D01*
X142770495Y-117492599D01*
X142603401Y-117325505D01*
X142598970Y-117322402D01*
X142598966Y-117322399D01*
X142414259Y-117193066D01*
X142414257Y-117193064D01*
X142409830Y-117189965D01*
X142404933Y-117187681D01*
X142404927Y-117187678D01*
X142200572Y-117092386D01*
X142200570Y-117092385D01*
X142195663Y-117090097D01*
X142190438Y-117088697D01*
X142190430Y-117088694D01*
X141972634Y-117030337D01*
X141972630Y-117030336D01*
X141967408Y-117028937D01*
X141962020Y-117028465D01*
X141962017Y-117028465D01*
X141737395Y-117008813D01*
X141732000Y-117008341D01*
X141726605Y-117008813D01*
X141501982Y-117028465D01*
X141501977Y-117028465D01*
X141496592Y-117028937D01*
X141491371Y-117030335D01*
X141491365Y-117030337D01*
X141273569Y-117088694D01*
X141273557Y-117088698D01*
X141268337Y-117090097D01*
X141263432Y-117092383D01*
X141263427Y-117092386D01*
X141059081Y-117187675D01*
X141059077Y-117187677D01*
X141054171Y-117189965D01*
X141049738Y-117193068D01*
X141049731Y-117193073D01*
X140865034Y-117322399D01*
X140865029Y-117322402D01*
X140860599Y-117325505D01*
X140856775Y-117329328D01*
X140856769Y-117329334D01*
X140697334Y-117488769D01*
X140697328Y-117488775D01*
X140693505Y-117492599D01*
X140690402Y-117497029D01*
X140690399Y-117497034D01*
X140563575Y-117678159D01*
X140519257Y-117717025D01*
X140462000Y-117731036D01*
X140404743Y-117717025D01*
X140360425Y-117678159D01*
X140233600Y-117497034D01*
X140230495Y-117492599D01*
X140063401Y-117325505D01*
X140058970Y-117322402D01*
X140058966Y-117322399D01*
X139874259Y-117193066D01*
X139874257Y-117193064D01*
X139869830Y-117189965D01*
X139864933Y-117187681D01*
X139864927Y-117187678D01*
X139660572Y-117092386D01*
X139660570Y-117092385D01*
X139655663Y-117090097D01*
X139650438Y-117088697D01*
X139650430Y-117088694D01*
X139432634Y-117030337D01*
X139432630Y-117030336D01*
X139427408Y-117028937D01*
X139422020Y-117028465D01*
X139422017Y-117028465D01*
X139197395Y-117008813D01*
X139192000Y-117008341D01*
X139186605Y-117008813D01*
X138961982Y-117028465D01*
X138961977Y-117028465D01*
X138956592Y-117028937D01*
X138951371Y-117030335D01*
X138951365Y-117030337D01*
X138733569Y-117088694D01*
X138733557Y-117088698D01*
X138728337Y-117090097D01*
X138723432Y-117092383D01*
X138723427Y-117092386D01*
X138519081Y-117187675D01*
X138519077Y-117187677D01*
X138514171Y-117189965D01*
X138509738Y-117193068D01*
X138509731Y-117193073D01*
X138325034Y-117322399D01*
X138325029Y-117322402D01*
X138320599Y-117325505D01*
X138316775Y-117329328D01*
X138316769Y-117329334D01*
X138157334Y-117488769D01*
X138157328Y-117488775D01*
X138153505Y-117492599D01*
X138150402Y-117497029D01*
X138150399Y-117497034D01*
X138023575Y-117678159D01*
X137979257Y-117717025D01*
X137922000Y-117731036D01*
X137864743Y-117717025D01*
X137820425Y-117678159D01*
X137693600Y-117497034D01*
X137690495Y-117492599D01*
X137523401Y-117325505D01*
X137518970Y-117322402D01*
X137518966Y-117322399D01*
X137334259Y-117193066D01*
X137334257Y-117193064D01*
X137329830Y-117189965D01*
X137324933Y-117187681D01*
X137324927Y-117187678D01*
X137120572Y-117092386D01*
X137120570Y-117092385D01*
X137115663Y-117090097D01*
X137110438Y-117088697D01*
X137110430Y-117088694D01*
X136892634Y-117030337D01*
X136892630Y-117030336D01*
X136887408Y-117028937D01*
X136882020Y-117028465D01*
X136882017Y-117028465D01*
X136657395Y-117008813D01*
X136652000Y-117008341D01*
X136646605Y-117008813D01*
X136421982Y-117028465D01*
X136421977Y-117028465D01*
X136416592Y-117028937D01*
X136411371Y-117030335D01*
X136411365Y-117030337D01*
X136193569Y-117088694D01*
X136193557Y-117088698D01*
X136188337Y-117090097D01*
X136183432Y-117092383D01*
X136183427Y-117092386D01*
X135979081Y-117187675D01*
X135979077Y-117187677D01*
X135974171Y-117189965D01*
X135969738Y-117193068D01*
X135969731Y-117193073D01*
X135785034Y-117322399D01*
X135785029Y-117322402D01*
X135780599Y-117325505D01*
X135776775Y-117329328D01*
X135776769Y-117329334D01*
X135617334Y-117488769D01*
X135617328Y-117488775D01*
X135613505Y-117492599D01*
X135610402Y-117497029D01*
X135610399Y-117497034D01*
X135483575Y-117678159D01*
X135439257Y-117717025D01*
X135382000Y-117731036D01*
X135324743Y-117717025D01*
X135280425Y-117678159D01*
X135153600Y-117497034D01*
X135150495Y-117492599D01*
X134983401Y-117325505D01*
X134978970Y-117322402D01*
X134978966Y-117322399D01*
X134794259Y-117193066D01*
X134794257Y-117193064D01*
X134789830Y-117189965D01*
X134784933Y-117187681D01*
X134784927Y-117187678D01*
X134580572Y-117092386D01*
X134580570Y-117092385D01*
X134575663Y-117090097D01*
X134570438Y-117088697D01*
X134570430Y-117088694D01*
X134352634Y-117030337D01*
X134352630Y-117030336D01*
X134347408Y-117028937D01*
X134342020Y-117028465D01*
X134342017Y-117028465D01*
X134117395Y-117008813D01*
X134112000Y-117008341D01*
X134106605Y-117008813D01*
X133881982Y-117028465D01*
X133881977Y-117028465D01*
X133876592Y-117028937D01*
X133871371Y-117030335D01*
X133871365Y-117030337D01*
X133653569Y-117088694D01*
X133653557Y-117088698D01*
X133648337Y-117090097D01*
X133643432Y-117092383D01*
X133643427Y-117092386D01*
X133439081Y-117187675D01*
X133439077Y-117187677D01*
X133434171Y-117189965D01*
X133429738Y-117193068D01*
X133429731Y-117193073D01*
X133245034Y-117322399D01*
X133245029Y-117322402D01*
X133240599Y-117325505D01*
X133236775Y-117329328D01*
X133236769Y-117329334D01*
X133077334Y-117488769D01*
X133077328Y-117488775D01*
X133073505Y-117492599D01*
X133070402Y-117497029D01*
X133070399Y-117497034D01*
X132941073Y-117681731D01*
X132941068Y-117681738D01*
X132937965Y-117686171D01*
X132935677Y-117691077D01*
X132935675Y-117691081D01*
X132840386Y-117895427D01*
X132840383Y-117895432D01*
X132838097Y-117900337D01*
X132836698Y-117905557D01*
X132836694Y-117905569D01*
X132778337Y-118123365D01*
X132778335Y-118123371D01*
X132776937Y-118128592D01*
X132756341Y-118364000D01*
X132776937Y-118599408D01*
X132778336Y-118604630D01*
X132778337Y-118604634D01*
X132836694Y-118822430D01*
X132836697Y-118822438D01*
X132838097Y-118827663D01*
X132840385Y-118832570D01*
X132840386Y-118832572D01*
X132935678Y-119036927D01*
X132935681Y-119036933D01*
X132937965Y-119041830D01*
X132941064Y-119046257D01*
X132941066Y-119046259D01*
X133070399Y-119230966D01*
X133070402Y-119230970D01*
X133073505Y-119235401D01*
X133240599Y-119402495D01*
X133245032Y-119405599D01*
X133245038Y-119405604D01*
X133426158Y-119532425D01*
X133465024Y-119576743D01*
X133479035Y-119634000D01*
X133465024Y-119691257D01*
X133426159Y-119735575D01*
X133245041Y-119862395D01*
X133240599Y-119865505D01*
X133236775Y-119869328D01*
X133236769Y-119869334D01*
X133077334Y-120028769D01*
X133077328Y-120028775D01*
X133073505Y-120032599D01*
X133070402Y-120037029D01*
X133070399Y-120037034D01*
X132941073Y-120221731D01*
X132941068Y-120221738D01*
X132937965Y-120226171D01*
X132935677Y-120231077D01*
X132935675Y-120231081D01*
X132840386Y-120435427D01*
X132840383Y-120435432D01*
X132838097Y-120440337D01*
X132836698Y-120445557D01*
X132836694Y-120445569D01*
X132778337Y-120663365D01*
X132778335Y-120663371D01*
X132776937Y-120668592D01*
X132756341Y-120904000D01*
X123190500Y-120904000D01*
X123190500Y-118364000D01*
X123866341Y-118364000D01*
X123886937Y-118599408D01*
X123888336Y-118604630D01*
X123888337Y-118604634D01*
X123946694Y-118822430D01*
X123946697Y-118822438D01*
X123948097Y-118827663D01*
X123950385Y-118832570D01*
X123950386Y-118832572D01*
X124045678Y-119036927D01*
X124045681Y-119036933D01*
X124047965Y-119041830D01*
X124051064Y-119046257D01*
X124051066Y-119046259D01*
X124180399Y-119230966D01*
X124180402Y-119230970D01*
X124183505Y-119235401D01*
X124350599Y-119402495D01*
X124355031Y-119405598D01*
X124355033Y-119405600D01*
X124499260Y-119506589D01*
X124544170Y-119538035D01*
X124758337Y-119637903D01*
X124986592Y-119699063D01*
X125222000Y-119719659D01*
X125457408Y-119699063D01*
X125685663Y-119637903D01*
X125899830Y-119538035D01*
X126093401Y-119402495D01*
X126260495Y-119235401D01*
X126396035Y-119041830D01*
X126495903Y-118827663D01*
X126557063Y-118599408D01*
X126577659Y-118364000D01*
X126557063Y-118128592D01*
X126495903Y-117900337D01*
X126396035Y-117686171D01*
X126260495Y-117492599D01*
X126093401Y-117325505D01*
X126088970Y-117322402D01*
X126088966Y-117322399D01*
X125907841Y-117195574D01*
X125868976Y-117151256D01*
X125854965Y-117093999D01*
X125868976Y-117036742D01*
X125907839Y-116992426D01*
X126093401Y-116862495D01*
X126260495Y-116695401D01*
X126396035Y-116501830D01*
X126495903Y-116287663D01*
X126557063Y-116059408D01*
X126577659Y-115824000D01*
X150536341Y-115824000D01*
X150556937Y-116059408D01*
X150558336Y-116064630D01*
X150558337Y-116064634D01*
X150616694Y-116282430D01*
X150616697Y-116282438D01*
X150618097Y-116287663D01*
X150620385Y-116292570D01*
X150620386Y-116292572D01*
X150715678Y-116496927D01*
X150715681Y-116496933D01*
X150717965Y-116501830D01*
X150721064Y-116506257D01*
X150721066Y-116506259D01*
X150850399Y-116690966D01*
X150850402Y-116690970D01*
X150853505Y-116695401D01*
X150857335Y-116699231D01*
X150857336Y-116699232D01*
X150975430Y-116817326D01*
X151006726Y-116870072D01*
X151008915Y-116931365D01*
X150981462Y-116986210D01*
X150931083Y-117021189D01*
X150815702Y-117064223D01*
X150799669Y-117070204D01*
X150792572Y-117075516D01*
X150792568Y-117075519D01*
X150691550Y-117151141D01*
X150691546Y-117151144D01*
X150684454Y-117156454D01*
X150679144Y-117163546D01*
X150679141Y-117163550D01*
X150603519Y-117264568D01*
X150603516Y-117264572D01*
X150598204Y-117271669D01*
X150595104Y-117279978D01*
X150595104Y-117279980D01*
X150550620Y-117399247D01*
X150550619Y-117399250D01*
X150547909Y-117406517D01*
X150547079Y-117414227D01*
X150547079Y-117414232D01*
X150541855Y-117462819D01*
X150541854Y-117462831D01*
X150541500Y-117466127D01*
X150541500Y-117469448D01*
X150541500Y-117469449D01*
X150541500Y-119258560D01*
X150541500Y-119258578D01*
X150541501Y-119261872D01*
X150541853Y-119265150D01*
X150541854Y-119265161D01*
X150547079Y-119313768D01*
X150547080Y-119313773D01*
X150547909Y-119321483D01*
X150550619Y-119328749D01*
X150550620Y-119328753D01*
X150576695Y-119398663D01*
X150598204Y-119456331D01*
X150603518Y-119463430D01*
X150603519Y-119463431D01*
X150659367Y-119538035D01*
X150684454Y-119571546D01*
X150799669Y-119657796D01*
X150934517Y-119708091D01*
X150994127Y-119714500D01*
X152789872Y-119714499D01*
X152849483Y-119708091D01*
X152984331Y-119657796D01*
X153099546Y-119571546D01*
X153185796Y-119456331D01*
X153236091Y-119321483D01*
X153242500Y-119261873D01*
X153242499Y-117466128D01*
X153236091Y-117406517D01*
X153185796Y-117271669D01*
X153099546Y-117156454D01*
X153009030Y-117088694D01*
X152991431Y-117075519D01*
X152991430Y-117075518D01*
X152984331Y-117070204D01*
X152914359Y-117044106D01*
X152852916Y-117021189D01*
X152802537Y-116986210D01*
X152775084Y-116931365D01*
X152777273Y-116870072D01*
X152808566Y-116817329D01*
X152930495Y-116695401D01*
X153066035Y-116501830D01*
X153165903Y-116287663D01*
X153227063Y-116059408D01*
X153247659Y-115824000D01*
X153227063Y-115588592D01*
X153165903Y-115360337D01*
X153066035Y-115146171D01*
X152930495Y-114952599D01*
X152763401Y-114785505D01*
X152758968Y-114782401D01*
X152758961Y-114782395D01*
X152577842Y-114655575D01*
X152538976Y-114611257D01*
X152524965Y-114554000D01*
X152538976Y-114496743D01*
X152577842Y-114452425D01*
X152758961Y-114325604D01*
X152758961Y-114325603D01*
X152763401Y-114322495D01*
X152930495Y-114155401D01*
X153066035Y-113961830D01*
X153165903Y-113747663D01*
X153227063Y-113519408D01*
X153247659Y-113284000D01*
X153227063Y-113048592D01*
X153165903Y-112820337D01*
X153066035Y-112606171D01*
X152930495Y-112412599D01*
X152763401Y-112245505D01*
X152758970Y-112242402D01*
X152758966Y-112242399D01*
X152574259Y-112113066D01*
X152574257Y-112113064D01*
X152569830Y-112109965D01*
X152564933Y-112107681D01*
X152564927Y-112107678D01*
X152360572Y-112012386D01*
X152360570Y-112012385D01*
X152355663Y-112010097D01*
X152350438Y-112008697D01*
X152350430Y-112008694D01*
X152132634Y-111950337D01*
X152132630Y-111950336D01*
X152127408Y-111948937D01*
X152122020Y-111948465D01*
X152122017Y-111948465D01*
X151897395Y-111928813D01*
X151892000Y-111928341D01*
X151886605Y-111928813D01*
X151661982Y-111948465D01*
X151661977Y-111948465D01*
X151656592Y-111948937D01*
X151651371Y-111950335D01*
X151651365Y-111950337D01*
X151433569Y-112008694D01*
X151433557Y-112008698D01*
X151428337Y-112010097D01*
X151423432Y-112012383D01*
X151423427Y-112012386D01*
X151219081Y-112107675D01*
X151219077Y-112107677D01*
X151214171Y-112109965D01*
X151209738Y-112113068D01*
X151209731Y-112113073D01*
X151025034Y-112242399D01*
X151025029Y-112242402D01*
X151020599Y-112245505D01*
X151016775Y-112249328D01*
X151016769Y-112249334D01*
X150857334Y-112408769D01*
X150857328Y-112408775D01*
X150853505Y-112412599D01*
X150850402Y-112417029D01*
X150850399Y-112417034D01*
X150721073Y-112601731D01*
X150721068Y-112601738D01*
X150717965Y-112606171D01*
X150715677Y-112611077D01*
X150715675Y-112611081D01*
X150620386Y-112815427D01*
X150620383Y-112815432D01*
X150618097Y-112820337D01*
X150616698Y-112825557D01*
X150616694Y-112825569D01*
X150558337Y-113043365D01*
X150558335Y-113043371D01*
X150556937Y-113048592D01*
X150536341Y-113284000D01*
X150556937Y-113519408D01*
X150558336Y-113524630D01*
X150558337Y-113524634D01*
X150616694Y-113742430D01*
X150616697Y-113742438D01*
X150618097Y-113747663D01*
X150620385Y-113752570D01*
X150620386Y-113752572D01*
X150715678Y-113956927D01*
X150715681Y-113956933D01*
X150717965Y-113961830D01*
X150721064Y-113966257D01*
X150721066Y-113966259D01*
X150850399Y-114150966D01*
X150850402Y-114150970D01*
X150853505Y-114155401D01*
X151020599Y-114322495D01*
X151025032Y-114325599D01*
X151025038Y-114325604D01*
X151206158Y-114452425D01*
X151245024Y-114496743D01*
X151259035Y-114554000D01*
X151245024Y-114611257D01*
X151206159Y-114655575D01*
X151025041Y-114782395D01*
X151020599Y-114785505D01*
X151016775Y-114789328D01*
X151016769Y-114789334D01*
X150857334Y-114948769D01*
X150857328Y-114948775D01*
X150853505Y-114952599D01*
X150850402Y-114957029D01*
X150850399Y-114957034D01*
X150721073Y-115141731D01*
X150721068Y-115141738D01*
X150717965Y-115146171D01*
X150715677Y-115151077D01*
X150715675Y-115151081D01*
X150620386Y-115355427D01*
X150620383Y-115355432D01*
X150618097Y-115360337D01*
X150616698Y-115365557D01*
X150616694Y-115365569D01*
X150558337Y-115583365D01*
X150558335Y-115583371D01*
X150556937Y-115588592D01*
X150536341Y-115824000D01*
X126577659Y-115824000D01*
X126557063Y-115588592D01*
X126495903Y-115360337D01*
X126396035Y-115146171D01*
X126260495Y-114952599D01*
X126093401Y-114785505D01*
X126088968Y-114782401D01*
X126088961Y-114782395D01*
X125907842Y-114655575D01*
X125868976Y-114611257D01*
X125854965Y-114554000D01*
X125868976Y-114496743D01*
X125907842Y-114452425D01*
X126088961Y-114325604D01*
X126088961Y-114325603D01*
X126093401Y-114322495D01*
X126260495Y-114155401D01*
X126396035Y-113961830D01*
X126495903Y-113747663D01*
X126557063Y-113519408D01*
X126577659Y-113284000D01*
X126557063Y-113048592D01*
X126495903Y-112820337D01*
X126396035Y-112606171D01*
X126260495Y-112412599D01*
X126093401Y-112245505D01*
X126088968Y-112242401D01*
X126088961Y-112242395D01*
X125907842Y-112115575D01*
X125868976Y-112071257D01*
X125854965Y-112014000D01*
X125868976Y-111956743D01*
X125907842Y-111912425D01*
X126088961Y-111785604D01*
X126088961Y-111785603D01*
X126093401Y-111782495D01*
X126260495Y-111615401D01*
X126396035Y-111421830D01*
X126495903Y-111207663D01*
X126557063Y-110979408D01*
X126577659Y-110744000D01*
X126557063Y-110508592D01*
X126495903Y-110280337D01*
X126396035Y-110066171D01*
X126337098Y-109982000D01*
X140883954Y-109982000D01*
X140884633Y-109988460D01*
X140901806Y-110151857D01*
X140901807Y-110151864D01*
X140902486Y-110158319D01*
X140957271Y-110326931D01*
X141045916Y-110480469D01*
X141164546Y-110612221D01*
X141307977Y-110716429D01*
X141469939Y-110788540D01*
X141643355Y-110825400D01*
X141814142Y-110825400D01*
X141820645Y-110825400D01*
X141994061Y-110788540D01*
X142156023Y-110716429D01*
X142299454Y-110612221D01*
X142310704Y-110599726D01*
X142352420Y-110569420D01*
X142402854Y-110558700D01*
X145379146Y-110558700D01*
X145429580Y-110569420D01*
X145471295Y-110599726D01*
X145482546Y-110612221D01*
X145625977Y-110716429D01*
X145787939Y-110788540D01*
X145961355Y-110825400D01*
X146132142Y-110825400D01*
X146138645Y-110825400D01*
X146312061Y-110788540D01*
X146474023Y-110716429D01*
X146617454Y-110612221D01*
X146736084Y-110480469D01*
X146824729Y-110326931D01*
X146879514Y-110158319D01*
X146898046Y-109982000D01*
X146879514Y-109805681D01*
X146824729Y-109637069D01*
X146736084Y-109483531D01*
X146617454Y-109351779D01*
X146612195Y-109347958D01*
X146612194Y-109347957D01*
X146479281Y-109251391D01*
X146479280Y-109251390D01*
X146474023Y-109247571D01*
X146468085Y-109244927D01*
X146318003Y-109178105D01*
X146317998Y-109178103D01*
X146312061Y-109175460D01*
X146305705Y-109174109D01*
X146305699Y-109174107D01*
X146145008Y-109139952D01*
X146145003Y-109139951D01*
X146138645Y-109138600D01*
X145961355Y-109138600D01*
X145954997Y-109139951D01*
X145954991Y-109139952D01*
X145794300Y-109174107D01*
X145794291Y-109174109D01*
X145787939Y-109175460D01*
X145782004Y-109178102D01*
X145781996Y-109178105D01*
X145631914Y-109244927D01*
X145631909Y-109244929D01*
X145625977Y-109247571D01*
X145620723Y-109251387D01*
X145620718Y-109251391D01*
X145487804Y-109347958D01*
X145487799Y-109347962D01*
X145482546Y-109351779D01*
X145478202Y-109356603D01*
X145478198Y-109356607D01*
X145471295Y-109364274D01*
X145429580Y-109394580D01*
X145379146Y-109405300D01*
X142402854Y-109405300D01*
X142352420Y-109394580D01*
X142310705Y-109364274D01*
X142303801Y-109356607D01*
X142303802Y-109356607D01*
X142299454Y-109351779D01*
X142294193Y-109347957D01*
X142161281Y-109251391D01*
X142161280Y-109251390D01*
X142156023Y-109247571D01*
X142150085Y-109244927D01*
X142000003Y-109178105D01*
X141999998Y-109178103D01*
X141994061Y-109175460D01*
X141987705Y-109174109D01*
X141987699Y-109174107D01*
X141827008Y-109139952D01*
X141827003Y-109139951D01*
X141820645Y-109138600D01*
X141643355Y-109138600D01*
X141636997Y-109139951D01*
X141636991Y-109139952D01*
X141476300Y-109174107D01*
X141476291Y-109174109D01*
X141469939Y-109175460D01*
X141464004Y-109178102D01*
X141463996Y-109178105D01*
X141313914Y-109244927D01*
X141313909Y-109244929D01*
X141307977Y-109247571D01*
X141302723Y-109251387D01*
X141302718Y-109251391D01*
X141169805Y-109347957D01*
X141169798Y-109347962D01*
X141164546Y-109351779D01*
X141160201Y-109356604D01*
X141160196Y-109356609D01*
X141116355Y-109405300D01*
X141045916Y-109483531D01*
X141042671Y-109489151D01*
X141042667Y-109489157D01*
X140960519Y-109631442D01*
X140960516Y-109631447D01*
X140957271Y-109637069D01*
X140955265Y-109643241D01*
X140955263Y-109643247D01*
X140933790Y-109709336D01*
X140902486Y-109805681D01*
X140901807Y-109812133D01*
X140901806Y-109812142D01*
X140894986Y-109877034D01*
X140883954Y-109982000D01*
X126337098Y-109982000D01*
X126260495Y-109872599D01*
X126093401Y-109705505D01*
X126088968Y-109702401D01*
X126088961Y-109702395D01*
X125907842Y-109575575D01*
X125868976Y-109531257D01*
X125854965Y-109474000D01*
X125868976Y-109416743D01*
X125907842Y-109372425D01*
X126088961Y-109245604D01*
X126088961Y-109245603D01*
X126093104Y-109242703D01*
X133898217Y-109242703D01*
X133905650Y-109250814D01*
X133963077Y-109291025D01*
X133972427Y-109296423D01*
X134168768Y-109387979D01*
X134178902Y-109391667D01*
X134388162Y-109447739D01*
X134398793Y-109449613D01*
X134614605Y-109468494D01*
X134625395Y-109468494D01*
X134841206Y-109449613D01*
X134851837Y-109447739D01*
X135061097Y-109391667D01*
X135071231Y-109387979D01*
X135267575Y-109296422D01*
X135276920Y-109291026D01*
X135334348Y-109250814D01*
X135341780Y-109242703D01*
X135335867Y-109233421D01*
X134631542Y-108529095D01*
X134620000Y-108522431D01*
X134608457Y-108529095D01*
X133904128Y-109233424D01*
X133898217Y-109242703D01*
X126093104Y-109242703D01*
X126093401Y-109242495D01*
X126260495Y-109075401D01*
X126396035Y-108881830D01*
X126495903Y-108667663D01*
X126557063Y-108439408D01*
X126577659Y-108204000D01*
X126574631Y-108169395D01*
X133315506Y-108169395D01*
X133334386Y-108385206D01*
X133336260Y-108395837D01*
X133392332Y-108605097D01*
X133396020Y-108615231D01*
X133487576Y-108811572D01*
X133492974Y-108820922D01*
X133533184Y-108878348D01*
X133541295Y-108885781D01*
X133550574Y-108879870D01*
X134254903Y-108175542D01*
X134261567Y-108164000D01*
X134978431Y-108164000D01*
X134985095Y-108175542D01*
X135689421Y-108879867D01*
X135698703Y-108885780D01*
X135706814Y-108878348D01*
X135747026Y-108820920D01*
X135752422Y-108811575D01*
X135843979Y-108615231D01*
X135847667Y-108605097D01*
X135903739Y-108395837D01*
X135905613Y-108385206D01*
X135917659Y-108247518D01*
X138567000Y-108247518D01*
X138567353Y-108254114D01*
X138572573Y-108302667D01*
X138576111Y-108317641D01*
X138620547Y-108436777D01*
X138628962Y-108452189D01*
X138704498Y-108553092D01*
X138716907Y-108565501D01*
X138817810Y-108641037D01*
X138833222Y-108649452D01*
X138952358Y-108693888D01*
X138967332Y-108697426D01*
X139015885Y-108702646D01*
X139022482Y-108703000D01*
X139650674Y-108703000D01*
X139663549Y-108699549D01*
X139667000Y-108686674D01*
X139667000Y-107619326D01*
X139663549Y-107606450D01*
X139650674Y-107603000D01*
X138583326Y-107603000D01*
X138570450Y-107606450D01*
X138567000Y-107619326D01*
X138567000Y-108247518D01*
X135917659Y-108247518D01*
X135924494Y-108169395D01*
X135924494Y-108158605D01*
X135905613Y-107942793D01*
X135903739Y-107932162D01*
X135847667Y-107722902D01*
X135843979Y-107712768D01*
X135752423Y-107516427D01*
X135747025Y-107507077D01*
X135706814Y-107449650D01*
X135698703Y-107442217D01*
X135689424Y-107448128D01*
X134985095Y-108152457D01*
X134978431Y-108164000D01*
X134261567Y-108164000D01*
X134254903Y-108152457D01*
X133550574Y-107448128D01*
X133541296Y-107442217D01*
X133533183Y-107449651D01*
X133492971Y-107507081D01*
X133487577Y-107516425D01*
X133396020Y-107712768D01*
X133392332Y-107722902D01*
X133336260Y-107932162D01*
X133334386Y-107942793D01*
X133315506Y-108158605D01*
X133315506Y-108169395D01*
X126574631Y-108169395D01*
X126557063Y-107968592D01*
X126495903Y-107740337D01*
X126396035Y-107526171D01*
X126260495Y-107332599D01*
X126093401Y-107165505D01*
X126088968Y-107162401D01*
X126088961Y-107162395D01*
X125907842Y-107035575D01*
X125868976Y-106991257D01*
X125854965Y-106934000D01*
X125868976Y-106876743D01*
X125907842Y-106832425D01*
X126088961Y-106705604D01*
X126088961Y-106705603D01*
X126093401Y-106702495D01*
X126260495Y-106535401D01*
X126279277Y-106508578D01*
X133319500Y-106508578D01*
X133319501Y-106511872D01*
X133319853Y-106515150D01*
X133319854Y-106515161D01*
X133325079Y-106563768D01*
X133325080Y-106563773D01*
X133325909Y-106571483D01*
X133328619Y-106578749D01*
X133328620Y-106578753D01*
X133361594Y-106667159D01*
X133376204Y-106706331D01*
X133381518Y-106713430D01*
X133381519Y-106713431D01*
X133386463Y-106720036D01*
X133462454Y-106821546D01*
X133577669Y-106907796D01*
X133712517Y-106958091D01*
X133772127Y-106964500D01*
X133775451Y-106964499D01*
X133778768Y-106964678D01*
X133778699Y-106965954D01*
X133830046Y-106978459D01*
X133874430Y-107017331D01*
X133895825Y-107072314D01*
X133897356Y-107083943D01*
X133904128Y-107094574D01*
X134608457Y-107798903D01*
X134620000Y-107805567D01*
X134631542Y-107798903D01*
X135335870Y-107094574D01*
X135342642Y-107083943D01*
X135344174Y-107072314D01*
X135365538Y-107017376D01*
X135409856Y-106978510D01*
X135461304Y-106965920D01*
X135461238Y-106964677D01*
X135464558Y-106964499D01*
X135467872Y-106964499D01*
X135527483Y-106958091D01*
X135662331Y-106907796D01*
X135777546Y-106821546D01*
X135863796Y-106706331D01*
X135914091Y-106571483D01*
X135920500Y-106511873D01*
X135920499Y-104816128D01*
X135920163Y-104813000D01*
X138561341Y-104813000D01*
X138581937Y-105048408D01*
X138583336Y-105053630D01*
X138583337Y-105053634D01*
X138641694Y-105271430D01*
X138641697Y-105271438D01*
X138643097Y-105276663D01*
X138645385Y-105281570D01*
X138645386Y-105281572D01*
X138740678Y-105485927D01*
X138740681Y-105485933D01*
X138742965Y-105490830D01*
X138746064Y-105495257D01*
X138746066Y-105495259D01*
X138875399Y-105679966D01*
X138875402Y-105679970D01*
X138878505Y-105684401D01*
X138882336Y-105688231D01*
X138882336Y-105688232D01*
X139000818Y-105806714D01*
X139032114Y-105859460D01*
X139034303Y-105920753D01*
X139006850Y-105975597D01*
X138956471Y-106010576D01*
X138833226Y-106056544D01*
X138817810Y-106064962D01*
X138716907Y-106140498D01*
X138704498Y-106152907D01*
X138628962Y-106253810D01*
X138620547Y-106269222D01*
X138576111Y-106388358D01*
X138572573Y-106403332D01*
X138567353Y-106451885D01*
X138567000Y-106458482D01*
X138567000Y-107086674D01*
X138570450Y-107099549D01*
X138583326Y-107103000D01*
X140043000Y-107103000D01*
X140105000Y-107119613D01*
X140150387Y-107165000D01*
X140167000Y-107227000D01*
X140167000Y-108686674D01*
X140170450Y-108699549D01*
X140183326Y-108703000D01*
X140811518Y-108703000D01*
X140818114Y-108702646D01*
X140866667Y-108697426D01*
X140881641Y-108693888D01*
X141000777Y-108649452D01*
X141016189Y-108641037D01*
X141117092Y-108565501D01*
X141129501Y-108553092D01*
X141205037Y-108452189D01*
X141213452Y-108436777D01*
X141259422Y-108313529D01*
X141294401Y-108263149D01*
X141349246Y-108235696D01*
X141410539Y-108237885D01*
X141463285Y-108269180D01*
X141585599Y-108391495D01*
X141590031Y-108394598D01*
X141590033Y-108394600D01*
X141650268Y-108436777D01*
X141779170Y-108527035D01*
X141993337Y-108626903D01*
X142221592Y-108688063D01*
X142457000Y-108708659D01*
X142692408Y-108688063D01*
X142920663Y-108626903D01*
X143134830Y-108527035D01*
X143328401Y-108391495D01*
X143495495Y-108224401D01*
X143529707Y-108175542D01*
X143625425Y-108038842D01*
X143669743Y-107999976D01*
X143727000Y-107985965D01*
X143784257Y-107999976D01*
X143828575Y-108038842D01*
X143955395Y-108219961D01*
X143955401Y-108219968D01*
X143958505Y-108224401D01*
X144125599Y-108391495D01*
X144130031Y-108394598D01*
X144130033Y-108394600D01*
X144190268Y-108436777D01*
X144319170Y-108527035D01*
X144533337Y-108626903D01*
X144761592Y-108688063D01*
X144997000Y-108708659D01*
X145232408Y-108688063D01*
X145460663Y-108626903D01*
X145674830Y-108527035D01*
X145868401Y-108391495D01*
X146035495Y-108224401D01*
X146069707Y-108175542D01*
X146165425Y-108038842D01*
X146209743Y-107999976D01*
X146267000Y-107985965D01*
X146324257Y-107999976D01*
X146368575Y-108038842D01*
X146495395Y-108219961D01*
X146495401Y-108219968D01*
X146498505Y-108224401D01*
X146665599Y-108391495D01*
X146670031Y-108394598D01*
X146670033Y-108394600D01*
X146730268Y-108436777D01*
X146859170Y-108527035D01*
X147073337Y-108626903D01*
X147301592Y-108688063D01*
X147537000Y-108708659D01*
X147772408Y-108688063D01*
X148000663Y-108626903D01*
X148214830Y-108527035D01*
X148408401Y-108391495D01*
X148575495Y-108224401D01*
X148711035Y-108030830D01*
X148810903Y-107816663D01*
X148872063Y-107588408D01*
X148892659Y-107353000D01*
X148872063Y-107117592D01*
X148810903Y-106889337D01*
X148711035Y-106675171D01*
X148575495Y-106481599D01*
X148408401Y-106314505D01*
X148403968Y-106311401D01*
X148403961Y-106311395D01*
X148222842Y-106184575D01*
X148183976Y-106140257D01*
X148169965Y-106083000D01*
X148183976Y-106025743D01*
X148222842Y-105981425D01*
X148403961Y-105854604D01*
X148403961Y-105854603D01*
X148408401Y-105851495D01*
X148575495Y-105684401D01*
X148711035Y-105490830D01*
X148810903Y-105276663D01*
X148872063Y-105048408D01*
X148892659Y-104813000D01*
X148872063Y-104577592D01*
X148810903Y-104349337D01*
X148711035Y-104135171D01*
X148575495Y-103941599D01*
X148408401Y-103774505D01*
X148403970Y-103771402D01*
X148403966Y-103771399D01*
X148219259Y-103642066D01*
X148219257Y-103642064D01*
X148214830Y-103638965D01*
X148209933Y-103636681D01*
X148209927Y-103636678D01*
X148005572Y-103541386D01*
X148005570Y-103541385D01*
X148000663Y-103539097D01*
X147995438Y-103537697D01*
X147995430Y-103537694D01*
X147777634Y-103479337D01*
X147777630Y-103479336D01*
X147772408Y-103477937D01*
X147767020Y-103477465D01*
X147767017Y-103477465D01*
X147542395Y-103457813D01*
X147537000Y-103457341D01*
X147531605Y-103457813D01*
X147306982Y-103477465D01*
X147306977Y-103477465D01*
X147301592Y-103477937D01*
X147296371Y-103479335D01*
X147296365Y-103479337D01*
X147078569Y-103537694D01*
X147078557Y-103537698D01*
X147073337Y-103539097D01*
X147068432Y-103541383D01*
X147068427Y-103541386D01*
X146864081Y-103636675D01*
X146864077Y-103636677D01*
X146859171Y-103638965D01*
X146854738Y-103642068D01*
X146854731Y-103642073D01*
X146670034Y-103771399D01*
X146670029Y-103771402D01*
X146665599Y-103774505D01*
X146661775Y-103778328D01*
X146661769Y-103778334D01*
X146502334Y-103937769D01*
X146502328Y-103937775D01*
X146498505Y-103941599D01*
X146495402Y-103946029D01*
X146495399Y-103946034D01*
X146368575Y-104127159D01*
X146324257Y-104166025D01*
X146267000Y-104180036D01*
X146209743Y-104166025D01*
X146165425Y-104127159D01*
X146038600Y-103946034D01*
X146035495Y-103941599D01*
X145868401Y-103774505D01*
X145863970Y-103771402D01*
X145863966Y-103771399D01*
X145679259Y-103642066D01*
X145679257Y-103642064D01*
X145674830Y-103638965D01*
X145669933Y-103636681D01*
X145669927Y-103636678D01*
X145465572Y-103541386D01*
X145465570Y-103541385D01*
X145460663Y-103539097D01*
X145455438Y-103537697D01*
X145455430Y-103537694D01*
X145237634Y-103479337D01*
X145237630Y-103479336D01*
X145232408Y-103477937D01*
X145227020Y-103477465D01*
X145227017Y-103477465D01*
X145002395Y-103457813D01*
X144997000Y-103457341D01*
X144991605Y-103457813D01*
X144766982Y-103477465D01*
X144766977Y-103477465D01*
X144761592Y-103477937D01*
X144756371Y-103479335D01*
X144756365Y-103479337D01*
X144538569Y-103537694D01*
X144538557Y-103537698D01*
X144533337Y-103539097D01*
X144528432Y-103541383D01*
X144528427Y-103541386D01*
X144324081Y-103636675D01*
X144324077Y-103636677D01*
X144319171Y-103638965D01*
X144314738Y-103642068D01*
X144314731Y-103642073D01*
X144130034Y-103771399D01*
X144130029Y-103771402D01*
X144125599Y-103774505D01*
X144121775Y-103778328D01*
X144121769Y-103778334D01*
X143962334Y-103937769D01*
X143962328Y-103937775D01*
X143958505Y-103941599D01*
X143955402Y-103946029D01*
X143955399Y-103946034D01*
X143828575Y-104127159D01*
X143784257Y-104166025D01*
X143727000Y-104180036D01*
X143669743Y-104166025D01*
X143625425Y-104127159D01*
X143498600Y-103946034D01*
X143495495Y-103941599D01*
X143328401Y-103774505D01*
X143323970Y-103771402D01*
X143323966Y-103771399D01*
X143139259Y-103642066D01*
X143139257Y-103642064D01*
X143134830Y-103638965D01*
X143129933Y-103636681D01*
X143129927Y-103636678D01*
X142925572Y-103541386D01*
X142925570Y-103541385D01*
X142920663Y-103539097D01*
X142915438Y-103537697D01*
X142915430Y-103537694D01*
X142697634Y-103479337D01*
X142697630Y-103479336D01*
X142692408Y-103477937D01*
X142687020Y-103477465D01*
X142687017Y-103477465D01*
X142462395Y-103457813D01*
X142457000Y-103457341D01*
X142451605Y-103457813D01*
X142226982Y-103477465D01*
X142226977Y-103477465D01*
X142221592Y-103477937D01*
X142216371Y-103479335D01*
X142216365Y-103479337D01*
X141998569Y-103537694D01*
X141998557Y-103537698D01*
X141993337Y-103539097D01*
X141988432Y-103541383D01*
X141988427Y-103541386D01*
X141784081Y-103636675D01*
X141784077Y-103636677D01*
X141779171Y-103638965D01*
X141774738Y-103642068D01*
X141774731Y-103642073D01*
X141590034Y-103771399D01*
X141590029Y-103771402D01*
X141585599Y-103774505D01*
X141581775Y-103778328D01*
X141581769Y-103778334D01*
X141422334Y-103937769D01*
X141422328Y-103937775D01*
X141418505Y-103941599D01*
X141415402Y-103946029D01*
X141415399Y-103946034D01*
X141288575Y-104127159D01*
X141244257Y-104166025D01*
X141187000Y-104180036D01*
X141129743Y-104166025D01*
X141085425Y-104127159D01*
X140958600Y-103946034D01*
X140955495Y-103941599D01*
X140788401Y-103774505D01*
X140783970Y-103771402D01*
X140783966Y-103771399D01*
X140599259Y-103642066D01*
X140599257Y-103642064D01*
X140594830Y-103638965D01*
X140589933Y-103636681D01*
X140589927Y-103636678D01*
X140385572Y-103541386D01*
X140385570Y-103541385D01*
X140380663Y-103539097D01*
X140375438Y-103537697D01*
X140375430Y-103537694D01*
X140157634Y-103479337D01*
X140157630Y-103479336D01*
X140152408Y-103477937D01*
X140147020Y-103477465D01*
X140147017Y-103477465D01*
X139922395Y-103457813D01*
X139917000Y-103457341D01*
X139911605Y-103457813D01*
X139686982Y-103477465D01*
X139686977Y-103477465D01*
X139681592Y-103477937D01*
X139676371Y-103479335D01*
X139676365Y-103479337D01*
X139458569Y-103537694D01*
X139458557Y-103537698D01*
X139453337Y-103539097D01*
X139448432Y-103541383D01*
X139448427Y-103541386D01*
X139244081Y-103636675D01*
X139244077Y-103636677D01*
X139239171Y-103638965D01*
X139234738Y-103642068D01*
X139234731Y-103642073D01*
X139050034Y-103771399D01*
X139050029Y-103771402D01*
X139045599Y-103774505D01*
X139041775Y-103778328D01*
X139041769Y-103778334D01*
X138882334Y-103937769D01*
X138882328Y-103937775D01*
X138878505Y-103941599D01*
X138875402Y-103946029D01*
X138875399Y-103946034D01*
X138746073Y-104130731D01*
X138746068Y-104130738D01*
X138742965Y-104135171D01*
X138740677Y-104140077D01*
X138740675Y-104140081D01*
X138645386Y-104344427D01*
X138645383Y-104344432D01*
X138643097Y-104349337D01*
X138641698Y-104354557D01*
X138641694Y-104354569D01*
X138583337Y-104572365D01*
X138583335Y-104572371D01*
X138581937Y-104577592D01*
X138581465Y-104582977D01*
X138581465Y-104582982D01*
X138566919Y-104749246D01*
X138561341Y-104813000D01*
X135920163Y-104813000D01*
X135914091Y-104756517D01*
X135863796Y-104621669D01*
X135777546Y-104506454D01*
X135703812Y-104451257D01*
X135669431Y-104425519D01*
X135669430Y-104425518D01*
X135662331Y-104420204D01*
X135527483Y-104369909D01*
X135519770Y-104369079D01*
X135519767Y-104369079D01*
X135471180Y-104363855D01*
X135471169Y-104363854D01*
X135467873Y-104363500D01*
X135464550Y-104363500D01*
X133775439Y-104363500D01*
X133775420Y-104363500D01*
X133772128Y-104363501D01*
X133768850Y-104363853D01*
X133768838Y-104363854D01*
X133720231Y-104369079D01*
X133720225Y-104369080D01*
X133712517Y-104369909D01*
X133705252Y-104372618D01*
X133705246Y-104372620D01*
X133585980Y-104417104D01*
X133585978Y-104417104D01*
X133577669Y-104420204D01*
X133570572Y-104425516D01*
X133570568Y-104425519D01*
X133469550Y-104501141D01*
X133469546Y-104501144D01*
X133462454Y-104506454D01*
X133457144Y-104513546D01*
X133457141Y-104513550D01*
X133381519Y-104614568D01*
X133381516Y-104614572D01*
X133376204Y-104621669D01*
X133373104Y-104629978D01*
X133373104Y-104629980D01*
X133328620Y-104749247D01*
X133328619Y-104749250D01*
X133325909Y-104756517D01*
X133325079Y-104764227D01*
X133325079Y-104764232D01*
X133319855Y-104812819D01*
X133319854Y-104812831D01*
X133319500Y-104816127D01*
X133319500Y-104819448D01*
X133319500Y-104819449D01*
X133319500Y-106508560D01*
X133319500Y-106508578D01*
X126279277Y-106508578D01*
X126396035Y-106341830D01*
X126495903Y-106127663D01*
X126557063Y-105899408D01*
X126577659Y-105664000D01*
X126557063Y-105428592D01*
X126495903Y-105200337D01*
X126396035Y-104986171D01*
X126260495Y-104792599D01*
X126093401Y-104625505D01*
X126088968Y-104622401D01*
X126088961Y-104622395D01*
X125907842Y-104495575D01*
X125868976Y-104451257D01*
X125854965Y-104394000D01*
X125868976Y-104336743D01*
X125907842Y-104292425D01*
X126088961Y-104165604D01*
X126088961Y-104165603D01*
X126093401Y-104162495D01*
X126260495Y-103995401D01*
X126396035Y-103801830D01*
X126495903Y-103587663D01*
X126535280Y-103440703D01*
X130676217Y-103440703D01*
X130683650Y-103448814D01*
X130741077Y-103489025D01*
X130750427Y-103494423D01*
X130946768Y-103585979D01*
X130956902Y-103589667D01*
X131166162Y-103645739D01*
X131176793Y-103647613D01*
X131392605Y-103666494D01*
X131403395Y-103666494D01*
X131619206Y-103647613D01*
X131629837Y-103645739D01*
X131839097Y-103589667D01*
X131849231Y-103585979D01*
X132045575Y-103494422D01*
X132054920Y-103489026D01*
X132112348Y-103448814D01*
X132119780Y-103440703D01*
X132113867Y-103431421D01*
X131409542Y-102727095D01*
X131398000Y-102720431D01*
X131386457Y-102727095D01*
X130682128Y-103431424D01*
X130676217Y-103440703D01*
X126535280Y-103440703D01*
X126557063Y-103359408D01*
X126577659Y-103124000D01*
X126557063Y-102888592D01*
X126495903Y-102660337D01*
X126396035Y-102446171D01*
X126340876Y-102367395D01*
X130093506Y-102367395D01*
X130112386Y-102583206D01*
X130114260Y-102593837D01*
X130170332Y-102803097D01*
X130174020Y-102813231D01*
X130265576Y-103009572D01*
X130270974Y-103018922D01*
X130311184Y-103076348D01*
X130319295Y-103083781D01*
X130328574Y-103077870D01*
X131032903Y-102373542D01*
X131039567Y-102362000D01*
X131756431Y-102362000D01*
X131763095Y-102373542D01*
X132467421Y-103077867D01*
X132476703Y-103083780D01*
X132484814Y-103076348D01*
X132525026Y-103018920D01*
X132530422Y-103009575D01*
X132621979Y-102813231D01*
X132625667Y-102803097D01*
X132681739Y-102593837D01*
X132683613Y-102583206D01*
X132702494Y-102367395D01*
X132702494Y-102362000D01*
X135092532Y-102362000D01*
X135093004Y-102367395D01*
X135100325Y-102451081D01*
X135112365Y-102588692D01*
X135113762Y-102593907D01*
X135113764Y-102593916D01*
X135169858Y-102803263D01*
X135169861Y-102803271D01*
X135171261Y-102808496D01*
X135267432Y-103014734D01*
X135397953Y-103201139D01*
X135558861Y-103362047D01*
X135745266Y-103492568D01*
X135951504Y-103588739D01*
X135956734Y-103590140D01*
X135956736Y-103590141D01*
X136130416Y-103636678D01*
X136171308Y-103647635D01*
X136398000Y-103667468D01*
X136624692Y-103647635D01*
X136844496Y-103588739D01*
X137050734Y-103492568D01*
X137237139Y-103362047D01*
X137398047Y-103201139D01*
X137528568Y-103014734D01*
X137624739Y-102808496D01*
X137683635Y-102588692D01*
X137703468Y-102362000D01*
X137683635Y-102135308D01*
X137633973Y-101949965D01*
X137626141Y-101920736D01*
X137626140Y-101920734D01*
X137624739Y-101915504D01*
X137528568Y-101709266D01*
X137398047Y-101522861D01*
X137237139Y-101361953D01*
X137113219Y-101275184D01*
X137055173Y-101234540D01*
X137055171Y-101234539D01*
X137050734Y-101231432D01*
X136844496Y-101135261D01*
X136839271Y-101133861D01*
X136839263Y-101133858D01*
X136629916Y-101077764D01*
X136629907Y-101077762D01*
X136624692Y-101076365D01*
X136619304Y-101075893D01*
X136619301Y-101075893D01*
X136403395Y-101057004D01*
X136398000Y-101056532D01*
X136392605Y-101057004D01*
X136176698Y-101075893D01*
X136176693Y-101075893D01*
X136171308Y-101076365D01*
X136166094Y-101077762D01*
X136166083Y-101077764D01*
X135956736Y-101133858D01*
X135956724Y-101133862D01*
X135951504Y-101135261D01*
X135946599Y-101137547D01*
X135946594Y-101137550D01*
X135750176Y-101229142D01*
X135750172Y-101229144D01*
X135745266Y-101231432D01*
X135740833Y-101234535D01*
X135740826Y-101234540D01*
X135563296Y-101358847D01*
X135563291Y-101358850D01*
X135558861Y-101361953D01*
X135555037Y-101365776D01*
X135555031Y-101365782D01*
X135401782Y-101519031D01*
X135401776Y-101519037D01*
X135397953Y-101522861D01*
X135394850Y-101527291D01*
X135394847Y-101527296D01*
X135270540Y-101704826D01*
X135270535Y-101704833D01*
X135267432Y-101709266D01*
X135265144Y-101714172D01*
X135265142Y-101714176D01*
X135173550Y-101910594D01*
X135173547Y-101910599D01*
X135171261Y-101915504D01*
X135169862Y-101920724D01*
X135169858Y-101920736D01*
X135113764Y-102130083D01*
X135113762Y-102130094D01*
X135112365Y-102135308D01*
X135092532Y-102362000D01*
X132702494Y-102362000D01*
X132702494Y-102356605D01*
X132683613Y-102140793D01*
X132681739Y-102130162D01*
X132625667Y-101920902D01*
X132621979Y-101910768D01*
X132530423Y-101714427D01*
X132525025Y-101705077D01*
X132484814Y-101647650D01*
X132476703Y-101640217D01*
X132467424Y-101646128D01*
X131763095Y-102350457D01*
X131756431Y-102362000D01*
X131039567Y-102362000D01*
X131032903Y-102350457D01*
X130328574Y-101646128D01*
X130319296Y-101640217D01*
X130311183Y-101647651D01*
X130270971Y-101705081D01*
X130265577Y-101714425D01*
X130174020Y-101910768D01*
X130170332Y-101920902D01*
X130114260Y-102130162D01*
X130112386Y-102140793D01*
X130093506Y-102356605D01*
X130093506Y-102367395D01*
X126340876Y-102367395D01*
X126260495Y-102252599D01*
X126138181Y-102130285D01*
X126106885Y-102077539D01*
X126104696Y-102016246D01*
X126132149Y-101961401D01*
X126182529Y-101926422D01*
X126305777Y-101880452D01*
X126321189Y-101872037D01*
X126422092Y-101796501D01*
X126434501Y-101784092D01*
X126510037Y-101683189D01*
X126518452Y-101667777D01*
X126562888Y-101548641D01*
X126566426Y-101533667D01*
X126571646Y-101485114D01*
X126572000Y-101478518D01*
X126572000Y-101283296D01*
X130676217Y-101283296D01*
X130682128Y-101292574D01*
X131386457Y-101996903D01*
X131398000Y-102003567D01*
X131409542Y-101996903D01*
X132113870Y-101292574D01*
X132119781Y-101283295D01*
X132112348Y-101275184D01*
X132054922Y-101234974D01*
X132045572Y-101229576D01*
X131849231Y-101138020D01*
X131839097Y-101134332D01*
X131629837Y-101078260D01*
X131619206Y-101076386D01*
X131403395Y-101057506D01*
X131392605Y-101057506D01*
X131176793Y-101076386D01*
X131166162Y-101078260D01*
X130956902Y-101134332D01*
X130946768Y-101138020D01*
X130750425Y-101229577D01*
X130741081Y-101234971D01*
X130683651Y-101275183D01*
X130676217Y-101283296D01*
X126572000Y-101283296D01*
X126572000Y-100850326D01*
X126568549Y-100837450D01*
X126555674Y-100834000D01*
X123888326Y-100834000D01*
X123875450Y-100837450D01*
X123872000Y-100850326D01*
X123872000Y-101478518D01*
X123872353Y-101485114D01*
X123877573Y-101533667D01*
X123881111Y-101548641D01*
X123925547Y-101667777D01*
X123933962Y-101683189D01*
X124009498Y-101784092D01*
X124021907Y-101796501D01*
X124122810Y-101872037D01*
X124138220Y-101880451D01*
X124261471Y-101926422D01*
X124311850Y-101961401D01*
X124339303Y-102016246D01*
X124337114Y-102077538D01*
X124305818Y-102130285D01*
X124183505Y-102252599D01*
X124180402Y-102257029D01*
X124180399Y-102257034D01*
X124051073Y-102441731D01*
X124051068Y-102441738D01*
X124047965Y-102446171D01*
X124045677Y-102451077D01*
X124045675Y-102451081D01*
X123950386Y-102655427D01*
X123950383Y-102655432D01*
X123948097Y-102660337D01*
X123946698Y-102665557D01*
X123946694Y-102665569D01*
X123888337Y-102883365D01*
X123888335Y-102883371D01*
X123886937Y-102888592D01*
X123886465Y-102893977D01*
X123886465Y-102893982D01*
X123875534Y-103018922D01*
X123866341Y-103124000D01*
X123886937Y-103359408D01*
X123888336Y-103364630D01*
X123888337Y-103364634D01*
X123946694Y-103582430D01*
X123946697Y-103582438D01*
X123948097Y-103587663D01*
X123950385Y-103592570D01*
X123950386Y-103592572D01*
X124045678Y-103796927D01*
X124045681Y-103796933D01*
X124047965Y-103801830D01*
X124051064Y-103806257D01*
X124051066Y-103806259D01*
X124180399Y-103990966D01*
X124180402Y-103990970D01*
X124183505Y-103995401D01*
X124350599Y-104162495D01*
X124355032Y-104165599D01*
X124355038Y-104165604D01*
X124536158Y-104292425D01*
X124575024Y-104336743D01*
X124589035Y-104394000D01*
X124575024Y-104451257D01*
X124536159Y-104495575D01*
X124355041Y-104622395D01*
X124350599Y-104625505D01*
X124346775Y-104629328D01*
X124346769Y-104629334D01*
X124187334Y-104788769D01*
X124187328Y-104788775D01*
X124183505Y-104792599D01*
X124180402Y-104797029D01*
X124180399Y-104797034D01*
X124051073Y-104981731D01*
X124051068Y-104981738D01*
X124047965Y-104986171D01*
X124045677Y-104991077D01*
X124045675Y-104991081D01*
X123950386Y-105195427D01*
X123950383Y-105195432D01*
X123948097Y-105200337D01*
X123946698Y-105205557D01*
X123946694Y-105205569D01*
X123888337Y-105423365D01*
X123888335Y-105423371D01*
X123886937Y-105428592D01*
X123886465Y-105433977D01*
X123886465Y-105433982D01*
X123866813Y-105658605D01*
X123866341Y-105664000D01*
X123886937Y-105899408D01*
X123888336Y-105904630D01*
X123888337Y-105904634D01*
X123946694Y-106122430D01*
X123946697Y-106122438D01*
X123948097Y-106127663D01*
X123950385Y-106132570D01*
X123950386Y-106132572D01*
X124045678Y-106336927D01*
X124045681Y-106336933D01*
X124047965Y-106341830D01*
X124051064Y-106346257D01*
X124051066Y-106346259D01*
X124180399Y-106530966D01*
X124180402Y-106530970D01*
X124183505Y-106535401D01*
X124350599Y-106702495D01*
X124355032Y-106705599D01*
X124355038Y-106705604D01*
X124536158Y-106832425D01*
X124575024Y-106876743D01*
X124589035Y-106934000D01*
X124575024Y-106991257D01*
X124536159Y-107035575D01*
X124355041Y-107162395D01*
X124350599Y-107165505D01*
X124346775Y-107169328D01*
X124346769Y-107169334D01*
X124187334Y-107328769D01*
X124187328Y-107328775D01*
X124183505Y-107332599D01*
X124180402Y-107337029D01*
X124180399Y-107337034D01*
X124051073Y-107521731D01*
X124051068Y-107521738D01*
X124047965Y-107526171D01*
X124045677Y-107531077D01*
X124045675Y-107531081D01*
X123950386Y-107735427D01*
X123950383Y-107735432D01*
X123948097Y-107740337D01*
X123946698Y-107745557D01*
X123946694Y-107745569D01*
X123888337Y-107963365D01*
X123888335Y-107963371D01*
X123886937Y-107968592D01*
X123886465Y-107973977D01*
X123886465Y-107973982D01*
X123870313Y-108158605D01*
X123866341Y-108204000D01*
X123866813Y-108209395D01*
X123883016Y-108394600D01*
X123886937Y-108439408D01*
X123888336Y-108444630D01*
X123888337Y-108444634D01*
X123946694Y-108662430D01*
X123946697Y-108662438D01*
X123948097Y-108667663D01*
X123950385Y-108672570D01*
X123950386Y-108672572D01*
X124045678Y-108876927D01*
X124045681Y-108876933D01*
X124047965Y-108881830D01*
X124051064Y-108886257D01*
X124051066Y-108886259D01*
X124180399Y-109070966D01*
X124180402Y-109070970D01*
X124183505Y-109075401D01*
X124350599Y-109242495D01*
X124355032Y-109245599D01*
X124355038Y-109245604D01*
X124536158Y-109372425D01*
X124575024Y-109416743D01*
X124589035Y-109474000D01*
X124575024Y-109531257D01*
X124536159Y-109575575D01*
X124355041Y-109702395D01*
X124350599Y-109705505D01*
X124346775Y-109709328D01*
X124346769Y-109709334D01*
X124187334Y-109868769D01*
X124187328Y-109868775D01*
X124183505Y-109872599D01*
X124180402Y-109877029D01*
X124180399Y-109877034D01*
X124051073Y-110061731D01*
X124051068Y-110061738D01*
X124047965Y-110066171D01*
X124045677Y-110071077D01*
X124045675Y-110071081D01*
X123950386Y-110275427D01*
X123950383Y-110275432D01*
X123948097Y-110280337D01*
X123946698Y-110285557D01*
X123946694Y-110285569D01*
X123888337Y-110503365D01*
X123888335Y-110503371D01*
X123886937Y-110508592D01*
X123886465Y-110513977D01*
X123886465Y-110513982D01*
X123868753Y-110716429D01*
X123866341Y-110744000D01*
X123886937Y-110979408D01*
X123888336Y-110984630D01*
X123888337Y-110984634D01*
X123946694Y-111202430D01*
X123946697Y-111202438D01*
X123948097Y-111207663D01*
X123950385Y-111212570D01*
X123950386Y-111212572D01*
X124045678Y-111416927D01*
X124045681Y-111416933D01*
X124047965Y-111421830D01*
X124051064Y-111426257D01*
X124051066Y-111426259D01*
X124180399Y-111610966D01*
X124180402Y-111610970D01*
X124183505Y-111615401D01*
X124350599Y-111782495D01*
X124355032Y-111785599D01*
X124355038Y-111785604D01*
X124536158Y-111912425D01*
X124575024Y-111956743D01*
X124589035Y-112014000D01*
X124575024Y-112071257D01*
X124536159Y-112115575D01*
X124355041Y-112242395D01*
X124350599Y-112245505D01*
X124346775Y-112249328D01*
X124346769Y-112249334D01*
X124187334Y-112408769D01*
X124187328Y-112408775D01*
X124183505Y-112412599D01*
X124180402Y-112417029D01*
X124180399Y-112417034D01*
X124051073Y-112601731D01*
X124051068Y-112601738D01*
X124047965Y-112606171D01*
X124045677Y-112611077D01*
X124045675Y-112611081D01*
X123950386Y-112815427D01*
X123950383Y-112815432D01*
X123948097Y-112820337D01*
X123946698Y-112825557D01*
X123946694Y-112825569D01*
X123888337Y-113043365D01*
X123888335Y-113043371D01*
X123886937Y-113048592D01*
X123866341Y-113284000D01*
X123886937Y-113519408D01*
X123888336Y-113524630D01*
X123888337Y-113524634D01*
X123946694Y-113742430D01*
X123946697Y-113742438D01*
X123948097Y-113747663D01*
X123950385Y-113752570D01*
X123950386Y-113752572D01*
X124045678Y-113956927D01*
X124045681Y-113956933D01*
X124047965Y-113961830D01*
X124051064Y-113966257D01*
X124051066Y-113966259D01*
X124180399Y-114150966D01*
X124180402Y-114150970D01*
X124183505Y-114155401D01*
X124350599Y-114322495D01*
X124355032Y-114325599D01*
X124355038Y-114325604D01*
X124536158Y-114452425D01*
X124575024Y-114496743D01*
X124589035Y-114554000D01*
X124575024Y-114611257D01*
X124536159Y-114655575D01*
X124355041Y-114782395D01*
X124350599Y-114785505D01*
X124346775Y-114789328D01*
X124346769Y-114789334D01*
X124187334Y-114948769D01*
X124187328Y-114948775D01*
X124183505Y-114952599D01*
X124180402Y-114957029D01*
X124180399Y-114957034D01*
X124051073Y-115141731D01*
X124051068Y-115141738D01*
X124047965Y-115146171D01*
X124045677Y-115151077D01*
X124045675Y-115151081D01*
X123950386Y-115355427D01*
X123950383Y-115355432D01*
X123948097Y-115360337D01*
X123946698Y-115365557D01*
X123946694Y-115365569D01*
X123888337Y-115583365D01*
X123888335Y-115583371D01*
X123886937Y-115588592D01*
X123866341Y-115824000D01*
X123886937Y-116059408D01*
X123888336Y-116064630D01*
X123888337Y-116064634D01*
X123946694Y-116282430D01*
X123946697Y-116282438D01*
X123948097Y-116287663D01*
X123950385Y-116292570D01*
X123950386Y-116292572D01*
X124045678Y-116496927D01*
X124045681Y-116496933D01*
X124047965Y-116501830D01*
X124051064Y-116506257D01*
X124051066Y-116506259D01*
X124180399Y-116690966D01*
X124180402Y-116690970D01*
X124183505Y-116695401D01*
X124350599Y-116862495D01*
X124355032Y-116865599D01*
X124355038Y-116865604D01*
X124536158Y-116992425D01*
X124575024Y-117036743D01*
X124589035Y-117094000D01*
X124575024Y-117151257D01*
X124536159Y-117195575D01*
X124415619Y-117279978D01*
X124350599Y-117325505D01*
X124346775Y-117329328D01*
X124346769Y-117329334D01*
X124187334Y-117488769D01*
X124187328Y-117488775D01*
X124183505Y-117492599D01*
X124180402Y-117497029D01*
X124180399Y-117497034D01*
X124051073Y-117681731D01*
X124051068Y-117681738D01*
X124047965Y-117686171D01*
X124045677Y-117691077D01*
X124045675Y-117691081D01*
X123950386Y-117895427D01*
X123950383Y-117895432D01*
X123948097Y-117900337D01*
X123946698Y-117905557D01*
X123946694Y-117905569D01*
X123888337Y-118123365D01*
X123888335Y-118123371D01*
X123886937Y-118128592D01*
X123866341Y-118364000D01*
X123190500Y-118364000D01*
X123190500Y-100317674D01*
X123872000Y-100317674D01*
X123875450Y-100330549D01*
X123888326Y-100334000D01*
X124955674Y-100334000D01*
X124968549Y-100330549D01*
X124972000Y-100317674D01*
X125472000Y-100317674D01*
X125475450Y-100330549D01*
X125488326Y-100334000D01*
X126555674Y-100334000D01*
X126568549Y-100330549D01*
X126572000Y-100317674D01*
X126572000Y-99689482D01*
X126571646Y-99682885D01*
X126566426Y-99634332D01*
X126562888Y-99619358D01*
X126518452Y-99500222D01*
X126510037Y-99484810D01*
X126434501Y-99383907D01*
X126422092Y-99371498D01*
X126321189Y-99295962D01*
X126305777Y-99287547D01*
X126186641Y-99243111D01*
X126171667Y-99239573D01*
X126123114Y-99234353D01*
X126116518Y-99234000D01*
X125488326Y-99234000D01*
X125475450Y-99237450D01*
X125472000Y-99250326D01*
X125472000Y-100317674D01*
X124972000Y-100317674D01*
X124972000Y-99250326D01*
X124968549Y-99237450D01*
X124955674Y-99234000D01*
X124327482Y-99234000D01*
X124320885Y-99234353D01*
X124272332Y-99239573D01*
X124257358Y-99243111D01*
X124138222Y-99287547D01*
X124122810Y-99295962D01*
X124021907Y-99371498D01*
X124009498Y-99383907D01*
X123933962Y-99484810D01*
X123925547Y-99500222D01*
X123881111Y-99619358D01*
X123877573Y-99634332D01*
X123872353Y-99682885D01*
X123872000Y-99689482D01*
X123872000Y-100317674D01*
X123190500Y-100317674D01*
X123190500Y-98480578D01*
X131690500Y-98480578D01*
X131690501Y-98483872D01*
X131690853Y-98487150D01*
X131690854Y-98487161D01*
X131696079Y-98535768D01*
X131696080Y-98535773D01*
X131696909Y-98543483D01*
X131699619Y-98550749D01*
X131699620Y-98550753D01*
X131733217Y-98640831D01*
X131747204Y-98678331D01*
X131833454Y-98793546D01*
X131948669Y-98879796D01*
X132083517Y-98930091D01*
X132143127Y-98936500D01*
X134038872Y-98936499D01*
X134098483Y-98930091D01*
X134233331Y-98879796D01*
X134348546Y-98793546D01*
X134434796Y-98678331D01*
X134463454Y-98601493D01*
X134499404Y-98550280D01*
X134555785Y-98523141D01*
X134618239Y-98526988D01*
X134670863Y-98560840D01*
X134675739Y-98566136D01*
X134679216Y-98569913D01*
X134862374Y-98712470D01*
X135066497Y-98822936D01*
X135286019Y-98898298D01*
X135514951Y-98936500D01*
X135741916Y-98936500D01*
X135747049Y-98936500D01*
X135975981Y-98898298D01*
X136195503Y-98822936D01*
X136399626Y-98712470D01*
X136582784Y-98569913D01*
X136739979Y-98399153D01*
X136866924Y-98204849D01*
X136960157Y-97992300D01*
X137017134Y-97767305D01*
X137036300Y-97536000D01*
X137017134Y-97304695D01*
X136960157Y-97079700D01*
X136866924Y-96867151D01*
X136739979Y-96672847D01*
X136582784Y-96502087D01*
X136399626Y-96359530D01*
X136345497Y-96330237D01*
X136200007Y-96251501D01*
X136200002Y-96251499D01*
X136195503Y-96249064D01*
X136190657Y-96247400D01*
X136190654Y-96247399D01*
X135980834Y-96175368D01*
X135980833Y-96175367D01*
X135975981Y-96173702D01*
X135970931Y-96172859D01*
X135970922Y-96172857D01*
X135752111Y-96136344D01*
X135752102Y-96136343D01*
X135747049Y-96135500D01*
X135514951Y-96135500D01*
X135509898Y-96136343D01*
X135509888Y-96136344D01*
X135291077Y-96172857D01*
X135291065Y-96172859D01*
X135286019Y-96173702D01*
X135281169Y-96175366D01*
X135281165Y-96175368D01*
X135071345Y-96247399D01*
X135071337Y-96247402D01*
X135066497Y-96249064D01*
X135062001Y-96251496D01*
X135061992Y-96251501D01*
X134866882Y-96357090D01*
X134866878Y-96357092D01*
X134862374Y-96359530D01*
X134858334Y-96362674D01*
X134858327Y-96362679D01*
X134683263Y-96498936D01*
X134683255Y-96498943D01*
X134679216Y-96502087D01*
X134675751Y-96505850D01*
X134675740Y-96505861D01*
X134670859Y-96511164D01*
X134618234Y-96545013D01*
X134555782Y-96548857D01*
X134499403Y-96521718D01*
X134463454Y-96470506D01*
X134434796Y-96393669D01*
X134348546Y-96278454D01*
X134312541Y-96251501D01*
X134240431Y-96197519D01*
X134240430Y-96197518D01*
X134233331Y-96192204D01*
X134098483Y-96141909D01*
X134090770Y-96141079D01*
X134090767Y-96141079D01*
X134042180Y-96135855D01*
X134042169Y-96135854D01*
X134038873Y-96135500D01*
X134035550Y-96135500D01*
X132146439Y-96135500D01*
X132146420Y-96135500D01*
X132143128Y-96135501D01*
X132139850Y-96135853D01*
X132139838Y-96135854D01*
X132091231Y-96141079D01*
X132091225Y-96141080D01*
X132083517Y-96141909D01*
X132076252Y-96144618D01*
X132076246Y-96144620D01*
X131956980Y-96189104D01*
X131956978Y-96189104D01*
X131948669Y-96192204D01*
X131941572Y-96197516D01*
X131941568Y-96197519D01*
X131840550Y-96273141D01*
X131840546Y-96273144D01*
X131833454Y-96278454D01*
X131828144Y-96285546D01*
X131828141Y-96285550D01*
X131752519Y-96386568D01*
X131752516Y-96386572D01*
X131747204Y-96393669D01*
X131744104Y-96401978D01*
X131744104Y-96401980D01*
X131699620Y-96521247D01*
X131699619Y-96521250D01*
X131696909Y-96528517D01*
X131696079Y-96536227D01*
X131696079Y-96536232D01*
X131690855Y-96584819D01*
X131690854Y-96584831D01*
X131690500Y-96588127D01*
X131690500Y-96591448D01*
X131690500Y-96591449D01*
X131690500Y-98480560D01*
X131690500Y-98480578D01*
X123190500Y-98480578D01*
X123190500Y-93470551D01*
X123946452Y-93470551D01*
X123946820Y-93481780D01*
X123994330Y-93659092D01*
X123998022Y-93669234D01*
X124089579Y-93865580D01*
X124094967Y-93874912D01*
X124219232Y-94052381D01*
X124226169Y-94060647D01*
X124379352Y-94213830D01*
X124387618Y-94220767D01*
X124565087Y-94345032D01*
X124574419Y-94350420D01*
X124770765Y-94441977D01*
X124780907Y-94445669D01*
X124958219Y-94493179D01*
X124969448Y-94493547D01*
X124972000Y-94482605D01*
X125472000Y-94482605D01*
X125474551Y-94493547D01*
X125485780Y-94493179D01*
X125663092Y-94445669D01*
X125673234Y-94441977D01*
X125869580Y-94350420D01*
X125878912Y-94345032D01*
X126056381Y-94220767D01*
X126064647Y-94213830D01*
X126217830Y-94060647D01*
X126224767Y-94052381D01*
X126349032Y-93874912D01*
X126354420Y-93865580D01*
X126445977Y-93669234D01*
X126449669Y-93659092D01*
X126497179Y-93481780D01*
X126497547Y-93470551D01*
X126486605Y-93468000D01*
X125488326Y-93468000D01*
X125475450Y-93471450D01*
X125472000Y-93484326D01*
X125472000Y-94482605D01*
X124972000Y-94482605D01*
X124972000Y-93484326D01*
X124968549Y-93471450D01*
X124955674Y-93468000D01*
X123957395Y-93468000D01*
X123946452Y-93470551D01*
X123190500Y-93470551D01*
X123190500Y-93218000D01*
X134076532Y-93218000D01*
X134096365Y-93444692D01*
X134097762Y-93449907D01*
X134097764Y-93449916D01*
X134153858Y-93659263D01*
X134153861Y-93659271D01*
X134155261Y-93664496D01*
X134251432Y-93870734D01*
X134381953Y-94057139D01*
X134542861Y-94218047D01*
X134729266Y-94348568D01*
X134935504Y-94444739D01*
X134940734Y-94446140D01*
X134940736Y-94446141D01*
X135116285Y-94493179D01*
X135155308Y-94503635D01*
X135382000Y-94523468D01*
X135608692Y-94503635D01*
X135828496Y-94444739D01*
X136034734Y-94348568D01*
X136221139Y-94218047D01*
X136382047Y-94057139D01*
X136512568Y-93870734D01*
X136608739Y-93664496D01*
X136667635Y-93444692D01*
X136687468Y-93218000D01*
X136667635Y-92991308D01*
X136608739Y-92771504D01*
X136512568Y-92565266D01*
X136382047Y-92378861D01*
X136221139Y-92217953D01*
X136034734Y-92087432D01*
X135828496Y-91991261D01*
X135823271Y-91989861D01*
X135823263Y-91989858D01*
X135613916Y-91933764D01*
X135613907Y-91933762D01*
X135608692Y-91932365D01*
X135603304Y-91931893D01*
X135603301Y-91931893D01*
X135387395Y-91913004D01*
X135382000Y-91912532D01*
X135376605Y-91913004D01*
X135160698Y-91931893D01*
X135160693Y-91931893D01*
X135155308Y-91932365D01*
X135150094Y-91933762D01*
X135150083Y-91933764D01*
X134940736Y-91989858D01*
X134940724Y-91989862D01*
X134935504Y-91991261D01*
X134930599Y-91993547D01*
X134930594Y-91993550D01*
X134734176Y-92085142D01*
X134734172Y-92085144D01*
X134729266Y-92087432D01*
X134724833Y-92090535D01*
X134724826Y-92090540D01*
X134547296Y-92214847D01*
X134547291Y-92214850D01*
X134542861Y-92217953D01*
X134539037Y-92221776D01*
X134539031Y-92221782D01*
X134385782Y-92375031D01*
X134385776Y-92375037D01*
X134381953Y-92378861D01*
X134378850Y-92383291D01*
X134378847Y-92383296D01*
X134254540Y-92560826D01*
X134254535Y-92560833D01*
X134251432Y-92565266D01*
X134249144Y-92570172D01*
X134249142Y-92570176D01*
X134157550Y-92766594D01*
X134157547Y-92766599D01*
X134155261Y-92771504D01*
X134153862Y-92776724D01*
X134153858Y-92776736D01*
X134097764Y-92986083D01*
X134097762Y-92986094D01*
X134096365Y-92991308D01*
X134076532Y-93218000D01*
X123190500Y-93218000D01*
X123190500Y-92965448D01*
X123946452Y-92965448D01*
X123957395Y-92968000D01*
X124955674Y-92968000D01*
X124968549Y-92964549D01*
X124972000Y-92951674D01*
X125472000Y-92951674D01*
X125475450Y-92964549D01*
X125488326Y-92968000D01*
X126486605Y-92968000D01*
X126497547Y-92965448D01*
X126497179Y-92954219D01*
X126449669Y-92776907D01*
X126445977Y-92766765D01*
X126354420Y-92570419D01*
X126349032Y-92561087D01*
X126224767Y-92383618D01*
X126217830Y-92375352D01*
X126064647Y-92222169D01*
X126056381Y-92215232D01*
X125878912Y-92090967D01*
X125869580Y-92085579D01*
X125673234Y-91994022D01*
X125663092Y-91990330D01*
X125485780Y-91942820D01*
X125474551Y-91942452D01*
X125472000Y-91953395D01*
X125472000Y-92951674D01*
X124972000Y-92951674D01*
X124972000Y-91953395D01*
X124969448Y-91942452D01*
X124958219Y-91942820D01*
X124780907Y-91990330D01*
X124770765Y-91994022D01*
X124574419Y-92085579D01*
X124565087Y-92090967D01*
X124387618Y-92215232D01*
X124379352Y-92222169D01*
X124226169Y-92375352D01*
X124219232Y-92383618D01*
X124094967Y-92561087D01*
X124089579Y-92570419D01*
X123998022Y-92766765D01*
X123994330Y-92776907D01*
X123946820Y-92954219D01*
X123946452Y-92965448D01*
X123190500Y-92965448D01*
X123190500Y-87463591D01*
X133898217Y-87463591D01*
X133905650Y-87471702D01*
X133963077Y-87511913D01*
X133972427Y-87517311D01*
X134168768Y-87608867D01*
X134178902Y-87612555D01*
X134388162Y-87668627D01*
X134398793Y-87670501D01*
X134614605Y-87689382D01*
X134625395Y-87689382D01*
X134841206Y-87670501D01*
X134851837Y-87668627D01*
X135061097Y-87612555D01*
X135071231Y-87608867D01*
X135267575Y-87517310D01*
X135276920Y-87511914D01*
X135334348Y-87471702D01*
X135341780Y-87463591D01*
X135335867Y-87454309D01*
X134631542Y-86749983D01*
X134619999Y-86743319D01*
X134608457Y-86749983D01*
X133904128Y-87454312D01*
X133898217Y-87463591D01*
X123190500Y-87463591D01*
X123190500Y-86390283D01*
X133315506Y-86390283D01*
X133334386Y-86606094D01*
X133336260Y-86616725D01*
X133392332Y-86825985D01*
X133396020Y-86836119D01*
X133487576Y-87032460D01*
X133492974Y-87041810D01*
X133533184Y-87099236D01*
X133541295Y-87106669D01*
X133550574Y-87100758D01*
X134254903Y-86396430D01*
X134261567Y-86384888D01*
X134978431Y-86384888D01*
X134985095Y-86396430D01*
X135689421Y-87100755D01*
X135698703Y-87106668D01*
X135706814Y-87099236D01*
X135747026Y-87041808D01*
X135752422Y-87032463D01*
X135843979Y-86836119D01*
X135847667Y-86825985D01*
X135903739Y-86616725D01*
X135905613Y-86606094D01*
X135924494Y-86390283D01*
X135924494Y-86379493D01*
X135905613Y-86163681D01*
X135903739Y-86153050D01*
X135847667Y-85943790D01*
X135843979Y-85933656D01*
X135752423Y-85737315D01*
X135747025Y-85727965D01*
X135706814Y-85670538D01*
X135698703Y-85663105D01*
X135689424Y-85669016D01*
X134985095Y-86373345D01*
X134978431Y-86384888D01*
X134261567Y-86384888D01*
X134254903Y-86373345D01*
X133550574Y-85669016D01*
X133541296Y-85663105D01*
X133533183Y-85670539D01*
X133492971Y-85727969D01*
X133487577Y-85737313D01*
X133396020Y-85933656D01*
X133392332Y-85943790D01*
X133336260Y-86153050D01*
X133334386Y-86163681D01*
X133315506Y-86379493D01*
X133315506Y-86390283D01*
X123190500Y-86390283D01*
X123190500Y-85087578D01*
X123871500Y-85087578D01*
X123871501Y-85090872D01*
X123871853Y-85094150D01*
X123871854Y-85094161D01*
X123877079Y-85142768D01*
X123877080Y-85142773D01*
X123877909Y-85150483D01*
X123880619Y-85157749D01*
X123880620Y-85157753D01*
X123890994Y-85185566D01*
X123928204Y-85285331D01*
X124014454Y-85400546D01*
X124129669Y-85486796D01*
X124264517Y-85537091D01*
X124324127Y-85543500D01*
X126119872Y-85543499D01*
X126179483Y-85537091D01*
X126314331Y-85486796D01*
X126429546Y-85400546D01*
X126515796Y-85285331D01*
X126566091Y-85150483D01*
X126572500Y-85090873D01*
X126572500Y-84729466D01*
X133319500Y-84729466D01*
X133319501Y-84732760D01*
X133319853Y-84736038D01*
X133319854Y-84736049D01*
X133325079Y-84784656D01*
X133325080Y-84784661D01*
X133325909Y-84792371D01*
X133328619Y-84799637D01*
X133328620Y-84799641D01*
X133362217Y-84889719D01*
X133376204Y-84927219D01*
X133462454Y-85042434D01*
X133577669Y-85128684D01*
X133712517Y-85178979D01*
X133772127Y-85185388D01*
X133775451Y-85185387D01*
X133778768Y-85185566D01*
X133778699Y-85186842D01*
X133830046Y-85199347D01*
X133874430Y-85238219D01*
X133895825Y-85293202D01*
X133897356Y-85304831D01*
X133904128Y-85315462D01*
X134608457Y-86019791D01*
X134619999Y-86026455D01*
X134631542Y-86019791D01*
X135335870Y-85315462D01*
X135342642Y-85304831D01*
X135344174Y-85293202D01*
X135365538Y-85238264D01*
X135409856Y-85199398D01*
X135461304Y-85186808D01*
X135461238Y-85185565D01*
X135464558Y-85185387D01*
X135467872Y-85185387D01*
X135527483Y-85178979D01*
X135662331Y-85128684D01*
X135777546Y-85042434D01*
X135863796Y-84927219D01*
X135914091Y-84792371D01*
X135920500Y-84732761D01*
X135920499Y-83037016D01*
X135914091Y-82977405D01*
X135863796Y-82842557D01*
X135777546Y-82727342D01*
X135662331Y-82641092D01*
X135527483Y-82590797D01*
X135519770Y-82589967D01*
X135519767Y-82589967D01*
X135471180Y-82584743D01*
X135471169Y-82584742D01*
X135467873Y-82584388D01*
X135464550Y-82584388D01*
X133775439Y-82584388D01*
X133775420Y-82584388D01*
X133772128Y-82584389D01*
X133768850Y-82584741D01*
X133768838Y-82584742D01*
X133720231Y-82589967D01*
X133720225Y-82589968D01*
X133712517Y-82590797D01*
X133705252Y-82593506D01*
X133705246Y-82593508D01*
X133585980Y-82637992D01*
X133585978Y-82637992D01*
X133577669Y-82641092D01*
X133570572Y-82646404D01*
X133570568Y-82646407D01*
X133469550Y-82722029D01*
X133469546Y-82722032D01*
X133462454Y-82727342D01*
X133457144Y-82734434D01*
X133457141Y-82734438D01*
X133381519Y-82835456D01*
X133381516Y-82835460D01*
X133376204Y-82842557D01*
X133373104Y-82850866D01*
X133373104Y-82850868D01*
X133328620Y-82970135D01*
X133328619Y-82970138D01*
X133325909Y-82977405D01*
X133325079Y-82985115D01*
X133325079Y-82985120D01*
X133319855Y-83033707D01*
X133319854Y-83033719D01*
X133319500Y-83037015D01*
X133319500Y-83040336D01*
X133319500Y-83040337D01*
X133319500Y-84729448D01*
X133319500Y-84729466D01*
X126572500Y-84729466D01*
X126572499Y-83295128D01*
X126566091Y-83235517D01*
X126515796Y-83100669D01*
X126429546Y-82985454D01*
X126409082Y-82970135D01*
X126321431Y-82904519D01*
X126321430Y-82904518D01*
X126314331Y-82899204D01*
X126179483Y-82848909D01*
X126171770Y-82848079D01*
X126171767Y-82848079D01*
X126123180Y-82842855D01*
X126123169Y-82842854D01*
X126119873Y-82842500D01*
X126116550Y-82842500D01*
X124327439Y-82842500D01*
X124327420Y-82842500D01*
X124324128Y-82842501D01*
X124320850Y-82842853D01*
X124320838Y-82842854D01*
X124272231Y-82848079D01*
X124272225Y-82848080D01*
X124264517Y-82848909D01*
X124257252Y-82851618D01*
X124257246Y-82851620D01*
X124137980Y-82896104D01*
X124137978Y-82896104D01*
X124129669Y-82899204D01*
X124122572Y-82904516D01*
X124122568Y-82904519D01*
X124021550Y-82980141D01*
X124021546Y-82980144D01*
X124014454Y-82985454D01*
X124009144Y-82992546D01*
X124009141Y-82992550D01*
X123933519Y-83093568D01*
X123933516Y-83093572D01*
X123928204Y-83100669D01*
X123925104Y-83108978D01*
X123925104Y-83108980D01*
X123880620Y-83228247D01*
X123880619Y-83228250D01*
X123877909Y-83235517D01*
X123877079Y-83243227D01*
X123877079Y-83243232D01*
X123871855Y-83291819D01*
X123871854Y-83291831D01*
X123871500Y-83295127D01*
X123871500Y-83298448D01*
X123871500Y-83298449D01*
X123871500Y-85087560D01*
X123871500Y-85087578D01*
X123190500Y-85087578D01*
X123190500Y-79745500D01*
X123207113Y-79683500D01*
X123252500Y-79638113D01*
X123314500Y-79621500D01*
X153545500Y-79621500D01*
X153607500Y-79638113D01*
G37*
%TD.AperFunction*%
%TD*%
M02*
