%TF.GenerationSoftware,KiCad,Pcbnew,(7.0.0)*%
%TF.CreationDate,2024-08-26T11:17:35-04:00*%
%TF.ProjectId,nrf24l01_bob,6e726632-346c-4303-915f-626f622e6b69,rev?*%
%TF.SameCoordinates,Original*%
%TF.FileFunction,Legend,Bot*%
%TF.FilePolarity,Positive*%
%FSLAX46Y46*%
G04 Gerber Fmt 4.6, Leading zero omitted, Abs format (unit mm)*
G04 Created by KiCad (PCBNEW (7.0.0)) date 2024-08-26 11:17:35*
%MOMM*%
%LPD*%
G01*
G04 APERTURE LIST*
%ADD10C,0.150000*%
%ADD11C,0.101600*%
G04 APERTURE END LIST*
D10*
X138890476Y-85126380D02*
X139223809Y-84650190D01*
X139461904Y-85126380D02*
X139461904Y-84126380D01*
X139461904Y-84126380D02*
X139080952Y-84126380D01*
X139080952Y-84126380D02*
X138985714Y-84174000D01*
X138985714Y-84174000D02*
X138938095Y-84221619D01*
X138938095Y-84221619D02*
X138890476Y-84316857D01*
X138890476Y-84316857D02*
X138890476Y-84459714D01*
X138890476Y-84459714D02*
X138938095Y-84554952D01*
X138938095Y-84554952D02*
X138985714Y-84602571D01*
X138985714Y-84602571D02*
X139080952Y-84650190D01*
X139080952Y-84650190D02*
X139461904Y-84650190D01*
X138461904Y-84602571D02*
X138128571Y-84602571D01*
X137985714Y-85126380D02*
X138461904Y-85126380D01*
X138461904Y-85126380D02*
X138461904Y-84126380D01*
X138461904Y-84126380D02*
X137985714Y-84126380D01*
X137699999Y-84126380D02*
X137366666Y-85126380D01*
X137366666Y-85126380D02*
X137033333Y-84126380D01*
X135576190Y-85126380D02*
X136147618Y-85126380D01*
X135861904Y-85126380D02*
X135861904Y-84126380D01*
X135861904Y-84126380D02*
X135957142Y-84269238D01*
X135957142Y-84269238D02*
X136052380Y-84364476D01*
X136052380Y-84364476D02*
X136147618Y-84412095D01*
X143017904Y-83602380D02*
X143017904Y-82602380D01*
X143017904Y-82602380D02*
X142446476Y-83602380D01*
X142446476Y-83602380D02*
X142446476Y-82602380D01*
X141398857Y-83602380D02*
X141732190Y-83126190D01*
X141970285Y-83602380D02*
X141970285Y-82602380D01*
X141970285Y-82602380D02*
X141589333Y-82602380D01*
X141589333Y-82602380D02*
X141494095Y-82650000D01*
X141494095Y-82650000D02*
X141446476Y-82697619D01*
X141446476Y-82697619D02*
X141398857Y-82792857D01*
X141398857Y-82792857D02*
X141398857Y-82935714D01*
X141398857Y-82935714D02*
X141446476Y-83030952D01*
X141446476Y-83030952D02*
X141494095Y-83078571D01*
X141494095Y-83078571D02*
X141589333Y-83126190D01*
X141589333Y-83126190D02*
X141970285Y-83126190D01*
X140636952Y-83078571D02*
X140970285Y-83078571D01*
X140970285Y-83602380D02*
X140970285Y-82602380D01*
X140970285Y-82602380D02*
X140494095Y-82602380D01*
X140160761Y-82697619D02*
X140113142Y-82650000D01*
X140113142Y-82650000D02*
X140017904Y-82602380D01*
X140017904Y-82602380D02*
X139779809Y-82602380D01*
X139779809Y-82602380D02*
X139684571Y-82650000D01*
X139684571Y-82650000D02*
X139636952Y-82697619D01*
X139636952Y-82697619D02*
X139589333Y-82792857D01*
X139589333Y-82792857D02*
X139589333Y-82888095D01*
X139589333Y-82888095D02*
X139636952Y-83030952D01*
X139636952Y-83030952D02*
X140208380Y-83602380D01*
X140208380Y-83602380D02*
X139589333Y-83602380D01*
X138732190Y-82935714D02*
X138732190Y-83602380D01*
X138970285Y-82554761D02*
X139208380Y-83269047D01*
X139208380Y-83269047D02*
X138589333Y-83269047D01*
X137732190Y-83602380D02*
X138208380Y-83602380D01*
X138208380Y-83602380D02*
X138208380Y-82602380D01*
X137208380Y-82602380D02*
X137113142Y-82602380D01*
X137113142Y-82602380D02*
X137017904Y-82650000D01*
X137017904Y-82650000D02*
X136970285Y-82697619D01*
X136970285Y-82697619D02*
X136922666Y-82792857D01*
X136922666Y-82792857D02*
X136875047Y-82983333D01*
X136875047Y-82983333D02*
X136875047Y-83221428D01*
X136875047Y-83221428D02*
X136922666Y-83411904D01*
X136922666Y-83411904D02*
X136970285Y-83507142D01*
X136970285Y-83507142D02*
X137017904Y-83554761D01*
X137017904Y-83554761D02*
X137113142Y-83602380D01*
X137113142Y-83602380D02*
X137208380Y-83602380D01*
X137208380Y-83602380D02*
X137303618Y-83554761D01*
X137303618Y-83554761D02*
X137351237Y-83507142D01*
X137351237Y-83507142D02*
X137398856Y-83411904D01*
X137398856Y-83411904D02*
X137446475Y-83221428D01*
X137446475Y-83221428D02*
X137446475Y-82983333D01*
X137446475Y-82983333D02*
X137398856Y-82792857D01*
X137398856Y-82792857D02*
X137351237Y-82697619D01*
X137351237Y-82697619D02*
X137303618Y-82650000D01*
X137303618Y-82650000D02*
X137208380Y-82602380D01*
X135922666Y-83602380D02*
X136494094Y-83602380D01*
X136208380Y-83602380D02*
X136208380Y-82602380D01*
X136208380Y-82602380D02*
X136303618Y-82745238D01*
X136303618Y-82745238D02*
X136398856Y-82840476D01*
X136398856Y-82840476D02*
X136494094Y-82888095D01*
X134560761Y-83078571D02*
X134417904Y-83126190D01*
X134417904Y-83126190D02*
X134370285Y-83173809D01*
X134370285Y-83173809D02*
X134322666Y-83269047D01*
X134322666Y-83269047D02*
X134322666Y-83411904D01*
X134322666Y-83411904D02*
X134370285Y-83507142D01*
X134370285Y-83507142D02*
X134417904Y-83554761D01*
X134417904Y-83554761D02*
X134513142Y-83602380D01*
X134513142Y-83602380D02*
X134894094Y-83602380D01*
X134894094Y-83602380D02*
X134894094Y-82602380D01*
X134894094Y-82602380D02*
X134560761Y-82602380D01*
X134560761Y-82602380D02*
X134465523Y-82650000D01*
X134465523Y-82650000D02*
X134417904Y-82697619D01*
X134417904Y-82697619D02*
X134370285Y-82792857D01*
X134370285Y-82792857D02*
X134370285Y-82888095D01*
X134370285Y-82888095D02*
X134417904Y-82983333D01*
X134417904Y-82983333D02*
X134465523Y-83030952D01*
X134465523Y-83030952D02*
X134560761Y-83078571D01*
X134560761Y-83078571D02*
X134894094Y-83078571D01*
X133703618Y-82602380D02*
X133513142Y-82602380D01*
X133513142Y-82602380D02*
X133417904Y-82650000D01*
X133417904Y-82650000D02*
X133322666Y-82745238D01*
X133322666Y-82745238D02*
X133275047Y-82935714D01*
X133275047Y-82935714D02*
X133275047Y-83269047D01*
X133275047Y-83269047D02*
X133322666Y-83459523D01*
X133322666Y-83459523D02*
X133417904Y-83554761D01*
X133417904Y-83554761D02*
X133513142Y-83602380D01*
X133513142Y-83602380D02*
X133703618Y-83602380D01*
X133703618Y-83602380D02*
X133798856Y-83554761D01*
X133798856Y-83554761D02*
X133894094Y-83459523D01*
X133894094Y-83459523D02*
X133941713Y-83269047D01*
X133941713Y-83269047D02*
X133941713Y-82935714D01*
X133941713Y-82935714D02*
X133894094Y-82745238D01*
X133894094Y-82745238D02*
X133798856Y-82650000D01*
X133798856Y-82650000D02*
X133703618Y-82602380D01*
X132513142Y-83078571D02*
X132370285Y-83126190D01*
X132370285Y-83126190D02*
X132322666Y-83173809D01*
X132322666Y-83173809D02*
X132275047Y-83269047D01*
X132275047Y-83269047D02*
X132275047Y-83411904D01*
X132275047Y-83411904D02*
X132322666Y-83507142D01*
X132322666Y-83507142D02*
X132370285Y-83554761D01*
X132370285Y-83554761D02*
X132465523Y-83602380D01*
X132465523Y-83602380D02*
X132846475Y-83602380D01*
X132846475Y-83602380D02*
X132846475Y-82602380D01*
X132846475Y-82602380D02*
X132513142Y-82602380D01*
X132513142Y-82602380D02*
X132417904Y-82650000D01*
X132417904Y-82650000D02*
X132370285Y-82697619D01*
X132370285Y-82697619D02*
X132322666Y-82792857D01*
X132322666Y-82792857D02*
X132322666Y-82888095D01*
X132322666Y-82888095D02*
X132370285Y-82983333D01*
X132370285Y-82983333D02*
X132417904Y-83030952D01*
X132417904Y-83030952D02*
X132513142Y-83078571D01*
X132513142Y-83078571D02*
X132846475Y-83078571D01*
X140652571Y-81554571D02*
X140509714Y-81602190D01*
X140509714Y-81602190D02*
X140462095Y-81649809D01*
X140462095Y-81649809D02*
X140414476Y-81745047D01*
X140414476Y-81745047D02*
X140414476Y-81887904D01*
X140414476Y-81887904D02*
X140462095Y-81983142D01*
X140462095Y-81983142D02*
X140509714Y-82030761D01*
X140509714Y-82030761D02*
X140604952Y-82078380D01*
X140604952Y-82078380D02*
X140985904Y-82078380D01*
X140985904Y-82078380D02*
X140985904Y-81078380D01*
X140985904Y-81078380D02*
X140652571Y-81078380D01*
X140652571Y-81078380D02*
X140557333Y-81126000D01*
X140557333Y-81126000D02*
X140509714Y-81173619D01*
X140509714Y-81173619D02*
X140462095Y-81268857D01*
X140462095Y-81268857D02*
X140462095Y-81364095D01*
X140462095Y-81364095D02*
X140509714Y-81459333D01*
X140509714Y-81459333D02*
X140557333Y-81506952D01*
X140557333Y-81506952D02*
X140652571Y-81554571D01*
X140652571Y-81554571D02*
X140985904Y-81554571D01*
X139509714Y-82078380D02*
X139985904Y-82078380D01*
X139985904Y-82078380D02*
X139985904Y-81078380D01*
X138604952Y-82078380D02*
X138938285Y-81602190D01*
X139176380Y-82078380D02*
X139176380Y-81078380D01*
X139176380Y-81078380D02*
X138795428Y-81078380D01*
X138795428Y-81078380D02*
X138700190Y-81126000D01*
X138700190Y-81126000D02*
X138652571Y-81173619D01*
X138652571Y-81173619D02*
X138604952Y-81268857D01*
X138604952Y-81268857D02*
X138604952Y-81411714D01*
X138604952Y-81411714D02*
X138652571Y-81506952D01*
X138652571Y-81506952D02*
X138700190Y-81554571D01*
X138700190Y-81554571D02*
X138795428Y-81602190D01*
X138795428Y-81602190D02*
X139176380Y-81602190D01*
X138176380Y-81697428D02*
X137414476Y-81697428D01*
X136938285Y-82078380D02*
X136938285Y-81078380D01*
X136938285Y-81078380D02*
X136557333Y-81078380D01*
X136557333Y-81078380D02*
X136462095Y-81126000D01*
X136462095Y-81126000D02*
X136414476Y-81173619D01*
X136414476Y-81173619D02*
X136366857Y-81268857D01*
X136366857Y-81268857D02*
X136366857Y-81411714D01*
X136366857Y-81411714D02*
X136414476Y-81506952D01*
X136414476Y-81506952D02*
X136462095Y-81554571D01*
X136462095Y-81554571D02*
X136557333Y-81602190D01*
X136557333Y-81602190D02*
X136938285Y-81602190D01*
X135366857Y-81983142D02*
X135414476Y-82030761D01*
X135414476Y-82030761D02*
X135557333Y-82078380D01*
X135557333Y-82078380D02*
X135652571Y-82078380D01*
X135652571Y-82078380D02*
X135795428Y-82030761D01*
X135795428Y-82030761D02*
X135890666Y-81935523D01*
X135890666Y-81935523D02*
X135938285Y-81840285D01*
X135938285Y-81840285D02*
X135985904Y-81649809D01*
X135985904Y-81649809D02*
X135985904Y-81506952D01*
X135985904Y-81506952D02*
X135938285Y-81316476D01*
X135938285Y-81316476D02*
X135890666Y-81221238D01*
X135890666Y-81221238D02*
X135795428Y-81126000D01*
X135795428Y-81126000D02*
X135652571Y-81078380D01*
X135652571Y-81078380D02*
X135557333Y-81078380D01*
X135557333Y-81078380D02*
X135414476Y-81126000D01*
X135414476Y-81126000D02*
X135366857Y-81173619D01*
X134604952Y-81554571D02*
X134462095Y-81602190D01*
X134462095Y-81602190D02*
X134414476Y-81649809D01*
X134414476Y-81649809D02*
X134366857Y-81745047D01*
X134366857Y-81745047D02*
X134366857Y-81887904D01*
X134366857Y-81887904D02*
X134414476Y-81983142D01*
X134414476Y-81983142D02*
X134462095Y-82030761D01*
X134462095Y-82030761D02*
X134557333Y-82078380D01*
X134557333Y-82078380D02*
X134938285Y-82078380D01*
X134938285Y-82078380D02*
X134938285Y-81078380D01*
X134938285Y-81078380D02*
X134604952Y-81078380D01*
X134604952Y-81078380D02*
X134509714Y-81126000D01*
X134509714Y-81126000D02*
X134462095Y-81173619D01*
X134462095Y-81173619D02*
X134414476Y-81268857D01*
X134414476Y-81268857D02*
X134414476Y-81364095D01*
X134414476Y-81364095D02*
X134462095Y-81459333D01*
X134462095Y-81459333D02*
X134509714Y-81506952D01*
X134509714Y-81506952D02*
X134604952Y-81554571D01*
X134604952Y-81554571D02*
X134938285Y-81554571D01*
D11*
X138341100Y-109743621D02*
X138188700Y-109743621D01*
X138188700Y-109743621D02*
X138112500Y-109781721D01*
X138112500Y-109781721D02*
X138036300Y-109857921D01*
X138036300Y-109857921D02*
X137998200Y-110010321D01*
X137998200Y-110010321D02*
X137998200Y-110277021D01*
X137998200Y-110277021D02*
X138036300Y-110429421D01*
X138036300Y-110429421D02*
X138112500Y-110505621D01*
X138112500Y-110505621D02*
X138188700Y-110543721D01*
X138188700Y-110543721D02*
X138341100Y-110543721D01*
X138341100Y-110543721D02*
X138417300Y-110505621D01*
X138417300Y-110505621D02*
X138493500Y-110429421D01*
X138493500Y-110429421D02*
X138531600Y-110277021D01*
X138531600Y-110277021D02*
X138531600Y-110010321D01*
X138531600Y-110010321D02*
X138493500Y-109857921D01*
X138493500Y-109857921D02*
X138417300Y-109781721D01*
X138417300Y-109781721D02*
X138341100Y-109743621D01*
X137655300Y-110010321D02*
X137655300Y-110543721D01*
X137655300Y-110086521D02*
X137617200Y-110048421D01*
X137617200Y-110048421D02*
X137541000Y-110010321D01*
X137541000Y-110010321D02*
X137426700Y-110010321D01*
X137426700Y-110010321D02*
X137350500Y-110048421D01*
X137350500Y-110048421D02*
X137312400Y-110124621D01*
X137312400Y-110124621D02*
X137312400Y-110543721D01*
X136817100Y-110543721D02*
X136893300Y-110505621D01*
X136893300Y-110505621D02*
X136931400Y-110429421D01*
X136931400Y-110429421D02*
X136931400Y-109743621D01*
X136588500Y-110010321D02*
X136398000Y-110543721D01*
X136207500Y-110010321D02*
X136398000Y-110543721D01*
X136398000Y-110543721D02*
X136474200Y-110734221D01*
X136474200Y-110734221D02*
X136512300Y-110772321D01*
X136512300Y-110772321D02*
X136588500Y-110810421D01*
X135422640Y-110010321D02*
X135422640Y-110810421D01*
X135422640Y-110048421D02*
X135346440Y-110010321D01*
X135346440Y-110010321D02*
X135194040Y-110010321D01*
X135194040Y-110010321D02*
X135117840Y-110048421D01*
X135117840Y-110048421D02*
X135079740Y-110086521D01*
X135079740Y-110086521D02*
X135041640Y-110162721D01*
X135041640Y-110162721D02*
X135041640Y-110391321D01*
X135041640Y-110391321D02*
X135079740Y-110467521D01*
X135079740Y-110467521D02*
X135117840Y-110505621D01*
X135117840Y-110505621D02*
X135194040Y-110543721D01*
X135194040Y-110543721D02*
X135346440Y-110543721D01*
X135346440Y-110543721D02*
X135422640Y-110505621D01*
X134584440Y-110543721D02*
X134660640Y-110505621D01*
X134660640Y-110505621D02*
X134698740Y-110467521D01*
X134698740Y-110467521D02*
X134736840Y-110391321D01*
X134736840Y-110391321D02*
X134736840Y-110162721D01*
X134736840Y-110162721D02*
X134698740Y-110086521D01*
X134698740Y-110086521D02*
X134660640Y-110048421D01*
X134660640Y-110048421D02*
X134584440Y-110010321D01*
X134584440Y-110010321D02*
X134470140Y-110010321D01*
X134470140Y-110010321D02*
X134393940Y-110048421D01*
X134393940Y-110048421D02*
X134355840Y-110086521D01*
X134355840Y-110086521D02*
X134317740Y-110162721D01*
X134317740Y-110162721D02*
X134317740Y-110391321D01*
X134317740Y-110391321D02*
X134355840Y-110467521D01*
X134355840Y-110467521D02*
X134393940Y-110505621D01*
X134393940Y-110505621D02*
X134470140Y-110543721D01*
X134470140Y-110543721D02*
X134584440Y-110543721D01*
X133974840Y-110010321D02*
X133974840Y-110810421D01*
X133974840Y-110048421D02*
X133898640Y-110010321D01*
X133898640Y-110010321D02*
X133746240Y-110010321D01*
X133746240Y-110010321D02*
X133670040Y-110048421D01*
X133670040Y-110048421D02*
X133631940Y-110086521D01*
X133631940Y-110086521D02*
X133593840Y-110162721D01*
X133593840Y-110162721D02*
X133593840Y-110391321D01*
X133593840Y-110391321D02*
X133631940Y-110467521D01*
X133631940Y-110467521D02*
X133670040Y-110505621D01*
X133670040Y-110505621D02*
X133746240Y-110543721D01*
X133746240Y-110543721D02*
X133898640Y-110543721D01*
X133898640Y-110543721D02*
X133974840Y-110505621D01*
X132908040Y-110010321D02*
X132908040Y-110543721D01*
X133250940Y-110010321D02*
X133250940Y-110429421D01*
X133250940Y-110429421D02*
X133212840Y-110505621D01*
X133212840Y-110505621D02*
X133136640Y-110543721D01*
X133136640Y-110543721D02*
X133022340Y-110543721D01*
X133022340Y-110543721D02*
X132946140Y-110505621D01*
X132946140Y-110505621D02*
X132908040Y-110467521D01*
X132412740Y-110543721D02*
X132488940Y-110505621D01*
X132488940Y-110505621D02*
X132527040Y-110429421D01*
X132527040Y-110429421D02*
X132527040Y-109743621D01*
X131765040Y-110543721D02*
X131765040Y-110124621D01*
X131765040Y-110124621D02*
X131803140Y-110048421D01*
X131803140Y-110048421D02*
X131879340Y-110010321D01*
X131879340Y-110010321D02*
X132031740Y-110010321D01*
X132031740Y-110010321D02*
X132107940Y-110048421D01*
X131765040Y-110505621D02*
X131841240Y-110543721D01*
X131841240Y-110543721D02*
X132031740Y-110543721D01*
X132031740Y-110543721D02*
X132107940Y-110505621D01*
X132107940Y-110505621D02*
X132146040Y-110429421D01*
X132146040Y-110429421D02*
X132146040Y-110353221D01*
X132146040Y-110353221D02*
X132107940Y-110277021D01*
X132107940Y-110277021D02*
X132031740Y-110238921D01*
X132031740Y-110238921D02*
X131841240Y-110238921D01*
X131841240Y-110238921D02*
X131765040Y-110200821D01*
X131498340Y-110010321D02*
X131193540Y-110010321D01*
X131384040Y-109743621D02*
X131384040Y-110429421D01*
X131384040Y-110429421D02*
X131345940Y-110505621D01*
X131345940Y-110505621D02*
X131269740Y-110543721D01*
X131269740Y-110543721D02*
X131193540Y-110543721D01*
X130622040Y-110505621D02*
X130698240Y-110543721D01*
X130698240Y-110543721D02*
X130850640Y-110543721D01*
X130850640Y-110543721D02*
X130926840Y-110505621D01*
X130926840Y-110505621D02*
X130964940Y-110429421D01*
X130964940Y-110429421D02*
X130964940Y-110124621D01*
X130964940Y-110124621D02*
X130926840Y-110048421D01*
X130926840Y-110048421D02*
X130850640Y-110010321D01*
X130850640Y-110010321D02*
X130698240Y-110010321D01*
X130698240Y-110010321D02*
X130622040Y-110048421D01*
X130622040Y-110048421D02*
X130583940Y-110124621D01*
X130583940Y-110124621D02*
X130583940Y-110200821D01*
X130583940Y-110200821D02*
X130964940Y-110277021D01*
X138036300Y-111763683D02*
X138074400Y-111801783D01*
X138074400Y-111801783D02*
X138188700Y-111839883D01*
X138188700Y-111839883D02*
X138264900Y-111839883D01*
X138264900Y-111839883D02*
X138379200Y-111801783D01*
X138379200Y-111801783D02*
X138455400Y-111725583D01*
X138455400Y-111725583D02*
X138493500Y-111649383D01*
X138493500Y-111649383D02*
X138531600Y-111496983D01*
X138531600Y-111496983D02*
X138531600Y-111382683D01*
X138531600Y-111382683D02*
X138493500Y-111230283D01*
X138493500Y-111230283D02*
X138455400Y-111154083D01*
X138455400Y-111154083D02*
X138379200Y-111077883D01*
X138379200Y-111077883D02*
X138264900Y-111039783D01*
X138264900Y-111039783D02*
X138188700Y-111039783D01*
X138188700Y-111039783D02*
X138074400Y-111077883D01*
X138074400Y-111077883D02*
X138036300Y-111115983D01*
X137274300Y-111839883D02*
X137731500Y-111839883D01*
X137502900Y-111839883D02*
X137502900Y-111039783D01*
X137502900Y-111039783D02*
X137579100Y-111154083D01*
X137579100Y-111154083D02*
X137655300Y-111230283D01*
X137655300Y-111230283D02*
X137731500Y-111268383D01*
X136359900Y-111001683D02*
X137045700Y-112030383D01*
X135636000Y-111763683D02*
X135674100Y-111801783D01*
X135674100Y-111801783D02*
X135788400Y-111839883D01*
X135788400Y-111839883D02*
X135864600Y-111839883D01*
X135864600Y-111839883D02*
X135978900Y-111801783D01*
X135978900Y-111801783D02*
X136055100Y-111725583D01*
X136055100Y-111725583D02*
X136093200Y-111649383D01*
X136093200Y-111649383D02*
X136131300Y-111496983D01*
X136131300Y-111496983D02*
X136131300Y-111382683D01*
X136131300Y-111382683D02*
X136093200Y-111230283D01*
X136093200Y-111230283D02*
X136055100Y-111154083D01*
X136055100Y-111154083D02*
X135978900Y-111077883D01*
X135978900Y-111077883D02*
X135864600Y-111039783D01*
X135864600Y-111039783D02*
X135788400Y-111039783D01*
X135788400Y-111039783D02*
X135674100Y-111077883D01*
X135674100Y-111077883D02*
X135636000Y-111115983D01*
X135331200Y-111115983D02*
X135293100Y-111077883D01*
X135293100Y-111077883D02*
X135216900Y-111039783D01*
X135216900Y-111039783D02*
X135026400Y-111039783D01*
X135026400Y-111039783D02*
X134950200Y-111077883D01*
X134950200Y-111077883D02*
X134912100Y-111115983D01*
X134912100Y-111115983D02*
X134874000Y-111192183D01*
X134874000Y-111192183D02*
X134874000Y-111268383D01*
X134874000Y-111268383D02*
X134912100Y-111382683D01*
X134912100Y-111382683D02*
X135369300Y-111839883D01*
X135369300Y-111839883D02*
X134874000Y-111839883D01*
X133936740Y-111839883D02*
X134012940Y-111801783D01*
X134012940Y-111801783D02*
X134051040Y-111763683D01*
X134051040Y-111763683D02*
X134089140Y-111687483D01*
X134089140Y-111687483D02*
X134089140Y-111458883D01*
X134089140Y-111458883D02*
X134051040Y-111382683D01*
X134051040Y-111382683D02*
X134012940Y-111344583D01*
X134012940Y-111344583D02*
X133936740Y-111306483D01*
X133936740Y-111306483D02*
X133822440Y-111306483D01*
X133822440Y-111306483D02*
X133746240Y-111344583D01*
X133746240Y-111344583D02*
X133708140Y-111382683D01*
X133708140Y-111382683D02*
X133670040Y-111458883D01*
X133670040Y-111458883D02*
X133670040Y-111687483D01*
X133670040Y-111687483D02*
X133708140Y-111763683D01*
X133708140Y-111763683D02*
X133746240Y-111801783D01*
X133746240Y-111801783D02*
X133822440Y-111839883D01*
X133822440Y-111839883D02*
X133936740Y-111839883D01*
X133327140Y-111839883D02*
X133327140Y-111306483D01*
X133327140Y-111458883D02*
X133289040Y-111382683D01*
X133289040Y-111382683D02*
X133250940Y-111344583D01*
X133250940Y-111344583D02*
X133174740Y-111306483D01*
X133174740Y-111306483D02*
X133098540Y-111306483D01*
X131894580Y-111763683D02*
X131932680Y-111801783D01*
X131932680Y-111801783D02*
X132046980Y-111839883D01*
X132046980Y-111839883D02*
X132123180Y-111839883D01*
X132123180Y-111839883D02*
X132237480Y-111801783D01*
X132237480Y-111801783D02*
X132313680Y-111725583D01*
X132313680Y-111725583D02*
X132351780Y-111649383D01*
X132351780Y-111649383D02*
X132389880Y-111496983D01*
X132389880Y-111496983D02*
X132389880Y-111382683D01*
X132389880Y-111382683D02*
X132351780Y-111230283D01*
X132351780Y-111230283D02*
X132313680Y-111154083D01*
X132313680Y-111154083D02*
X132237480Y-111077883D01*
X132237480Y-111077883D02*
X132123180Y-111039783D01*
X132123180Y-111039783D02*
X132046980Y-111039783D01*
X132046980Y-111039783D02*
X131932680Y-111077883D01*
X131932680Y-111077883D02*
X131894580Y-111115983D01*
X131627880Y-111039783D02*
X131132580Y-111039783D01*
X131132580Y-111039783D02*
X131399280Y-111344583D01*
X131399280Y-111344583D02*
X131284980Y-111344583D01*
X131284980Y-111344583D02*
X131208780Y-111382683D01*
X131208780Y-111382683D02*
X131170680Y-111420783D01*
X131170680Y-111420783D02*
X131132580Y-111496983D01*
X131132580Y-111496983D02*
X131132580Y-111687483D01*
X131132580Y-111687483D02*
X131170680Y-111763683D01*
X131170680Y-111763683D02*
X131208780Y-111801783D01*
X131208780Y-111801783D02*
X131284980Y-111839883D01*
X131284980Y-111839883D02*
X131513580Y-111839883D01*
X131513580Y-111839883D02*
X131589780Y-111801783D01*
X131589780Y-111801783D02*
X131627880Y-111763683D01*
X130218180Y-111001683D02*
X130903980Y-112030383D01*
X129494280Y-111763683D02*
X129532380Y-111801783D01*
X129532380Y-111801783D02*
X129646680Y-111839883D01*
X129646680Y-111839883D02*
X129722880Y-111839883D01*
X129722880Y-111839883D02*
X129837180Y-111801783D01*
X129837180Y-111801783D02*
X129913380Y-111725583D01*
X129913380Y-111725583D02*
X129951480Y-111649383D01*
X129951480Y-111649383D02*
X129989580Y-111496983D01*
X129989580Y-111496983D02*
X129989580Y-111382683D01*
X129989580Y-111382683D02*
X129951480Y-111230283D01*
X129951480Y-111230283D02*
X129913380Y-111154083D01*
X129913380Y-111154083D02*
X129837180Y-111077883D01*
X129837180Y-111077883D02*
X129722880Y-111039783D01*
X129722880Y-111039783D02*
X129646680Y-111039783D01*
X129646680Y-111039783D02*
X129532380Y-111077883D01*
X129532380Y-111077883D02*
X129494280Y-111115983D01*
X128808480Y-111306483D02*
X128808480Y-111839883D01*
X128998980Y-111001683D02*
X129189480Y-111573183D01*
X129189480Y-111573183D02*
X128694180Y-111573183D01*
X140271500Y-101895783D02*
X140271500Y-102543483D01*
X140271500Y-102543483D02*
X140233400Y-102619683D01*
X140233400Y-102619683D02*
X140195300Y-102657783D01*
X140195300Y-102657783D02*
X140119100Y-102695883D01*
X140119100Y-102695883D02*
X139966700Y-102695883D01*
X139966700Y-102695883D02*
X139890500Y-102657783D01*
X139890500Y-102657783D02*
X139852400Y-102619683D01*
X139852400Y-102619683D02*
X139814300Y-102543483D01*
X139814300Y-102543483D02*
X139814300Y-101895783D01*
X139014200Y-102695883D02*
X139471400Y-102695883D01*
X139242800Y-102695883D02*
X139242800Y-101895783D01*
X139242800Y-101895783D02*
X139319000Y-102010083D01*
X139319000Y-102010083D02*
X139395200Y-102086283D01*
X139395200Y-102086283D02*
X139471400Y-102124383D01*
X125564900Y-86147783D02*
X125564900Y-86719283D01*
X125564900Y-86719283D02*
X125603000Y-86833583D01*
X125603000Y-86833583D02*
X125679200Y-86909783D01*
X125679200Y-86909783D02*
X125793500Y-86947883D01*
X125793500Y-86947883D02*
X125869700Y-86947883D01*
X125069600Y-86490683D02*
X125145800Y-86452583D01*
X125145800Y-86452583D02*
X125183900Y-86414483D01*
X125183900Y-86414483D02*
X125222000Y-86338283D01*
X125222000Y-86338283D02*
X125222000Y-86300183D01*
X125222000Y-86300183D02*
X125183900Y-86223983D01*
X125183900Y-86223983D02*
X125145800Y-86185883D01*
X125145800Y-86185883D02*
X125069600Y-86147783D01*
X125069600Y-86147783D02*
X124917200Y-86147783D01*
X124917200Y-86147783D02*
X124841000Y-86185883D01*
X124841000Y-86185883D02*
X124802900Y-86223983D01*
X124802900Y-86223983D02*
X124764800Y-86300183D01*
X124764800Y-86300183D02*
X124764800Y-86338283D01*
X124764800Y-86338283D02*
X124802900Y-86414483D01*
X124802900Y-86414483D02*
X124841000Y-86452583D01*
X124841000Y-86452583D02*
X124917200Y-86490683D01*
X124917200Y-86490683D02*
X125069600Y-86490683D01*
X125069600Y-86490683D02*
X125145800Y-86528783D01*
X125145800Y-86528783D02*
X125183900Y-86566883D01*
X125183900Y-86566883D02*
X125222000Y-86643083D01*
X125222000Y-86643083D02*
X125222000Y-86795483D01*
X125222000Y-86795483D02*
X125183900Y-86871683D01*
X125183900Y-86871683D02*
X125145800Y-86909783D01*
X125145800Y-86909783D02*
X125069600Y-86947883D01*
X125069600Y-86947883D02*
X124917200Y-86947883D01*
X124917200Y-86947883D02*
X124841000Y-86909783D01*
X124841000Y-86909783D02*
X124802900Y-86871683D01*
X124802900Y-86871683D02*
X124764800Y-86795483D01*
X124764800Y-86795483D02*
X124764800Y-86643083D01*
X124764800Y-86643083D02*
X124802900Y-86566883D01*
X124802900Y-86566883D02*
X124841000Y-86528783D01*
X124841000Y-86528783D02*
X124917200Y-86490683D01*
X126072900Y-97831783D02*
X126072900Y-98403283D01*
X126072900Y-98403283D02*
X126111000Y-98517583D01*
X126111000Y-98517583D02*
X126187200Y-98593783D01*
X126187200Y-98593783D02*
X126301500Y-98631883D01*
X126301500Y-98631883D02*
X126377700Y-98631883D01*
X125272800Y-98631883D02*
X125730000Y-98631883D01*
X125501400Y-98631883D02*
X125501400Y-97831783D01*
X125501400Y-97831783D02*
X125577600Y-97946083D01*
X125577600Y-97946083D02*
X125653800Y-98022283D01*
X125653800Y-98022283D02*
X125730000Y-98060383D01*
X124777500Y-97831783D02*
X124701300Y-97831783D01*
X124701300Y-97831783D02*
X124625100Y-97869883D01*
X124625100Y-97869883D02*
X124587000Y-97907983D01*
X124587000Y-97907983D02*
X124548900Y-97984183D01*
X124548900Y-97984183D02*
X124510800Y-98136583D01*
X124510800Y-98136583D02*
X124510800Y-98327083D01*
X124510800Y-98327083D02*
X124548900Y-98479483D01*
X124548900Y-98479483D02*
X124587000Y-98555683D01*
X124587000Y-98555683D02*
X124625100Y-98593783D01*
X124625100Y-98593783D02*
X124701300Y-98631883D01*
X124701300Y-98631883D02*
X124777500Y-98631883D01*
X124777500Y-98631883D02*
X124853700Y-98593783D01*
X124853700Y-98593783D02*
X124891800Y-98555683D01*
X124891800Y-98555683D02*
X124929900Y-98479483D01*
X124929900Y-98479483D02*
X124968000Y-98327083D01*
X124968000Y-98327083D02*
X124968000Y-98136583D01*
X124968000Y-98136583D02*
X124929900Y-97984183D01*
X124929900Y-97984183D02*
X124891800Y-97907983D01*
X124891800Y-97907983D02*
X124853700Y-97869883D01*
X124853700Y-97869883D02*
X124777500Y-97831783D01*
X149948900Y-120437783D02*
X149948900Y-121009283D01*
X149948900Y-121009283D02*
X149987000Y-121123583D01*
X149987000Y-121123583D02*
X150063200Y-121199783D01*
X150063200Y-121199783D02*
X150177500Y-121237883D01*
X150177500Y-121237883D02*
X150253700Y-121237883D01*
X149148800Y-121237883D02*
X149606000Y-121237883D01*
X149377400Y-121237883D02*
X149377400Y-120437783D01*
X149377400Y-120437783D02*
X149453600Y-120552083D01*
X149453600Y-120552083D02*
X149529800Y-120628283D01*
X149529800Y-120628283D02*
X149606000Y-120666383D01*
X148844000Y-120513983D02*
X148805900Y-120475883D01*
X148805900Y-120475883D02*
X148729700Y-120437783D01*
X148729700Y-120437783D02*
X148539200Y-120437783D01*
X148539200Y-120437783D02*
X148463000Y-120475883D01*
X148463000Y-120475883D02*
X148424900Y-120513983D01*
X148424900Y-120513983D02*
X148386800Y-120590183D01*
X148386800Y-120590183D02*
X148386800Y-120666383D01*
X148386800Y-120666383D02*
X148424900Y-120780683D01*
X148424900Y-120780683D02*
X148882100Y-121237883D01*
X148882100Y-121237883D02*
X148386800Y-121237883D01*
X152488900Y-120437783D02*
X152488900Y-121009283D01*
X152488900Y-121009283D02*
X152527000Y-121123583D01*
X152527000Y-121123583D02*
X152603200Y-121199783D01*
X152603200Y-121199783D02*
X152717500Y-121237883D01*
X152717500Y-121237883D02*
X152793700Y-121237883D01*
X152069800Y-121237883D02*
X151917400Y-121237883D01*
X151917400Y-121237883D02*
X151841200Y-121199783D01*
X151841200Y-121199783D02*
X151803100Y-121161683D01*
X151803100Y-121161683D02*
X151726900Y-121047383D01*
X151726900Y-121047383D02*
X151688800Y-120894983D01*
X151688800Y-120894983D02*
X151688800Y-120590183D01*
X151688800Y-120590183D02*
X151726900Y-120513983D01*
X151726900Y-120513983D02*
X151765000Y-120475883D01*
X151765000Y-120475883D02*
X151841200Y-120437783D01*
X151841200Y-120437783D02*
X151993600Y-120437783D01*
X151993600Y-120437783D02*
X152069800Y-120475883D01*
X152069800Y-120475883D02*
X152107900Y-120513983D01*
X152107900Y-120513983D02*
X152146000Y-120590183D01*
X152146000Y-120590183D02*
X152146000Y-120780683D01*
X152146000Y-120780683D02*
X152107900Y-120856883D01*
X152107900Y-120856883D02*
X152069800Y-120894983D01*
X152069800Y-120894983D02*
X151993600Y-120933083D01*
X151993600Y-120933083D02*
X151841200Y-120933083D01*
X151841200Y-120933083D02*
X151765000Y-120894983D01*
X151765000Y-120894983D02*
X151726900Y-120856883D01*
X151726900Y-120856883D02*
X151688800Y-120780683D01*
X152234900Y-123739783D02*
X152234900Y-124311283D01*
X152234900Y-124311283D02*
X152273000Y-124425583D01*
X152273000Y-124425583D02*
X152349200Y-124501783D01*
X152349200Y-124501783D02*
X152463500Y-124539883D01*
X152463500Y-124539883D02*
X152539700Y-124539883D01*
X151434800Y-124539883D02*
X151892000Y-124539883D01*
X151663400Y-124539883D02*
X151663400Y-123739783D01*
X151663400Y-123739783D02*
X151739600Y-123854083D01*
X151739600Y-123854083D02*
X151815800Y-123930283D01*
X151815800Y-123930283D02*
X151892000Y-123968383D01*
X127088900Y-126533783D02*
X127088900Y-127105283D01*
X127088900Y-127105283D02*
X127127000Y-127219583D01*
X127127000Y-127219583D02*
X127203200Y-127295783D01*
X127203200Y-127295783D02*
X127317500Y-127333883D01*
X127317500Y-127333883D02*
X127393700Y-127333883D01*
X126288800Y-127333883D02*
X126746000Y-127333883D01*
X126517400Y-127333883D02*
X126517400Y-126533783D01*
X126517400Y-126533783D02*
X126593600Y-126648083D01*
X126593600Y-126648083D02*
X126669800Y-126724283D01*
X126669800Y-126724283D02*
X126746000Y-126762383D01*
X125526800Y-127333883D02*
X125984000Y-127333883D01*
X125755400Y-127333883D02*
X125755400Y-126533783D01*
X125755400Y-126533783D02*
X125831600Y-126648083D01*
X125831600Y-126648083D02*
X125907800Y-126724283D01*
X125907800Y-126724283D02*
X125984000Y-126762383D01*
X130276600Y-120678321D02*
X130276600Y-121211721D01*
X130619500Y-120678321D02*
X130619500Y-121097421D01*
X130619500Y-121097421D02*
X130581400Y-121173621D01*
X130581400Y-121173621D02*
X130505200Y-121211721D01*
X130505200Y-121211721D02*
X130390900Y-121211721D01*
X130390900Y-121211721D02*
X130314700Y-121173621D01*
X130314700Y-121173621D02*
X130276600Y-121135521D01*
X129933700Y-121173621D02*
X129857500Y-121211721D01*
X129857500Y-121211721D02*
X129705100Y-121211721D01*
X129705100Y-121211721D02*
X129628900Y-121173621D01*
X129628900Y-121173621D02*
X129590800Y-121097421D01*
X129590800Y-121097421D02*
X129590800Y-121059321D01*
X129590800Y-121059321D02*
X129628900Y-120983121D01*
X129628900Y-120983121D02*
X129705100Y-120945021D01*
X129705100Y-120945021D02*
X129819400Y-120945021D01*
X129819400Y-120945021D02*
X129895600Y-120906921D01*
X129895600Y-120906921D02*
X129933700Y-120830721D01*
X129933700Y-120830721D02*
X129933700Y-120792621D01*
X129933700Y-120792621D02*
X129895600Y-120716421D01*
X129895600Y-120716421D02*
X129819400Y-120678321D01*
X129819400Y-120678321D02*
X129705100Y-120678321D01*
X129705100Y-120678321D02*
X129628900Y-120716421D01*
X128943100Y-121173621D02*
X129019300Y-121211721D01*
X129019300Y-121211721D02*
X129171700Y-121211721D01*
X129171700Y-121211721D02*
X129247900Y-121173621D01*
X129247900Y-121173621D02*
X129286000Y-121097421D01*
X129286000Y-121097421D02*
X129286000Y-120792621D01*
X129286000Y-120792621D02*
X129247900Y-120716421D01*
X129247900Y-120716421D02*
X129171700Y-120678321D01*
X129171700Y-120678321D02*
X129019300Y-120678321D01*
X129019300Y-120678321D02*
X128943100Y-120716421D01*
X128943100Y-120716421D02*
X128905000Y-120792621D01*
X128905000Y-120792621D02*
X128905000Y-120868821D01*
X128905000Y-120868821D02*
X129286000Y-120945021D01*
X127853440Y-120411621D02*
X127853440Y-120983121D01*
X127853440Y-120983121D02*
X127891540Y-121097421D01*
X127891540Y-121097421D02*
X127967740Y-121173621D01*
X127967740Y-121173621D02*
X128082040Y-121211721D01*
X128082040Y-121211721D02*
X128158240Y-121211721D01*
X127053340Y-121211721D02*
X127510540Y-121211721D01*
X127281940Y-121211721D02*
X127281940Y-120411621D01*
X127281940Y-120411621D02*
X127358140Y-120525921D01*
X127358140Y-120525921D02*
X127434340Y-120602121D01*
X127434340Y-120602121D02*
X127510540Y-120640221D01*
X126291340Y-121211721D02*
X126748540Y-121211721D01*
X126519940Y-121211721D02*
X126519940Y-120411621D01*
X126519940Y-120411621D02*
X126596140Y-120525921D01*
X126596140Y-120525921D02*
X126672340Y-120602121D01*
X126672340Y-120602121D02*
X126748540Y-120640221D01*
X125582680Y-120678321D02*
X125277880Y-120678321D01*
X125468380Y-121211721D02*
X125468380Y-120525921D01*
X125468380Y-120525921D02*
X125430280Y-120449721D01*
X125430280Y-120449721D02*
X125354080Y-120411621D01*
X125354080Y-120411621D02*
X125277880Y-120411621D01*
X124896880Y-121211721D02*
X124973080Y-121173621D01*
X124973080Y-121173621D02*
X125011180Y-121135521D01*
X125011180Y-121135521D02*
X125049280Y-121059321D01*
X125049280Y-121059321D02*
X125049280Y-120830721D01*
X125049280Y-120830721D02*
X125011180Y-120754521D01*
X125011180Y-120754521D02*
X124973080Y-120716421D01*
X124973080Y-120716421D02*
X124896880Y-120678321D01*
X124896880Y-120678321D02*
X124782580Y-120678321D01*
X124782580Y-120678321D02*
X124706380Y-120716421D01*
X124706380Y-120716421D02*
X124668280Y-120754521D01*
X124668280Y-120754521D02*
X124630180Y-120830721D01*
X124630180Y-120830721D02*
X124630180Y-121059321D01*
X124630180Y-121059321D02*
X124668280Y-121135521D01*
X124668280Y-121135521D02*
X124706380Y-121173621D01*
X124706380Y-121173621D02*
X124782580Y-121211721D01*
X124782580Y-121211721D02*
X124896880Y-121211721D01*
X124287280Y-121211721D02*
X124287280Y-120678321D01*
X124287280Y-120830721D02*
X124249180Y-120754521D01*
X124249180Y-120754521D02*
X124211080Y-120716421D01*
X124211080Y-120716421D02*
X124134880Y-120678321D01*
X124134880Y-120678321D02*
X124058680Y-120678321D01*
X130276600Y-121974483D02*
X130276600Y-122622183D01*
X130276600Y-122622183D02*
X130314700Y-122698383D01*
X130314700Y-122698383D02*
X130352800Y-122736483D01*
X130352800Y-122736483D02*
X130429000Y-122774583D01*
X130429000Y-122774583D02*
X130543300Y-122774583D01*
X130543300Y-122774583D02*
X130619500Y-122736483D01*
X130276600Y-122469783D02*
X130352800Y-122507883D01*
X130352800Y-122507883D02*
X130505200Y-122507883D01*
X130505200Y-122507883D02*
X130581400Y-122469783D01*
X130581400Y-122469783D02*
X130619500Y-122431683D01*
X130619500Y-122431683D02*
X130657600Y-122355483D01*
X130657600Y-122355483D02*
X130657600Y-122126883D01*
X130657600Y-122126883D02*
X130619500Y-122050683D01*
X130619500Y-122050683D02*
X130581400Y-122012583D01*
X130581400Y-122012583D02*
X130505200Y-121974483D01*
X130505200Y-121974483D02*
X130352800Y-121974483D01*
X130352800Y-121974483D02*
X130276600Y-122012583D01*
X129895600Y-121974483D02*
X129895600Y-122774583D01*
X129895600Y-122012583D02*
X129819400Y-121974483D01*
X129819400Y-121974483D02*
X129667000Y-121974483D01*
X129667000Y-121974483D02*
X129590800Y-122012583D01*
X129590800Y-122012583D02*
X129552700Y-122050683D01*
X129552700Y-122050683D02*
X129514600Y-122126883D01*
X129514600Y-122126883D02*
X129514600Y-122355483D01*
X129514600Y-122355483D02*
X129552700Y-122431683D01*
X129552700Y-122431683D02*
X129590800Y-122469783D01*
X129590800Y-122469783D02*
X129667000Y-122507883D01*
X129667000Y-122507883D02*
X129819400Y-122507883D01*
X129819400Y-122507883D02*
X129895600Y-122469783D01*
X129171700Y-122507883D02*
X129171700Y-121974483D01*
X129171700Y-121707783D02*
X129209800Y-121745883D01*
X129209800Y-121745883D02*
X129171700Y-121783983D01*
X129171700Y-121783983D02*
X129133600Y-121745883D01*
X129133600Y-121745883D02*
X129171700Y-121707783D01*
X129171700Y-121707783D02*
X129171700Y-121783983D01*
X128676400Y-122507883D02*
X128752600Y-122469783D01*
X128752600Y-122469783D02*
X128790700Y-122431683D01*
X128790700Y-122431683D02*
X128828800Y-122355483D01*
X128828800Y-122355483D02*
X128828800Y-122126883D01*
X128828800Y-122126883D02*
X128790700Y-122050683D01*
X128790700Y-122050683D02*
X128752600Y-122012583D01*
X128752600Y-122012583D02*
X128676400Y-121974483D01*
X128676400Y-121974483D02*
X128562100Y-121974483D01*
X128562100Y-121974483D02*
X128485900Y-122012583D01*
X128485900Y-122012583D02*
X128447800Y-122050683D01*
X128447800Y-122050683D02*
X128409700Y-122126883D01*
X128409700Y-122126883D02*
X128409700Y-122355483D01*
X128409700Y-122355483D02*
X128447800Y-122431683D01*
X128447800Y-122431683D02*
X128485900Y-122469783D01*
X128485900Y-122469783D02*
X128562100Y-122507883D01*
X128562100Y-122507883D02*
X128676400Y-122507883D01*
X127701040Y-121974483D02*
X127396240Y-121974483D01*
X127586740Y-121707783D02*
X127586740Y-122393583D01*
X127586740Y-122393583D02*
X127548640Y-122469783D01*
X127548640Y-122469783D02*
X127472440Y-122507883D01*
X127472440Y-122507883D02*
X127396240Y-122507883D01*
X127129540Y-122507883D02*
X127129540Y-121974483D01*
X127129540Y-122126883D02*
X127091440Y-122050683D01*
X127091440Y-122050683D02*
X127053340Y-122012583D01*
X127053340Y-122012583D02*
X126977140Y-121974483D01*
X126977140Y-121974483D02*
X126900940Y-121974483D01*
X126634240Y-122507883D02*
X126634240Y-121974483D01*
X126634240Y-121707783D02*
X126672340Y-121745883D01*
X126672340Y-121745883D02*
X126634240Y-121783983D01*
X126634240Y-121783983D02*
X126596140Y-121745883D01*
X126596140Y-121745883D02*
X126634240Y-121707783D01*
X126634240Y-121707783D02*
X126634240Y-121783983D01*
X125910340Y-121974483D02*
X125910340Y-122622183D01*
X125910340Y-122622183D02*
X125948440Y-122698383D01*
X125948440Y-122698383D02*
X125986540Y-122736483D01*
X125986540Y-122736483D02*
X126062740Y-122774583D01*
X126062740Y-122774583D02*
X126177040Y-122774583D01*
X126177040Y-122774583D02*
X126253240Y-122736483D01*
X125910340Y-122469783D02*
X125986540Y-122507883D01*
X125986540Y-122507883D02*
X126138940Y-122507883D01*
X126138940Y-122507883D02*
X126215140Y-122469783D01*
X126215140Y-122469783D02*
X126253240Y-122431683D01*
X126253240Y-122431683D02*
X126291340Y-122355483D01*
X126291340Y-122355483D02*
X126291340Y-122126883D01*
X126291340Y-122126883D02*
X126253240Y-122050683D01*
X126253240Y-122050683D02*
X126215140Y-122012583D01*
X126215140Y-122012583D02*
X126138940Y-121974483D01*
X126138940Y-121974483D02*
X125986540Y-121974483D01*
X125986540Y-121974483D02*
X125910340Y-122012583D01*
X149694900Y-122443621D02*
X149694900Y-123015121D01*
X149694900Y-123015121D02*
X149733000Y-123129421D01*
X149733000Y-123129421D02*
X149809200Y-123205621D01*
X149809200Y-123205621D02*
X149923500Y-123243721D01*
X149923500Y-123243721D02*
X149999700Y-123243721D01*
X148894800Y-123243721D02*
X149352000Y-123243721D01*
X149123400Y-123243721D02*
X149123400Y-122443621D01*
X149123400Y-122443621D02*
X149199600Y-122557921D01*
X149199600Y-122557921D02*
X149275800Y-122634121D01*
X149275800Y-122634121D02*
X149352000Y-122672221D01*
X147728940Y-123243721D02*
X147728940Y-122824621D01*
X147728940Y-122824621D02*
X147767040Y-122748421D01*
X147767040Y-122748421D02*
X147843240Y-122710321D01*
X147843240Y-122710321D02*
X147995640Y-122710321D01*
X147995640Y-122710321D02*
X148071840Y-122748421D01*
X147728940Y-123205621D02*
X147805140Y-123243721D01*
X147805140Y-123243721D02*
X147995640Y-123243721D01*
X147995640Y-123243721D02*
X148071840Y-123205621D01*
X148071840Y-123205621D02*
X148109940Y-123129421D01*
X148109940Y-123129421D02*
X148109940Y-123053221D01*
X148109940Y-123053221D02*
X148071840Y-122977021D01*
X148071840Y-122977021D02*
X147995640Y-122938921D01*
X147995640Y-122938921D02*
X147805140Y-122938921D01*
X147805140Y-122938921D02*
X147728940Y-122900821D01*
X147347940Y-122710321D02*
X147347940Y-123243721D01*
X147347940Y-122786521D02*
X147309840Y-122748421D01*
X147309840Y-122748421D02*
X147233640Y-122710321D01*
X147233640Y-122710321D02*
X147119340Y-122710321D01*
X147119340Y-122710321D02*
X147043140Y-122748421D01*
X147043140Y-122748421D02*
X147005040Y-122824621D01*
X147005040Y-122824621D02*
X147005040Y-123243721D01*
X146281140Y-123243721D02*
X146281140Y-122443621D01*
X146281140Y-123205621D02*
X146357340Y-123243721D01*
X146357340Y-123243721D02*
X146509740Y-123243721D01*
X146509740Y-123243721D02*
X146585940Y-123205621D01*
X146585940Y-123205621D02*
X146624040Y-123167521D01*
X146624040Y-123167521D02*
X146662140Y-123091321D01*
X146662140Y-123091321D02*
X146662140Y-122862721D01*
X146662140Y-122862721D02*
X146624040Y-122786521D01*
X146624040Y-122786521D02*
X146585940Y-122748421D01*
X146585940Y-122748421D02*
X146509740Y-122710321D01*
X146509740Y-122710321D02*
X146357340Y-122710321D01*
X146357340Y-122710321D02*
X146281140Y-122748421D01*
X145420080Y-122710321D02*
X145420080Y-123510421D01*
X145420080Y-122748421D02*
X145343880Y-122710321D01*
X145343880Y-122710321D02*
X145191480Y-122710321D01*
X145191480Y-122710321D02*
X145115280Y-122748421D01*
X145115280Y-122748421D02*
X145077180Y-122786521D01*
X145077180Y-122786521D02*
X145039080Y-122862721D01*
X145039080Y-122862721D02*
X145039080Y-123091321D01*
X145039080Y-123091321D02*
X145077180Y-123167521D01*
X145077180Y-123167521D02*
X145115280Y-123205621D01*
X145115280Y-123205621D02*
X145191480Y-123243721D01*
X145191480Y-123243721D02*
X145343880Y-123243721D01*
X145343880Y-123243721D02*
X145420080Y-123205621D01*
X144696180Y-123243721D02*
X144696180Y-122710321D01*
X144696180Y-122443621D02*
X144734280Y-122481721D01*
X144734280Y-122481721D02*
X144696180Y-122519821D01*
X144696180Y-122519821D02*
X144658080Y-122481721D01*
X144658080Y-122481721D02*
X144696180Y-122443621D01*
X144696180Y-122443621D02*
X144696180Y-122519821D01*
X143972280Y-123205621D02*
X144048480Y-123243721D01*
X144048480Y-123243721D02*
X144200880Y-123243721D01*
X144200880Y-123243721D02*
X144277080Y-123205621D01*
X144277080Y-123205621D02*
X144315180Y-123167521D01*
X144315180Y-123167521D02*
X144353280Y-123091321D01*
X144353280Y-123091321D02*
X144353280Y-122862721D01*
X144353280Y-122862721D02*
X144315180Y-122786521D01*
X144315180Y-122786521D02*
X144277080Y-122748421D01*
X144277080Y-122748421D02*
X144200880Y-122710321D01*
X144200880Y-122710321D02*
X144048480Y-122710321D01*
X144048480Y-122710321D02*
X143972280Y-122748421D01*
X143515080Y-123243721D02*
X143591280Y-123205621D01*
X143591280Y-123205621D02*
X143629380Y-123167521D01*
X143629380Y-123167521D02*
X143667480Y-123091321D01*
X143667480Y-123091321D02*
X143667480Y-122862721D01*
X143667480Y-122862721D02*
X143629380Y-122786521D01*
X143629380Y-122786521D02*
X143591280Y-122748421D01*
X143591280Y-122748421D02*
X143515080Y-122710321D01*
X143515080Y-122710321D02*
X143400780Y-122710321D01*
X143400780Y-122710321D02*
X143324580Y-122748421D01*
X143324580Y-122748421D02*
X143286480Y-122786521D01*
X143286480Y-122786521D02*
X143248380Y-122862721D01*
X143248380Y-122862721D02*
X143248380Y-123091321D01*
X143248380Y-123091321D02*
X143286480Y-123167521D01*
X143286480Y-123167521D02*
X143324580Y-123205621D01*
X143324580Y-123205621D02*
X143400780Y-123243721D01*
X143400780Y-123243721D02*
X143515080Y-123243721D01*
X142425420Y-122710321D02*
X142425420Y-123510421D01*
X142425420Y-122748421D02*
X142349220Y-122710321D01*
X142349220Y-122710321D02*
X142196820Y-122710321D01*
X142196820Y-122710321D02*
X142120620Y-122748421D01*
X142120620Y-122748421D02*
X142082520Y-122786521D01*
X142082520Y-122786521D02*
X142044420Y-122862721D01*
X142044420Y-122862721D02*
X142044420Y-123091321D01*
X142044420Y-123091321D02*
X142082520Y-123167521D01*
X142082520Y-123167521D02*
X142120620Y-123205621D01*
X142120620Y-123205621D02*
X142196820Y-123243721D01*
X142196820Y-123243721D02*
X142349220Y-123243721D01*
X142349220Y-123243721D02*
X142425420Y-123205621D01*
X141701520Y-123243721D02*
X141701520Y-122710321D01*
X141701520Y-122443621D02*
X141739620Y-122481721D01*
X141739620Y-122481721D02*
X141701520Y-122519821D01*
X141701520Y-122519821D02*
X141663420Y-122481721D01*
X141663420Y-122481721D02*
X141701520Y-122443621D01*
X141701520Y-122443621D02*
X141701520Y-122519821D01*
X141320520Y-122710321D02*
X141320520Y-123243721D01*
X141320520Y-122786521D02*
X141282420Y-122748421D01*
X141282420Y-122748421D02*
X141206220Y-122710321D01*
X141206220Y-122710321D02*
X141091920Y-122710321D01*
X141091920Y-122710321D02*
X141015720Y-122748421D01*
X141015720Y-122748421D02*
X140977620Y-122824621D01*
X140977620Y-122824621D02*
X140977620Y-123243721D01*
X140634720Y-123205621D02*
X140558520Y-123243721D01*
X140558520Y-123243721D02*
X140406120Y-123243721D01*
X140406120Y-123243721D02*
X140329920Y-123205621D01*
X140329920Y-123205621D02*
X140291820Y-123129421D01*
X140291820Y-123129421D02*
X140291820Y-123091321D01*
X140291820Y-123091321D02*
X140329920Y-123015121D01*
X140329920Y-123015121D02*
X140406120Y-122977021D01*
X140406120Y-122977021D02*
X140520420Y-122977021D01*
X140520420Y-122977021D02*
X140596620Y-122938921D01*
X140596620Y-122938921D02*
X140634720Y-122862721D01*
X140634720Y-122862721D02*
X140634720Y-122824621D01*
X140634720Y-122824621D02*
X140596620Y-122748421D01*
X140596620Y-122748421D02*
X140520420Y-122710321D01*
X140520420Y-122710321D02*
X140406120Y-122710321D01*
X140406120Y-122710321D02*
X140329920Y-122748421D01*
X139354560Y-123243721D02*
X139430760Y-123205621D01*
X139430760Y-123205621D02*
X139468860Y-123129421D01*
X139468860Y-123129421D02*
X139468860Y-122443621D01*
X139049760Y-123243721D02*
X139049760Y-122710321D01*
X139049760Y-122443621D02*
X139087860Y-122481721D01*
X139087860Y-122481721D02*
X139049760Y-122519821D01*
X139049760Y-122519821D02*
X139011660Y-122481721D01*
X139011660Y-122481721D02*
X139049760Y-122443621D01*
X139049760Y-122443621D02*
X139049760Y-122519821D01*
X138668760Y-122710321D02*
X138668760Y-123243721D01*
X138668760Y-122786521D02*
X138630660Y-122748421D01*
X138630660Y-122748421D02*
X138554460Y-122710321D01*
X138554460Y-122710321D02*
X138440160Y-122710321D01*
X138440160Y-122710321D02*
X138363960Y-122748421D01*
X138363960Y-122748421D02*
X138325860Y-122824621D01*
X138325860Y-122824621D02*
X138325860Y-123243721D01*
X137640060Y-123205621D02*
X137716260Y-123243721D01*
X137716260Y-123243721D02*
X137868660Y-123243721D01*
X137868660Y-123243721D02*
X137944860Y-123205621D01*
X137944860Y-123205621D02*
X137982960Y-123129421D01*
X137982960Y-123129421D02*
X137982960Y-122824621D01*
X137982960Y-122824621D02*
X137944860Y-122748421D01*
X137944860Y-122748421D02*
X137868660Y-122710321D01*
X137868660Y-122710321D02*
X137716260Y-122710321D01*
X137716260Y-122710321D02*
X137640060Y-122748421D01*
X137640060Y-122748421D02*
X137601960Y-122824621D01*
X137601960Y-122824621D02*
X137601960Y-122900821D01*
X137601960Y-122900821D02*
X137982960Y-122977021D01*
X136436100Y-122710321D02*
X136436100Y-123243721D01*
X136779000Y-122710321D02*
X136779000Y-123129421D01*
X136779000Y-123129421D02*
X136740900Y-123205621D01*
X136740900Y-123205621D02*
X136664700Y-123243721D01*
X136664700Y-123243721D02*
X136550400Y-123243721D01*
X136550400Y-123243721D02*
X136474200Y-123205621D01*
X136474200Y-123205621D02*
X136436100Y-123167521D01*
X136055100Y-122710321D02*
X136055100Y-123510421D01*
X136055100Y-122748421D02*
X135978900Y-122710321D01*
X135978900Y-122710321D02*
X135826500Y-122710321D01*
X135826500Y-122710321D02*
X135750300Y-122748421D01*
X135750300Y-122748421D02*
X135712200Y-122786521D01*
X135712200Y-122786521D02*
X135674100Y-122862721D01*
X135674100Y-122862721D02*
X135674100Y-123091321D01*
X135674100Y-123091321D02*
X135712200Y-123167521D01*
X135712200Y-123167521D02*
X135750300Y-123205621D01*
X135750300Y-123205621D02*
X135826500Y-123243721D01*
X135826500Y-123243721D02*
X135978900Y-123243721D01*
X135978900Y-123243721D02*
X136055100Y-123205621D01*
X149694900Y-124844683D02*
X149733000Y-124806583D01*
X149733000Y-124806583D02*
X149809200Y-124692283D01*
X149809200Y-124692283D02*
X149847300Y-124616083D01*
X149847300Y-124616083D02*
X149885400Y-124501783D01*
X149885400Y-124501783D02*
X149923500Y-124311283D01*
X149923500Y-124311283D02*
X149923500Y-124158883D01*
X149923500Y-124158883D02*
X149885400Y-123968383D01*
X149885400Y-123968383D02*
X149847300Y-123854083D01*
X149847300Y-123854083D02*
X149809200Y-123777883D01*
X149809200Y-123777883D02*
X149733000Y-123663583D01*
X149733000Y-123663583D02*
X149694900Y-123625483D01*
X149428200Y-124501783D02*
X149352000Y-124539883D01*
X149352000Y-124539883D02*
X149199600Y-124539883D01*
X149199600Y-124539883D02*
X149123400Y-124501783D01*
X149123400Y-124501783D02*
X149085300Y-124425583D01*
X149085300Y-124425583D02*
X149085300Y-124387483D01*
X149085300Y-124387483D02*
X149123400Y-124311283D01*
X149123400Y-124311283D02*
X149199600Y-124273183D01*
X149199600Y-124273183D02*
X149313900Y-124273183D01*
X149313900Y-124273183D02*
X149390100Y-124235083D01*
X149390100Y-124235083D02*
X149428200Y-124158883D01*
X149428200Y-124158883D02*
X149428200Y-124120783D01*
X149428200Y-124120783D02*
X149390100Y-124044583D01*
X149390100Y-124044583D02*
X149313900Y-124006483D01*
X149313900Y-124006483D02*
X149199600Y-124006483D01*
X149199600Y-124006483D02*
X149123400Y-124044583D01*
X148856700Y-124006483D02*
X148551900Y-124006483D01*
X148742400Y-123739783D02*
X148742400Y-124425583D01*
X148742400Y-124425583D02*
X148704300Y-124501783D01*
X148704300Y-124501783D02*
X148628100Y-124539883D01*
X148628100Y-124539883D02*
X148551900Y-124539883D01*
X147942300Y-124539883D02*
X147942300Y-124120783D01*
X147942300Y-124120783D02*
X147980400Y-124044583D01*
X147980400Y-124044583D02*
X148056600Y-124006483D01*
X148056600Y-124006483D02*
X148209000Y-124006483D01*
X148209000Y-124006483D02*
X148285200Y-124044583D01*
X147942300Y-124501783D02*
X148018500Y-124539883D01*
X148018500Y-124539883D02*
X148209000Y-124539883D01*
X148209000Y-124539883D02*
X148285200Y-124501783D01*
X148285200Y-124501783D02*
X148323300Y-124425583D01*
X148323300Y-124425583D02*
X148323300Y-124349383D01*
X148323300Y-124349383D02*
X148285200Y-124273183D01*
X148285200Y-124273183D02*
X148209000Y-124235083D01*
X148209000Y-124235083D02*
X148018500Y-124235083D01*
X148018500Y-124235083D02*
X147942300Y-124196983D01*
X147561300Y-124539883D02*
X147561300Y-124006483D01*
X147561300Y-124158883D02*
X147523200Y-124082683D01*
X147523200Y-124082683D02*
X147485100Y-124044583D01*
X147485100Y-124044583D02*
X147408900Y-124006483D01*
X147408900Y-124006483D02*
X147332700Y-124006483D01*
X147180300Y-124006483D02*
X146875500Y-124006483D01*
X147066000Y-123739783D02*
X147066000Y-124425583D01*
X147066000Y-124425583D02*
X147027900Y-124501783D01*
X147027900Y-124501783D02*
X146951700Y-124539883D01*
X146951700Y-124539883D02*
X146875500Y-124539883D01*
X146608800Y-124539883D02*
X146608800Y-124006483D01*
X146608800Y-123739783D02*
X146646900Y-123777883D01*
X146646900Y-123777883D02*
X146608800Y-123815983D01*
X146608800Y-123815983D02*
X146570700Y-123777883D01*
X146570700Y-123777883D02*
X146608800Y-123739783D01*
X146608800Y-123739783D02*
X146608800Y-123815983D01*
X146227800Y-124006483D02*
X146227800Y-124539883D01*
X146227800Y-124082683D02*
X146189700Y-124044583D01*
X146189700Y-124044583D02*
X146113500Y-124006483D01*
X146113500Y-124006483D02*
X145999200Y-124006483D01*
X145999200Y-124006483D02*
X145923000Y-124044583D01*
X145923000Y-124044583D02*
X145884900Y-124120783D01*
X145884900Y-124120783D02*
X145884900Y-124539883D01*
X145161000Y-124006483D02*
X145161000Y-124654183D01*
X145161000Y-124654183D02*
X145199100Y-124730383D01*
X145199100Y-124730383D02*
X145237200Y-124768483D01*
X145237200Y-124768483D02*
X145313400Y-124806583D01*
X145313400Y-124806583D02*
X145427700Y-124806583D01*
X145427700Y-124806583D02*
X145503900Y-124768483D01*
X145161000Y-124501783D02*
X145237200Y-124539883D01*
X145237200Y-124539883D02*
X145389600Y-124539883D01*
X145389600Y-124539883D02*
X145465800Y-124501783D01*
X145465800Y-124501783D02*
X145503900Y-124463683D01*
X145503900Y-124463683D02*
X145542000Y-124387483D01*
X145542000Y-124387483D02*
X145542000Y-124158883D01*
X145542000Y-124158883D02*
X145503900Y-124082683D01*
X145503900Y-124082683D02*
X145465800Y-124044583D01*
X145465800Y-124044583D02*
X145389600Y-124006483D01*
X145389600Y-124006483D02*
X145237200Y-124006483D01*
X145237200Y-124006483D02*
X145161000Y-124044583D01*
X143957040Y-124539883D02*
X143957040Y-124120783D01*
X143957040Y-124120783D02*
X143995140Y-124044583D01*
X143995140Y-124044583D02*
X144071340Y-124006483D01*
X144071340Y-124006483D02*
X144223740Y-124006483D01*
X144223740Y-124006483D02*
X144299940Y-124044583D01*
X143957040Y-124501783D02*
X144033240Y-124539883D01*
X144033240Y-124539883D02*
X144223740Y-124539883D01*
X144223740Y-124539883D02*
X144299940Y-124501783D01*
X144299940Y-124501783D02*
X144338040Y-124425583D01*
X144338040Y-124425583D02*
X144338040Y-124349383D01*
X144338040Y-124349383D02*
X144299940Y-124273183D01*
X144299940Y-124273183D02*
X144223740Y-124235083D01*
X144223740Y-124235083D02*
X144033240Y-124235083D01*
X144033240Y-124235083D02*
X143957040Y-124196983D01*
X143690340Y-124006483D02*
X143385540Y-124006483D01*
X143576040Y-123739783D02*
X143576040Y-124425583D01*
X143576040Y-124425583D02*
X143537940Y-124501783D01*
X143537940Y-124501783D02*
X143461740Y-124539883D01*
X143461740Y-124539883D02*
X143385540Y-124539883D01*
X142638780Y-124006483D02*
X142638780Y-124806583D01*
X142638780Y-124044583D02*
X142562580Y-124006483D01*
X142562580Y-124006483D02*
X142410180Y-124006483D01*
X142410180Y-124006483D02*
X142333980Y-124044583D01*
X142333980Y-124044583D02*
X142295880Y-124082683D01*
X142295880Y-124082683D02*
X142257780Y-124158883D01*
X142257780Y-124158883D02*
X142257780Y-124387483D01*
X142257780Y-124387483D02*
X142295880Y-124463683D01*
X142295880Y-124463683D02*
X142333980Y-124501783D01*
X142333980Y-124501783D02*
X142410180Y-124539883D01*
X142410180Y-124539883D02*
X142562580Y-124539883D01*
X142562580Y-124539883D02*
X142638780Y-124501783D01*
X141914880Y-124539883D02*
X141914880Y-124006483D01*
X141914880Y-123739783D02*
X141952980Y-123777883D01*
X141952980Y-123777883D02*
X141914880Y-123815983D01*
X141914880Y-123815983D02*
X141876780Y-123777883D01*
X141876780Y-123777883D02*
X141914880Y-123739783D01*
X141914880Y-123739783D02*
X141914880Y-123815983D01*
X141533880Y-124006483D02*
X141533880Y-124539883D01*
X141533880Y-124082683D02*
X141495780Y-124044583D01*
X141495780Y-124044583D02*
X141419580Y-124006483D01*
X141419580Y-124006483D02*
X141305280Y-124006483D01*
X141305280Y-124006483D02*
X141229080Y-124044583D01*
X141229080Y-124044583D02*
X141190980Y-124120783D01*
X141190980Y-124120783D02*
X141190980Y-124539883D01*
X140101320Y-123739783D02*
X140101320Y-124311283D01*
X140101320Y-124311283D02*
X140139420Y-124425583D01*
X140139420Y-124425583D02*
X140215620Y-124501783D01*
X140215620Y-124501783D02*
X140329920Y-124539883D01*
X140329920Y-124539883D02*
X140406120Y-124539883D01*
X139301220Y-124539883D02*
X139758420Y-124539883D01*
X139529820Y-124539883D02*
X139529820Y-123739783D01*
X139529820Y-123739783D02*
X139606020Y-123854083D01*
X139606020Y-123854083D02*
X139682220Y-123930283D01*
X139682220Y-123930283D02*
X139758420Y-123968383D01*
X138958320Y-124235083D02*
X138348720Y-124235083D01*
X138005820Y-123815983D02*
X137967720Y-123777883D01*
X137967720Y-123777883D02*
X137891520Y-123739783D01*
X137891520Y-123739783D02*
X137701020Y-123739783D01*
X137701020Y-123739783D02*
X137624820Y-123777883D01*
X137624820Y-123777883D02*
X137586720Y-123815983D01*
X137586720Y-123815983D02*
X137548620Y-123892183D01*
X137548620Y-123892183D02*
X137548620Y-123968383D01*
X137548620Y-123968383D02*
X137586720Y-124082683D01*
X137586720Y-124082683D02*
X138043920Y-124539883D01*
X138043920Y-124539883D02*
X137548620Y-124539883D01*
X137281920Y-124844683D02*
X137243820Y-124806583D01*
X137243820Y-124806583D02*
X137167620Y-124692283D01*
X137167620Y-124692283D02*
X137129520Y-124616083D01*
X137129520Y-124616083D02*
X137091420Y-124501783D01*
X137091420Y-124501783D02*
X137053320Y-124311283D01*
X137053320Y-124311283D02*
X137053320Y-124158883D01*
X137053320Y-124158883D02*
X137091420Y-123968383D01*
X137091420Y-123968383D02*
X137129520Y-123854083D01*
X137129520Y-123854083D02*
X137167620Y-123777883D01*
X137167620Y-123777883D02*
X137243820Y-123663583D01*
X137243820Y-123663583D02*
X137281920Y-123625483D01*
X147855940Y-114823621D02*
X147932140Y-114861721D01*
X147932140Y-114861721D02*
X148084540Y-114861721D01*
X148084540Y-114861721D02*
X148160740Y-114823621D01*
X148160740Y-114823621D02*
X148198840Y-114785521D01*
X148198840Y-114785521D02*
X148236940Y-114709321D01*
X148236940Y-114709321D02*
X148236940Y-114480721D01*
X148236940Y-114480721D02*
X148198840Y-114404521D01*
X148198840Y-114404521D02*
X148160740Y-114366421D01*
X148160740Y-114366421D02*
X148084540Y-114328321D01*
X148084540Y-114328321D02*
X147932140Y-114328321D01*
X147932140Y-114328321D02*
X147855940Y-114366421D01*
X147170140Y-114328321D02*
X147170140Y-114861721D01*
X147513040Y-114328321D02*
X147513040Y-114747421D01*
X147513040Y-114747421D02*
X147474940Y-114823621D01*
X147474940Y-114823621D02*
X147398740Y-114861721D01*
X147398740Y-114861721D02*
X147284440Y-114861721D01*
X147284440Y-114861721D02*
X147208240Y-114823621D01*
X147208240Y-114823621D02*
X147170140Y-114785521D01*
X146903440Y-114328321D02*
X146598640Y-114328321D01*
X146789140Y-114061621D02*
X146789140Y-114747421D01*
X146789140Y-114747421D02*
X146751040Y-114823621D01*
X146751040Y-114823621D02*
X146674840Y-114861721D01*
X146674840Y-114861721D02*
X146598640Y-114861721D01*
X145623280Y-114061621D02*
X145623280Y-114633121D01*
X145623280Y-114633121D02*
X145661380Y-114747421D01*
X145661380Y-114747421D02*
X145737580Y-114823621D01*
X145737580Y-114823621D02*
X145851880Y-114861721D01*
X145851880Y-114861721D02*
X145928080Y-114861721D01*
X144823180Y-114861721D02*
X145280380Y-114861721D01*
X145051780Y-114861721D02*
X145051780Y-114061621D01*
X145051780Y-114061621D02*
X145127980Y-114175921D01*
X145127980Y-114175921D02*
X145204180Y-114252121D01*
X145204180Y-114252121D02*
X145280380Y-114290221D01*
X144518380Y-114137821D02*
X144480280Y-114099721D01*
X144480280Y-114099721D02*
X144404080Y-114061621D01*
X144404080Y-114061621D02*
X144213580Y-114061621D01*
X144213580Y-114061621D02*
X144137380Y-114099721D01*
X144137380Y-114099721D02*
X144099280Y-114137821D01*
X144099280Y-114137821D02*
X144061180Y-114214021D01*
X144061180Y-114214021D02*
X144061180Y-114290221D01*
X144061180Y-114290221D02*
X144099280Y-114404521D01*
X144099280Y-114404521D02*
X144556480Y-114861721D01*
X144556480Y-114861721D02*
X144061180Y-114861721D01*
X143238220Y-114861721D02*
X143238220Y-114061621D01*
X143238220Y-114366421D02*
X143162020Y-114328321D01*
X143162020Y-114328321D02*
X143009620Y-114328321D01*
X143009620Y-114328321D02*
X142933420Y-114366421D01*
X142933420Y-114366421D02*
X142895320Y-114404521D01*
X142895320Y-114404521D02*
X142857220Y-114480721D01*
X142857220Y-114480721D02*
X142857220Y-114709321D01*
X142857220Y-114709321D02*
X142895320Y-114785521D01*
X142895320Y-114785521D02*
X142933420Y-114823621D01*
X142933420Y-114823621D02*
X143009620Y-114861721D01*
X143009620Y-114861721D02*
X143162020Y-114861721D01*
X143162020Y-114861721D02*
X143238220Y-114823621D01*
X142171420Y-114861721D02*
X142171420Y-114442621D01*
X142171420Y-114442621D02*
X142209520Y-114366421D01*
X142209520Y-114366421D02*
X142285720Y-114328321D01*
X142285720Y-114328321D02*
X142438120Y-114328321D01*
X142438120Y-114328321D02*
X142514320Y-114366421D01*
X142171420Y-114823621D02*
X142247620Y-114861721D01*
X142247620Y-114861721D02*
X142438120Y-114861721D01*
X142438120Y-114861721D02*
X142514320Y-114823621D01*
X142514320Y-114823621D02*
X142552420Y-114747421D01*
X142552420Y-114747421D02*
X142552420Y-114671221D01*
X142552420Y-114671221D02*
X142514320Y-114595021D01*
X142514320Y-114595021D02*
X142438120Y-114556921D01*
X142438120Y-114556921D02*
X142247620Y-114556921D01*
X142247620Y-114556921D02*
X142171420Y-114518821D01*
X141447520Y-114823621D02*
X141523720Y-114861721D01*
X141523720Y-114861721D02*
X141676120Y-114861721D01*
X141676120Y-114861721D02*
X141752320Y-114823621D01*
X141752320Y-114823621D02*
X141790420Y-114785521D01*
X141790420Y-114785521D02*
X141828520Y-114709321D01*
X141828520Y-114709321D02*
X141828520Y-114480721D01*
X141828520Y-114480721D02*
X141790420Y-114404521D01*
X141790420Y-114404521D02*
X141752320Y-114366421D01*
X141752320Y-114366421D02*
X141676120Y-114328321D01*
X141676120Y-114328321D02*
X141523720Y-114328321D01*
X141523720Y-114328321D02*
X141447520Y-114366421D01*
X141104620Y-114861721D02*
X141104620Y-114061621D01*
X141028420Y-114556921D02*
X140799820Y-114861721D01*
X140799820Y-114328321D02*
X141104620Y-114633121D01*
X140456920Y-114556921D02*
X139847320Y-114556921D01*
X139504420Y-114823621D02*
X139428220Y-114861721D01*
X139428220Y-114861721D02*
X139275820Y-114861721D01*
X139275820Y-114861721D02*
X139199620Y-114823621D01*
X139199620Y-114823621D02*
X139161520Y-114747421D01*
X139161520Y-114747421D02*
X139161520Y-114709321D01*
X139161520Y-114709321D02*
X139199620Y-114633121D01*
X139199620Y-114633121D02*
X139275820Y-114595021D01*
X139275820Y-114595021D02*
X139390120Y-114595021D01*
X139390120Y-114595021D02*
X139466320Y-114556921D01*
X139466320Y-114556921D02*
X139504420Y-114480721D01*
X139504420Y-114480721D02*
X139504420Y-114442621D01*
X139504420Y-114442621D02*
X139466320Y-114366421D01*
X139466320Y-114366421D02*
X139390120Y-114328321D01*
X139390120Y-114328321D02*
X139275820Y-114328321D01*
X139275820Y-114328321D02*
X139199620Y-114366421D01*
X138818620Y-114861721D02*
X138818620Y-114328321D01*
X138818620Y-114061621D02*
X138856720Y-114099721D01*
X138856720Y-114099721D02*
X138818620Y-114137821D01*
X138818620Y-114137821D02*
X138780520Y-114099721D01*
X138780520Y-114099721D02*
X138818620Y-114061621D01*
X138818620Y-114061621D02*
X138818620Y-114137821D01*
X138094720Y-114861721D02*
X138094720Y-114061621D01*
X138094720Y-114823621D02*
X138170920Y-114861721D01*
X138170920Y-114861721D02*
X138323320Y-114861721D01*
X138323320Y-114861721D02*
X138399520Y-114823621D01*
X138399520Y-114823621D02*
X138437620Y-114785521D01*
X138437620Y-114785521D02*
X138475720Y-114709321D01*
X138475720Y-114709321D02*
X138475720Y-114480721D01*
X138475720Y-114480721D02*
X138437620Y-114404521D01*
X138437620Y-114404521D02*
X138399520Y-114366421D01*
X138399520Y-114366421D02*
X138323320Y-114328321D01*
X138323320Y-114328321D02*
X138170920Y-114328321D01*
X138170920Y-114328321D02*
X138094720Y-114366421D01*
X137408920Y-114823621D02*
X137485120Y-114861721D01*
X137485120Y-114861721D02*
X137637520Y-114861721D01*
X137637520Y-114861721D02*
X137713720Y-114823621D01*
X137713720Y-114823621D02*
X137751820Y-114747421D01*
X137751820Y-114747421D02*
X137751820Y-114442621D01*
X137751820Y-114442621D02*
X137713720Y-114366421D01*
X137713720Y-114366421D02*
X137637520Y-114328321D01*
X137637520Y-114328321D02*
X137485120Y-114328321D01*
X137485120Y-114328321D02*
X137408920Y-114366421D01*
X137408920Y-114366421D02*
X137370820Y-114442621D01*
X137370820Y-114442621D02*
X137370820Y-114518821D01*
X137370820Y-114518821D02*
X137751820Y-114595021D01*
X136662160Y-114328321D02*
X136357360Y-114328321D01*
X136547860Y-114061621D02*
X136547860Y-114747421D01*
X136547860Y-114747421D02*
X136509760Y-114823621D01*
X136509760Y-114823621D02*
X136433560Y-114861721D01*
X136433560Y-114861721D02*
X136357360Y-114861721D01*
X136090660Y-114861721D02*
X136090660Y-114328321D01*
X136090660Y-114480721D02*
X136052560Y-114404521D01*
X136052560Y-114404521D02*
X136014460Y-114366421D01*
X136014460Y-114366421D02*
X135938260Y-114328321D01*
X135938260Y-114328321D02*
X135862060Y-114328321D01*
X135252460Y-114861721D02*
X135252460Y-114442621D01*
X135252460Y-114442621D02*
X135290560Y-114366421D01*
X135290560Y-114366421D02*
X135366760Y-114328321D01*
X135366760Y-114328321D02*
X135519160Y-114328321D01*
X135519160Y-114328321D02*
X135595360Y-114366421D01*
X135252460Y-114823621D02*
X135328660Y-114861721D01*
X135328660Y-114861721D02*
X135519160Y-114861721D01*
X135519160Y-114861721D02*
X135595360Y-114823621D01*
X135595360Y-114823621D02*
X135633460Y-114747421D01*
X135633460Y-114747421D02*
X135633460Y-114671221D01*
X135633460Y-114671221D02*
X135595360Y-114595021D01*
X135595360Y-114595021D02*
X135519160Y-114556921D01*
X135519160Y-114556921D02*
X135328660Y-114556921D01*
X135328660Y-114556921D02*
X135252460Y-114518821D01*
X134528560Y-114823621D02*
X134604760Y-114861721D01*
X134604760Y-114861721D02*
X134757160Y-114861721D01*
X134757160Y-114861721D02*
X134833360Y-114823621D01*
X134833360Y-114823621D02*
X134871460Y-114785521D01*
X134871460Y-114785521D02*
X134909560Y-114709321D01*
X134909560Y-114709321D02*
X134909560Y-114480721D01*
X134909560Y-114480721D02*
X134871460Y-114404521D01*
X134871460Y-114404521D02*
X134833360Y-114366421D01*
X134833360Y-114366421D02*
X134757160Y-114328321D01*
X134757160Y-114328321D02*
X134604760Y-114328321D01*
X134604760Y-114328321D02*
X134528560Y-114366421D01*
X133880860Y-114823621D02*
X133957060Y-114861721D01*
X133957060Y-114861721D02*
X134109460Y-114861721D01*
X134109460Y-114861721D02*
X134185660Y-114823621D01*
X134185660Y-114823621D02*
X134223760Y-114747421D01*
X134223760Y-114747421D02*
X134223760Y-114442621D01*
X134223760Y-114442621D02*
X134185660Y-114366421D01*
X134185660Y-114366421D02*
X134109460Y-114328321D01*
X134109460Y-114328321D02*
X133957060Y-114328321D01*
X133957060Y-114328321D02*
X133880860Y-114366421D01*
X133880860Y-114366421D02*
X133842760Y-114442621D01*
X133842760Y-114442621D02*
X133842760Y-114518821D01*
X133842760Y-114518821D02*
X134223760Y-114595021D01*
X133537960Y-114823621D02*
X133461760Y-114861721D01*
X133461760Y-114861721D02*
X133309360Y-114861721D01*
X133309360Y-114861721D02*
X133233160Y-114823621D01*
X133233160Y-114823621D02*
X133195060Y-114747421D01*
X133195060Y-114747421D02*
X133195060Y-114709321D01*
X133195060Y-114709321D02*
X133233160Y-114633121D01*
X133233160Y-114633121D02*
X133309360Y-114595021D01*
X133309360Y-114595021D02*
X133423660Y-114595021D01*
X133423660Y-114595021D02*
X133499860Y-114556921D01*
X133499860Y-114556921D02*
X133537960Y-114480721D01*
X133537960Y-114480721D02*
X133537960Y-114442621D01*
X133537960Y-114442621D02*
X133499860Y-114366421D01*
X133499860Y-114366421D02*
X133423660Y-114328321D01*
X133423660Y-114328321D02*
X133309360Y-114328321D01*
X133309360Y-114328321D02*
X133233160Y-114366421D01*
X147532090Y-115624483D02*
X147227290Y-115624483D01*
X147417790Y-115357783D02*
X147417790Y-116043583D01*
X147417790Y-116043583D02*
X147379690Y-116119783D01*
X147379690Y-116119783D02*
X147303490Y-116157883D01*
X147303490Y-116157883D02*
X147227290Y-116157883D01*
X146846290Y-116157883D02*
X146922490Y-116119783D01*
X146922490Y-116119783D02*
X146960590Y-116081683D01*
X146960590Y-116081683D02*
X146998690Y-116005483D01*
X146998690Y-116005483D02*
X146998690Y-115776883D01*
X146998690Y-115776883D02*
X146960590Y-115700683D01*
X146960590Y-115700683D02*
X146922490Y-115662583D01*
X146922490Y-115662583D02*
X146846290Y-115624483D01*
X146846290Y-115624483D02*
X146731990Y-115624483D01*
X146731990Y-115624483D02*
X146655790Y-115662583D01*
X146655790Y-115662583D02*
X146617690Y-115700683D01*
X146617690Y-115700683D02*
X146579590Y-115776883D01*
X146579590Y-115776883D02*
X146579590Y-116005483D01*
X146579590Y-116005483D02*
X146617690Y-116081683D01*
X146617690Y-116081683D02*
X146655790Y-116119783D01*
X146655790Y-116119783D02*
X146731990Y-116157883D01*
X146731990Y-116157883D02*
X146846290Y-116157883D01*
X145413730Y-115624483D02*
X145413730Y-116157883D01*
X145756630Y-115624483D02*
X145756630Y-116043583D01*
X145756630Y-116043583D02*
X145718530Y-116119783D01*
X145718530Y-116119783D02*
X145642330Y-116157883D01*
X145642330Y-116157883D02*
X145528030Y-116157883D01*
X145528030Y-116157883D02*
X145451830Y-116119783D01*
X145451830Y-116119783D02*
X145413730Y-116081683D01*
X145070830Y-116119783D02*
X144994630Y-116157883D01*
X144994630Y-116157883D02*
X144842230Y-116157883D01*
X144842230Y-116157883D02*
X144766030Y-116119783D01*
X144766030Y-116119783D02*
X144727930Y-116043583D01*
X144727930Y-116043583D02*
X144727930Y-116005483D01*
X144727930Y-116005483D02*
X144766030Y-115929283D01*
X144766030Y-115929283D02*
X144842230Y-115891183D01*
X144842230Y-115891183D02*
X144956530Y-115891183D01*
X144956530Y-115891183D02*
X145032730Y-115853083D01*
X145032730Y-115853083D02*
X145070830Y-115776883D01*
X145070830Y-115776883D02*
X145070830Y-115738783D01*
X145070830Y-115738783D02*
X145032730Y-115662583D01*
X145032730Y-115662583D02*
X144956530Y-115624483D01*
X144956530Y-115624483D02*
X144842230Y-115624483D01*
X144842230Y-115624483D02*
X144766030Y-115662583D01*
X144080230Y-116119783D02*
X144156430Y-116157883D01*
X144156430Y-116157883D02*
X144308830Y-116157883D01*
X144308830Y-116157883D02*
X144385030Y-116119783D01*
X144385030Y-116119783D02*
X144423130Y-116043583D01*
X144423130Y-116043583D02*
X144423130Y-115738783D01*
X144423130Y-115738783D02*
X144385030Y-115662583D01*
X144385030Y-115662583D02*
X144308830Y-115624483D01*
X144308830Y-115624483D02*
X144156430Y-115624483D01*
X144156430Y-115624483D02*
X144080230Y-115662583D01*
X144080230Y-115662583D02*
X144042130Y-115738783D01*
X144042130Y-115738783D02*
X144042130Y-115814983D01*
X144042130Y-115814983D02*
X144423130Y-115891183D01*
X142914370Y-116119783D02*
X142990570Y-116157883D01*
X142990570Y-116157883D02*
X143142970Y-116157883D01*
X143142970Y-116157883D02*
X143219170Y-116119783D01*
X143219170Y-116119783D02*
X143257270Y-116043583D01*
X143257270Y-116043583D02*
X143257270Y-115738783D01*
X143257270Y-115738783D02*
X143219170Y-115662583D01*
X143219170Y-115662583D02*
X143142970Y-115624483D01*
X143142970Y-115624483D02*
X142990570Y-115624483D01*
X142990570Y-115624483D02*
X142914370Y-115662583D01*
X142914370Y-115662583D02*
X142876270Y-115738783D01*
X142876270Y-115738783D02*
X142876270Y-115814983D01*
X142876270Y-115814983D02*
X143257270Y-115891183D01*
X142609570Y-116157883D02*
X142190470Y-115624483D01*
X142609570Y-115624483D02*
X142190470Y-116157883D01*
X141999970Y-115624483D02*
X141695170Y-115624483D01*
X141885670Y-115357783D02*
X141885670Y-116043583D01*
X141885670Y-116043583D02*
X141847570Y-116119783D01*
X141847570Y-116119783D02*
X141771370Y-116157883D01*
X141771370Y-116157883D02*
X141695170Y-116157883D01*
X141123670Y-116119783D02*
X141199870Y-116157883D01*
X141199870Y-116157883D02*
X141352270Y-116157883D01*
X141352270Y-116157883D02*
X141428470Y-116119783D01*
X141428470Y-116119783D02*
X141466570Y-116043583D01*
X141466570Y-116043583D02*
X141466570Y-115738783D01*
X141466570Y-115738783D02*
X141428470Y-115662583D01*
X141428470Y-115662583D02*
X141352270Y-115624483D01*
X141352270Y-115624483D02*
X141199870Y-115624483D01*
X141199870Y-115624483D02*
X141123670Y-115662583D01*
X141123670Y-115662583D02*
X141085570Y-115738783D01*
X141085570Y-115738783D02*
X141085570Y-115814983D01*
X141085570Y-115814983D02*
X141466570Y-115891183D01*
X140742670Y-116157883D02*
X140742670Y-115624483D01*
X140742670Y-115776883D02*
X140704570Y-115700683D01*
X140704570Y-115700683D02*
X140666470Y-115662583D01*
X140666470Y-115662583D02*
X140590270Y-115624483D01*
X140590270Y-115624483D02*
X140514070Y-115624483D01*
X140247370Y-115624483D02*
X140247370Y-116157883D01*
X140247370Y-115700683D02*
X140209270Y-115662583D01*
X140209270Y-115662583D02*
X140133070Y-115624483D01*
X140133070Y-115624483D02*
X140018770Y-115624483D01*
X140018770Y-115624483D02*
X139942570Y-115662583D01*
X139942570Y-115662583D02*
X139904470Y-115738783D01*
X139904470Y-115738783D02*
X139904470Y-116157883D01*
X139180570Y-116157883D02*
X139180570Y-115738783D01*
X139180570Y-115738783D02*
X139218670Y-115662583D01*
X139218670Y-115662583D02*
X139294870Y-115624483D01*
X139294870Y-115624483D02*
X139447270Y-115624483D01*
X139447270Y-115624483D02*
X139523470Y-115662583D01*
X139180570Y-116119783D02*
X139256770Y-116157883D01*
X139256770Y-116157883D02*
X139447270Y-116157883D01*
X139447270Y-116157883D02*
X139523470Y-116119783D01*
X139523470Y-116119783D02*
X139561570Y-116043583D01*
X139561570Y-116043583D02*
X139561570Y-115967383D01*
X139561570Y-115967383D02*
X139523470Y-115891183D01*
X139523470Y-115891183D02*
X139447270Y-115853083D01*
X139447270Y-115853083D02*
X139256770Y-115853083D01*
X139256770Y-115853083D02*
X139180570Y-115814983D01*
X138685270Y-116157883D02*
X138761470Y-116119783D01*
X138761470Y-116119783D02*
X138799570Y-116043583D01*
X138799570Y-116043583D02*
X138799570Y-115357783D01*
X137938510Y-116119783D02*
X137862310Y-116157883D01*
X137862310Y-116157883D02*
X137709910Y-116157883D01*
X137709910Y-116157883D02*
X137633710Y-116119783D01*
X137633710Y-116119783D02*
X137595610Y-116043583D01*
X137595610Y-116043583D02*
X137595610Y-116005483D01*
X137595610Y-116005483D02*
X137633710Y-115929283D01*
X137633710Y-115929283D02*
X137709910Y-115891183D01*
X137709910Y-115891183D02*
X137824210Y-115891183D01*
X137824210Y-115891183D02*
X137900410Y-115853083D01*
X137900410Y-115853083D02*
X137938510Y-115776883D01*
X137938510Y-115776883D02*
X137938510Y-115738783D01*
X137938510Y-115738783D02*
X137900410Y-115662583D01*
X137900410Y-115662583D02*
X137824210Y-115624483D01*
X137824210Y-115624483D02*
X137709910Y-115624483D01*
X137709910Y-115624483D02*
X137633710Y-115662583D01*
X137252710Y-116157883D02*
X137252710Y-115624483D01*
X137252710Y-115357783D02*
X137290810Y-115395883D01*
X137290810Y-115395883D02*
X137252710Y-115433983D01*
X137252710Y-115433983D02*
X137214610Y-115395883D01*
X137214610Y-115395883D02*
X137252710Y-115357783D01*
X137252710Y-115357783D02*
X137252710Y-115433983D01*
X136528810Y-115624483D02*
X136528810Y-116272183D01*
X136528810Y-116272183D02*
X136566910Y-116348383D01*
X136566910Y-116348383D02*
X136605010Y-116386483D01*
X136605010Y-116386483D02*
X136681210Y-116424583D01*
X136681210Y-116424583D02*
X136795510Y-116424583D01*
X136795510Y-116424583D02*
X136871710Y-116386483D01*
X136528810Y-116119783D02*
X136605010Y-116157883D01*
X136605010Y-116157883D02*
X136757410Y-116157883D01*
X136757410Y-116157883D02*
X136833610Y-116119783D01*
X136833610Y-116119783D02*
X136871710Y-116081683D01*
X136871710Y-116081683D02*
X136909810Y-116005483D01*
X136909810Y-116005483D02*
X136909810Y-115776883D01*
X136909810Y-115776883D02*
X136871710Y-115700683D01*
X136871710Y-115700683D02*
X136833610Y-115662583D01*
X136833610Y-115662583D02*
X136757410Y-115624483D01*
X136757410Y-115624483D02*
X136605010Y-115624483D01*
X136605010Y-115624483D02*
X136528810Y-115662583D01*
X136147810Y-115624483D02*
X136147810Y-116157883D01*
X136147810Y-115700683D02*
X136109710Y-115662583D01*
X136109710Y-115662583D02*
X136033510Y-115624483D01*
X136033510Y-115624483D02*
X135919210Y-115624483D01*
X135919210Y-115624483D02*
X135843010Y-115662583D01*
X135843010Y-115662583D02*
X135804910Y-115738783D01*
X135804910Y-115738783D02*
X135804910Y-116157883D01*
X135081010Y-116157883D02*
X135081010Y-115738783D01*
X135081010Y-115738783D02*
X135119110Y-115662583D01*
X135119110Y-115662583D02*
X135195310Y-115624483D01*
X135195310Y-115624483D02*
X135347710Y-115624483D01*
X135347710Y-115624483D02*
X135423910Y-115662583D01*
X135081010Y-116119783D02*
X135157210Y-116157883D01*
X135157210Y-116157883D02*
X135347710Y-116157883D01*
X135347710Y-116157883D02*
X135423910Y-116119783D01*
X135423910Y-116119783D02*
X135462010Y-116043583D01*
X135462010Y-116043583D02*
X135462010Y-115967383D01*
X135462010Y-115967383D02*
X135423910Y-115891183D01*
X135423910Y-115891183D02*
X135347710Y-115853083D01*
X135347710Y-115853083D02*
X135157210Y-115853083D01*
X135157210Y-115853083D02*
X135081010Y-115814983D01*
X134585710Y-116157883D02*
X134661910Y-116119783D01*
X134661910Y-116119783D02*
X134700010Y-116043583D01*
X134700010Y-116043583D02*
X134700010Y-115357783D01*
X134319010Y-116119783D02*
X134242810Y-116157883D01*
X134242810Y-116157883D02*
X134090410Y-116157883D01*
X134090410Y-116157883D02*
X134014210Y-116119783D01*
X134014210Y-116119783D02*
X133976110Y-116043583D01*
X133976110Y-116043583D02*
X133976110Y-116005483D01*
X133976110Y-116005483D02*
X134014210Y-115929283D01*
X134014210Y-115929283D02*
X134090410Y-115891183D01*
X134090410Y-115891183D02*
X134204710Y-115891183D01*
X134204710Y-115891183D02*
X134280910Y-115853083D01*
X134280910Y-115853083D02*
X134319010Y-115776883D01*
X134319010Y-115776883D02*
X134319010Y-115738783D01*
X134319010Y-115738783D02*
X134280910Y-115662583D01*
X134280910Y-115662583D02*
X134204710Y-115624483D01*
X134204710Y-115624483D02*
X134090410Y-115624483D01*
X134090410Y-115624483D02*
X134014210Y-115662583D01*
M02*
