M48
; DRILL file {KiCad (7.0.0)} date Mon Aug 26 11:17:37 2024
; FORMAT={-:-/ absolute / inch / decimal}
; #@! TF.CreationDate,2024-08-26T11:17:37-04:00
; #@! TF.GenerationSoftware,Kicad,Pcbnew,(7.0.0)
; #@! TF.FileFunction,Plated,1,2,PTH
FMAT,2
INCH
; #@! TA.AperFunction,Plated,PTH,ViaDrill
T1C0.0130
; #@! TA.AperFunction,Plated,PTH,ViaDrill
T2C0.0250
; #@! TA.AperFunction,Plated,PTH,ComponentDrill
T3C0.0315
; #@! TA.AperFunction,Plated,PTH,ComponentDrill
T4C0.0354
; #@! TA.AperFunction,Plated,PTH,ComponentDrill
T5C0.0394
%
G90
G05
T1
X5.58Y-4.33
X5.75Y-4.33
T2
X5.57Y-3.69
X5.81Y-3.99
T3
X4.93Y-3.67
X5.1731Y-4.03
X5.3Y-3.3026
X5.3Y-3.401
X5.3Y-4.16
X5.3Y-4.2584
X5.33Y-3.67
X5.37Y-4.03
T4
X5.2398Y-3.84
X5.3398Y-3.84
T5
X4.93Y-3.3147
X4.93Y-3.96
X4.93Y-4.06
X4.93Y-4.16
X4.93Y-4.26
X4.93Y-4.36
X4.93Y-4.46
X4.93Y-4.56
X4.93Y-4.66
X4.93Y-4.9147
X5.03Y-4.9147
X5.28Y-4.66
X5.28Y-4.76
X5.28Y-4.98
X5.38Y-4.66
X5.38Y-4.76
X5.38Y-4.98
X5.48Y-4.66
X5.48Y-4.76
X5.48Y-4.98
X5.5085Y-4.1265
X5.5085Y-4.2265
X5.58Y-4.66
X5.58Y-4.76
X5.58Y-4.98
X5.6085Y-4.1265
X5.6085Y-4.2265
X5.68Y-4.66
X5.68Y-4.76
X5.68Y-4.98
X5.7085Y-4.1265
X5.7085Y-4.2265
X5.78Y-4.66
X5.78Y-4.76
X5.78Y-4.98
X5.8085Y-4.1265
X5.8085Y-4.2265
X5.88Y-4.98
X5.98Y-4.46
X5.98Y-4.56
X5.98Y-4.66
X5.98Y-4.98
T0
M30
