%TF.GenerationSoftware,KiCad,Pcbnew,(7.0.0)*%
%TF.CreationDate,2024-08-26T11:17:35-04:00*%
%TF.ProjectId,nrf24l01_bob,6e726632-346c-4303-915f-626f622e6b69,rev?*%
%TF.SameCoordinates,Original*%
%TF.FileFunction,Soldermask,Bot*%
%TF.FilePolarity,Negative*%
%FSLAX46Y46*%
G04 Gerber Fmt 4.6, Leading zero omitted, Abs format (unit mm)*
G04 Created by KiCad (PCBNEW (7.0.0)) date 2024-08-26 11:17:35*
%MOMM*%
%LPD*%
G01*
G04 APERTURE LIST*
%ADD10C,1.600000*%
%ADD11O,1.600000X1.600000*%
%ADD12R,1.800000X1.800000*%
%ADD13C,1.800000*%
%ADD14R,1.600000X1.600000*%
%ADD15O,1.700000X1.700000*%
%ADD16R,1.700000X1.700000*%
%ADD17C,1.700000*%
G04 APERTURE END LIST*
D10*
%TO.C,R1*%
X135382000Y-93218000D03*
D11*
X125221999Y-93217999D03*
%TD*%
D12*
%TO.C,D1*%
X133090999Y-97535999D03*
D13*
X135631000Y-97536000D03*
%TD*%
D14*
%TO.C,C5*%
X134619999Y-83884887D03*
D10*
X134620000Y-86384888D03*
%TD*%
%TO.C,C2*%
X136398000Y-102362000D03*
X131398000Y-102362000D03*
%TD*%
D14*
%TO.C,C1*%
X134619999Y-105663999D03*
D10*
X134620000Y-108164000D03*
%TD*%
D15*
%TO.C,J12*%
X134111999Y-120903999D03*
X134111999Y-118363999D03*
X136651999Y-120903999D03*
X136651999Y-118363999D03*
X139191999Y-120903999D03*
X139191999Y-118363999D03*
X141731999Y-120903999D03*
X141731999Y-118363999D03*
X144271999Y-120903999D03*
X144271999Y-118363999D03*
X146811999Y-120903999D03*
D16*
X146811999Y-118363999D03*
%TD*%
%TO.C,U1*%
X139916999Y-107352999D03*
D17*
X139917000Y-104813000D03*
X142457000Y-107353000D03*
X142457000Y-104813000D03*
X144997000Y-107353000D03*
X144997000Y-104813000D03*
X147537000Y-107353000D03*
X147537000Y-104813000D03*
%TD*%
D16*
%TO.C,J11*%
X125221999Y-124832999D03*
D15*
X127761999Y-124832999D03*
%TD*%
D16*
%TO.C,J10*%
X125221999Y-100583999D03*
D15*
X125221999Y-103123999D03*
X125221999Y-105663999D03*
X125221999Y-108203999D03*
X125221999Y-110743999D03*
X125221999Y-113283999D03*
X125221999Y-115823999D03*
X125221999Y-118363999D03*
%TD*%
D16*
%TO.C,J9*%
X151891999Y-118363999D03*
D15*
X151891999Y-115823999D03*
X151891999Y-113283999D03*
%TD*%
D16*
%TO.C,J8*%
X125221999Y-84192999D03*
%TD*%
D15*
%TO.C,J1*%
X134111999Y-126491999D03*
X136651999Y-126491999D03*
X139191999Y-126491999D03*
X141731999Y-126491999D03*
X144271999Y-126491999D03*
X146811999Y-126491999D03*
X149351999Y-126491999D03*
D16*
X151891999Y-126491999D03*
%TD*%
M02*
