%TF.GenerationSoftware,KiCad,Pcbnew,(7.0.0)*%
%TF.CreationDate,2024-08-26T11:17:35-04:00*%
%TF.ProjectId,nrf24l01_bob,6e726632-346c-4303-915f-626f622e6b69,rev?*%
%TF.SameCoordinates,Original*%
%TF.FileFunction,Copper,L1,Top*%
%TF.FilePolarity,Positive*%
%FSLAX46Y46*%
G04 Gerber Fmt 4.6, Leading zero omitted, Abs format (unit mm)*
G04 Created by KiCad (PCBNEW (7.0.0)) date 2024-08-26 11:17:35*
%MOMM*%
%LPD*%
G01*
G04 APERTURE LIST*
G04 Aperture macros list*
%AMRoundRect*
0 Rectangle with rounded corners*
0 $1 Rounding radius*
0 $2 $3 $4 $5 $6 $7 $8 $9 X,Y pos of 4 corners*
0 Add a 4 corners polygon primitive as box body*
4,1,4,$2,$3,$4,$5,$6,$7,$8,$9,$2,$3,0*
0 Add four circle primitives for the rounded corners*
1,1,$1+$1,$2,$3*
1,1,$1+$1,$4,$5*
1,1,$1+$1,$6,$7*
1,1,$1+$1,$8,$9*
0 Add four rect primitives between the rounded corners*
20,1,$1+$1,$2,$3,$4,$5,0*
20,1,$1+$1,$4,$5,$6,$7,0*
20,1,$1+$1,$6,$7,$8,$9,0*
20,1,$1+$1,$8,$9,$2,$3,0*%
G04 Aperture macros list end*
%TA.AperFunction,ComponentPad*%
%ADD10C,1.600000*%
%TD*%
%TA.AperFunction,ComponentPad*%
%ADD11O,1.600000X1.600000*%
%TD*%
%TA.AperFunction,ComponentPad*%
%ADD12R,1.800000X1.800000*%
%TD*%
%TA.AperFunction,ComponentPad*%
%ADD13C,1.800000*%
%TD*%
%TA.AperFunction,ComponentPad*%
%ADD14R,1.600000X1.600000*%
%TD*%
%TA.AperFunction,SMDPad,CuDef*%
%ADD15RoundRect,0.250000X-0.337500X-0.475000X0.337500X-0.475000X0.337500X0.475000X-0.337500X0.475000X0*%
%TD*%
%TA.AperFunction,SMDPad,CuDef*%
%ADD16RoundRect,0.250000X0.550000X-1.250000X0.550000X1.250000X-0.550000X1.250000X-0.550000X-1.250000X0*%
%TD*%
%TA.AperFunction,ComponentPad*%
%ADD17O,1.700000X1.700000*%
%TD*%
%TA.AperFunction,ComponentPad*%
%ADD18R,1.700000X1.700000*%
%TD*%
%TA.AperFunction,SMDPad,CuDef*%
%ADD19RoundRect,0.150000X-0.512500X-0.150000X0.512500X-0.150000X0.512500X0.150000X-0.512500X0.150000X0*%
%TD*%
%TA.AperFunction,ComponentPad*%
%ADD20C,1.700000*%
%TD*%
%TA.AperFunction,ViaPad*%
%ADD21C,0.685800*%
%TD*%
%TA.AperFunction,ViaPad*%
%ADD22C,1.270000*%
%TD*%
%TA.AperFunction,Conductor*%
%ADD23C,0.152400*%
%TD*%
%TA.AperFunction,Conductor*%
%ADD24C,0.304800*%
%TD*%
G04 APERTURE END LIST*
D10*
%TO.P,R1,1*%
%TO.N,Net-(D1-K)*%
X135382000Y-93218000D03*
D11*
%TO.P,R1,2*%
%TO.N,GND*%
X125221999Y-93217999D03*
%TD*%
D12*
%TO.P,D1,1,K*%
%TO.N,Net-(D1-K)*%
X133090999Y-97535999D03*
D13*
%TO.P,D1,2,A*%
%TO.N,/nrf_3v3*%
X135631000Y-97536000D03*
%TD*%
D14*
%TO.P,C5,1*%
%TO.N,/ext_5v*%
X134619999Y-83884887D03*
D10*
%TO.P,C5,2*%
%TO.N,GND*%
X134620000Y-86384888D03*
%TD*%
D15*
%TO.P,C4,1*%
%TO.N,/nrf_3v3*%
X143742500Y-101346000D03*
%TO.P,C4,2*%
%TO.N,GND*%
X145817500Y-101346000D03*
%TD*%
D16*
%TO.P,C3,1*%
%TO.N,/nrf_3v3*%
X139954000Y-100498000D03*
%TO.P,C3,2*%
%TO.N,GND*%
X139954000Y-96098000D03*
%TD*%
D10*
%TO.P,C2,1*%
%TO.N,/nrf_3v3*%
X136398000Y-102362000D03*
%TO.P,C2,2*%
%TO.N,GND*%
X131398000Y-102362000D03*
%TD*%
D14*
%TO.P,C1,1*%
%TO.N,/nrf_3v3*%
X134619999Y-105663999D03*
D10*
%TO.P,C1,2*%
%TO.N,GND*%
X134620000Y-108164000D03*
%TD*%
D17*
%TO.P,J12,12,Pin_12*%
%TO.N,/irq*%
X134111999Y-120903999D03*
%TO.P,J12,11,Pin_11*%
X134111999Y-118363999D03*
%TO.P,J12,10,Pin_10*%
%TO.N,/ce*%
X136651999Y-120903999D03*
%TO.P,J12,9,Pin_9*%
X136651999Y-118363999D03*
%TO.P,J12,8,Pin_8*%
%TO.N,/mosi*%
X139191999Y-120903999D03*
%TO.P,J12,7,Pin_7*%
X139191999Y-118363999D03*
%TO.P,J12,6,Pin_6*%
%TO.N,/sck*%
X141731999Y-120903999D03*
%TO.P,J12,5,Pin_5*%
X141731999Y-118363999D03*
%TO.P,J12,4,Pin_4*%
%TO.N,/csn*%
X144271999Y-120903999D03*
%TO.P,J12,3,Pin_3*%
X144271999Y-118363999D03*
%TO.P,J12,2,Pin_2*%
%TO.N,/miso*%
X146811999Y-120903999D03*
D18*
%TO.P,J12,1,Pin_1*%
X146811999Y-118363999D03*
%TD*%
D19*
%TO.P,U2,1,VIN*%
%TO.N,/ext_5v*%
X128402500Y-84328000D03*
%TO.P,U2,2,GND*%
%TO.N,GND*%
X128402500Y-85278000D03*
%TO.P,U2,3,EN*%
%TO.N,/ext_5v*%
X128402500Y-86228000D03*
%TO.P,U2,4,NC*%
%TO.N,unconnected-(U2-NC-Pad4)*%
X130677500Y-86228000D03*
%TO.P,U2,5,VOUT*%
%TO.N,/reg_3v3*%
X130677500Y-84328000D03*
%TD*%
D18*
%TO.P,U1,1,GND*%
%TO.N,GND*%
X139916999Y-107352999D03*
D20*
%TO.P,U1,2,VCC*%
%TO.N,/nrf_3v3*%
X139917000Y-104813000D03*
%TO.P,U1,3,CE*%
%TO.N,/ce*%
X142457000Y-107353000D03*
%TO.P,U1,4,~{CSN}*%
%TO.N,/csn*%
X142457000Y-104813000D03*
%TO.P,U1,5,SCK*%
%TO.N,/sck*%
X144997000Y-107353000D03*
%TO.P,U1,6,MOSI*%
%TO.N,/mosi*%
X144997000Y-104813000D03*
%TO.P,U1,7,MISO*%
%TO.N,/miso*%
X147537000Y-107353000D03*
%TO.P,U1,8,IRQ*%
%TO.N,/irq*%
X147537000Y-104813000D03*
%TD*%
D18*
%TO.P,J11,1,Pin_1*%
%TO.N,/gpio*%
X125221999Y-124832999D03*
D17*
%TO.P,J11,2,Pin_2*%
X127761999Y-124832999D03*
%TD*%
D18*
%TO.P,J10,1,Pin_1*%
%TO.N,GND*%
X125221999Y-100583999D03*
D17*
%TO.P,J10,2,Pin_2*%
%TO.N,/gpio*%
X125221999Y-103123999D03*
%TO.P,J10,3,Pin_3*%
%TO.N,/irq*%
X125221999Y-105663999D03*
%TO.P,J10,4,Pin_4*%
%TO.N,/ce*%
X125221999Y-108203999D03*
%TO.P,J10,5,Pin_5*%
%TO.N,/csn*%
X125221999Y-110743999D03*
%TO.P,J10,6,Pin_6*%
%TO.N,/sck*%
X125221999Y-113283999D03*
%TO.P,J10,7,Pin_7*%
%TO.N,/miso*%
X125221999Y-115823999D03*
%TO.P,J10,8,Pin_8*%
%TO.N,/mosi*%
X125221999Y-118363999D03*
%TD*%
D18*
%TO.P,J9,1,Pin_1*%
%TO.N,/hdr_3v3*%
X151891999Y-118363999D03*
D17*
%TO.P,J9,2,Pin_2*%
%TO.N,/nrf_3v3*%
X151891999Y-115823999D03*
%TO.P,J9,3,Pin_3*%
%TO.N,/reg_3v3*%
X151891999Y-113283999D03*
%TD*%
D18*
%TO.P,J8,1,Pin_1*%
%TO.N,/ext_5v*%
X125221999Y-84192999D03*
%TD*%
D17*
%TO.P,J1,8,Pin_8*%
%TO.N,/irq*%
X134111999Y-126491999D03*
%TO.P,J1,7,Pin_7*%
%TO.N,/ce*%
X136651999Y-126491999D03*
%TO.P,J1,6,Pin_6*%
%TO.N,/mosi*%
X139191999Y-126491999D03*
%TO.P,J1,5,Pin_5*%
%TO.N,/sck*%
X141731999Y-126491999D03*
%TO.P,J1,4,Pin_4*%
%TO.N,GND*%
X144271999Y-126491999D03*
%TO.P,J1,3,Pin_3*%
%TO.N,/csn*%
X146811999Y-126491999D03*
%TO.P,J1,2,Pin_2*%
%TO.N,/miso*%
X149351999Y-126491999D03*
D18*
%TO.P,J1,1,Pin_1*%
%TO.N,/hdr_3v3*%
X151891999Y-126491999D03*
%TD*%
D21*
%TO.N,/irq*%
X146050000Y-109982000D03*
X141732000Y-109982000D03*
D22*
%TO.N,GND*%
X147574000Y-101346000D03*
X141478000Y-93726000D03*
%TD*%
D23*
%TO.N,Net-(D1-K)*%
X133091000Y-95509000D02*
X135382000Y-93218000D01*
X133091000Y-97536000D02*
X133091000Y-95509000D01*
D24*
%TO.N,/nrf_3v3*%
X135631000Y-101595000D02*
X136398000Y-102362000D01*
X135631000Y-97536000D02*
X135631000Y-101595000D01*
D23*
%TO.N,/ce*%
X132306600Y-109192600D02*
X140617400Y-109192600D01*
X140617400Y-109192600D02*
X142457000Y-107353000D01*
X131318000Y-108204000D02*
X132306600Y-109192600D01*
X125222000Y-108204000D02*
X131318000Y-108204000D01*
D24*
%TO.N,/nrf_3v3*%
X134620000Y-104140000D02*
X134620000Y-105664000D01*
X136398000Y-102362000D02*
X134620000Y-104140000D01*
D23*
%TO.N,/csn*%
X140995600Y-106274400D02*
X142457000Y-104813000D01*
X133591400Y-106692600D02*
X136131400Y-106692600D01*
X136549600Y-106274400D02*
X140995600Y-106274400D01*
X131292800Y-104394000D02*
X133591400Y-106692600D01*
X136131400Y-106692600D02*
X136549600Y-106274400D01*
X124966629Y-104394000D02*
X131292800Y-104394000D01*
D24*
%TO.N,/nrf_3v3*%
X138090000Y-102362000D02*
X139954000Y-100498000D01*
X136398000Y-102362000D02*
X138090000Y-102362000D01*
%TO.N,GND*%
X132381742Y-85278000D02*
X133488630Y-86384888D01*
%TO.N,/reg_3v3*%
X143247588Y-85280088D02*
X151892000Y-93924500D01*
%TO.N,GND*%
X128402500Y-85278000D02*
X132381742Y-85278000D01*
%TO.N,/reg_3v3*%
X133029702Y-85280088D02*
X143247588Y-85280088D01*
X130677500Y-84328000D02*
X132077614Y-84328000D01*
X132077614Y-84328000D02*
X133029702Y-85280088D01*
X151892000Y-93924500D02*
X151892000Y-113284000D01*
%TO.N,GND*%
X133488630Y-86384888D02*
X134620000Y-86384888D01*
%TO.N,/ext_5v*%
X129007300Y-83723200D02*
X134458312Y-83723200D01*
X134458312Y-83723200D02*
X134620000Y-83884888D01*
X128402500Y-84328000D02*
X129007300Y-83723200D01*
X128327324Y-86303176D02*
X128402500Y-86228000D01*
X126177376Y-86303176D02*
X128327324Y-86303176D01*
X125222000Y-85347800D02*
X126177376Y-86303176D01*
X125222000Y-84193000D02*
X125222000Y-85347800D01*
X128267500Y-84193000D02*
X128402500Y-84328000D01*
X125222000Y-84193000D02*
X128267500Y-84193000D01*
D23*
%TO.N,/irq*%
X146075600Y-106274400D02*
X147537000Y-104813000D01*
X146050000Y-109982000D02*
X146075600Y-109956400D01*
X141732000Y-110744000D02*
X141732000Y-109982000D01*
X134112000Y-118364000D02*
X141732000Y-110744000D01*
X146075600Y-109956400D02*
X146075600Y-106274400D01*
%TO.N,/csn*%
X145542000Y-119634000D02*
X144272000Y-118364000D01*
X148844000Y-118364000D02*
X147574000Y-119634000D01*
X148844000Y-104594629D02*
X148844000Y-118364000D01*
X147983771Y-103734400D02*
X148844000Y-104594629D01*
X143535600Y-103734400D02*
X147983771Y-103734400D01*
X142457000Y-104813000D02*
X143535600Y-103734400D01*
%TO.N,/miso*%
X145846301Y-119938301D02*
X146812000Y-120904000D01*
X145415955Y-119938301D02*
X145846301Y-119938301D01*
%TO.N,/csn*%
X147574000Y-119634000D02*
X145542000Y-119634000D01*
%TO.N,/miso*%
X144998753Y-119521099D02*
X145415955Y-119938301D01*
X125222000Y-115824000D02*
X128919099Y-119521099D01*
D24*
%TO.N,/nrf_3v3*%
X150737200Y-114669200D02*
X151892000Y-115824000D01*
X148141380Y-103353899D02*
X150737200Y-105949719D01*
X141376101Y-103353899D02*
X148141380Y-103353899D01*
X139917000Y-104813000D02*
X141376101Y-103353899D01*
X150737200Y-105949719D02*
X150737200Y-114669200D01*
D23*
%TO.N,/miso*%
X128919099Y-119521099D02*
X144998753Y-119521099D01*
%TO.N,/csn*%
X123839099Y-109361099D02*
X123839099Y-105521530D01*
X125222000Y-110744000D02*
X123839099Y-109361099D01*
X123839099Y-105521530D02*
X124966629Y-104394000D01*
D24*
%TO.N,/nrf_3v3*%
X139917000Y-100535000D02*
X139917000Y-104813000D01*
X139954000Y-100498000D02*
X139917000Y-100535000D01*
X139954000Y-100498000D02*
X142894500Y-100498000D01*
X142894500Y-100498000D02*
X143742500Y-101346000D01*
%TO.N,GND*%
X145817500Y-101346000D02*
X147574000Y-101346000D01*
X139954000Y-95250000D02*
X141478000Y-93726000D01*
X139954000Y-96098000D02*
X139954000Y-95250000D01*
D23*
%TO.N,/irq*%
X134112000Y-118108629D02*
X134112000Y-118364000D01*
X124905400Y-109665400D02*
X125668771Y-109665400D01*
X124143400Y-108903400D02*
X124905400Y-109665400D01*
X124143400Y-106742600D02*
X124143400Y-108903400D01*
X125222000Y-105664000D02*
X124143400Y-106742600D01*
%TO.N,/gpio*%
X123534798Y-104811202D02*
X125222000Y-103124000D01*
%TO.N,/irq*%
X125668771Y-109665400D02*
X134112000Y-118108629D01*
%TO.N,/gpio*%
X123534798Y-123145798D02*
X123534798Y-104811202D01*
X125222000Y-124833000D02*
X123534798Y-123145798D01*
%TO.N,/ce*%
X142457000Y-112559000D02*
X136652000Y-118364000D01*
X142457000Y-107353000D02*
X142457000Y-112559000D01*
%TO.N,/sck*%
X132650600Y-127570600D02*
X140653400Y-127570600D01*
X124143400Y-119063400D02*
X132650600Y-127570600D01*
X140653400Y-127570600D02*
X141732000Y-126492000D01*
X125222000Y-113284000D02*
X124143400Y-114362600D01*
X124143400Y-114362600D02*
X124143400Y-119063400D01*
%TO.N,/mosi*%
X138113400Y-119825400D02*
X139192000Y-120904000D01*
X125222000Y-118364000D02*
X126683400Y-119825400D01*
X126683400Y-119825400D02*
X138113400Y-119825400D01*
%TO.N,/sck*%
X144997000Y-115099000D02*
X144997000Y-107353000D01*
X141732000Y-118364000D02*
X144997000Y-115099000D01*
%TO.N,/mosi*%
X143918400Y-105891600D02*
X144997000Y-104813000D01*
X143918400Y-113637600D02*
X143918400Y-105891600D01*
X139192000Y-118364000D02*
X143918400Y-113637600D01*
%TO.N,/miso*%
X146812000Y-108078000D02*
X147537000Y-107353000D01*
X146812000Y-118364000D02*
X146812000Y-108078000D01*
%TO.N,/irq*%
X134112000Y-126492000D02*
X134112000Y-120904000D01*
%TO.N,/ce*%
X136652000Y-126492000D02*
X136652000Y-120904000D01*
%TO.N,/mosi*%
X139192000Y-126492000D02*
X139192000Y-120904000D01*
%TO.N,/sck*%
X141732000Y-126492000D02*
X141732000Y-120904000D01*
%TO.N,/csn*%
X146812000Y-123444000D02*
X144272000Y-120904000D01*
X146812000Y-126492000D02*
X146812000Y-123444000D01*
%TO.N,/miso*%
X149352000Y-123444000D02*
X146812000Y-120904000D01*
X149352000Y-126492000D02*
X149352000Y-123444000D01*
D24*
%TO.N,/hdr_3v3*%
X151892000Y-118364000D02*
X151892000Y-126492000D01*
%TD*%
M02*
